<?xml version="1.0" encoding="UTF-8" standalone="no"?>
<svg
   width="88.000008"
   height="126.98"
   viewBox="0 0 88.000008 126.98"
   fill="none"
   version="1.1"
   id="svg18"
   sodipodi:docname="agorApp.svg"
   inkscape:version="1.4 (e7c3feb1, 2024-10-09)"
   xmlns:inkscape="http://www.inkscape.org/namespaces/inkscape"
   xmlns:sodipodi="http://sodipodi.sourceforge.net/DTD/sodipodi-0.dtd"
   xmlns="http://www.w3.org/2000/svg"
   xmlns:svg="http://www.w3.org/2000/svg">
  <sodipodi:namedview
     id="namedview18"
     pagecolor="#ffffff"
     bordercolor="#000000"
     borderopacity="0.25"
     inkscape:showpageshadow="2"
     inkscape:pageopacity="0.0"
     inkscape:pagecheckerboard="0"
     inkscape:deskcolor="#d1d1d1"
     inkscape:zoom="0.19272042"
     inkscape:cx="145.28819"
     inkscape:cy="59.671933"
     inkscape:window-width="1352"
     inkscape:window-height="844"
     inkscape:window-x="0"
     inkscape:window-y="168"
     inkscape:window-maximized="0"
     inkscape:current-layer="svg18" />
  <g
     id="g18"
     transform="translate(0.50000556,0.5)">
    <path
       d="m 22.6319,114.348 c 1.927,1.549 3.9642,2.955 6.0954,4.207 7e-4,0.003 0.0015,0.006 0.0023,0.009 0.0209,0.077 0.055,0.185 0.1089,0.319 0.1079,0.27 0.295,0.644 0.6146,1.081 0.6399,0.877 1.8049,2 3.9118,3.047 2.0941,1.041 4.4763,1.844 6.3299,2.386 0.9279,0.272 1.7256,0.478 2.2916,0.617 0.283,0.07 0.5082,0.122 0.6629,0.157 0.0773,0.018 0.137,0.031 0.1776,0.04 l 0.0461,0.01 0.012,0.003 0.0031,10e-4 h 8e-4 2e-4 c 1e-4,0 1e-4,0 0.0521,-0.245 l -0.052,0.245 0.0257,0.005 h 0.0263 1.0663 0.0259 l 0.0254,-0.005 -0.0513,-0.245 c 0.0513,0.245 0.0513,0.245 0.0514,0.245 h 2e-4 9e-4 l 0.0031,-10e-4 0.0121,-0.003 0.0468,-0.01 c 0.0411,-0.009 0.1016,-0.022 0.18,-0.039 0.1567,-0.036 0.3848,-0.088 0.6714,-0.158 0.573,-0.138 1.38,-0.345 2.3173,-0.617 1.8724,-0.542 4.2736,-1.345 6.3681,-2.386 2.1068,-1.047 3.2719,-2.17 3.9118,-3.047 0.3196,-0.437 0.5067,-0.811 0.6146,-1.081 0.0539,-0.134 0.088,-0.242 0.1089,-0.319 8e-4,-0.003 0.0016,-0.006 0.0023,-0.009 2.1312,-1.252 4.1685,-2.658 6.0954,-4.207 1.747,-1.387 2.6702,-2.72 3.1564,-3.717 0.2429,-0.498 0.3761,-0.911 0.4487,-1.202 0.0333,-0.134 0.0538,-0.242 0.0664,-0.321 0.0802,-0.038 0.1931,-0.093 0.3299,-0.166 0.2789,-0.149 0.6587,-0.373 1.0641,-0.676 0.807,-0.602 1.737,-1.529 2.152,-2.808 0.3915,-1.207 0.7685,-2.286 1.0476,-3.063 0.1396,-0.388 0.2546,-0.701 0.3347,-0.917 0.0157,-0.043 0.0301,-0.081 0.043,-0.116 0.0201,-0.053 0.0367,-0.098 0.0496,-0.132 l 0.0174,-0.046 c 0.0102,-0.012 0.0229,-0.028 0.0379,-0.046 0.0419,-0.05 0.1022,-0.123 0.176,-0.215 0.1474,-0.183 0.3492,-0.441 0.5668,-0.738 0.4311,-0.5881 0.9392,-1.3512 1.199,-2.0028 0.2668,-0.6692 0.3236,-1.6352 0.3204,-2.4037 -0.0016,-0.3902 -0.019,-0.7406 -0.0359,-0.9934 -0.0062,-0.0931 -0.0124,-0.1731 -0.0177,-0.2371 0.0501,-0.0273 0.1098,-0.062 0.1772,-0.1048 0.2036,-0.1297 0.4776,-0.3348 0.7706,-0.6416 0.5879,-0.6154 1.2448,-1.6316 1.5706,-3.2465 l 7e-4,-0.0041 c 0.4071,-2.2069 0.6614,-4.4393 0.7612,-6.6812 l 0.0068,-0.0158 0.0721,-0.1666 c 0.0623,-0.1444 0.152,-0.353 0.2612,-0.6096 0.2185,-0.5132 0.5155,-1.2189 0.8297,-1.9887 0.6259,-1.5337 1.3278,-3.3409 1.6056,-4.381 0.2806,-1.0508 0.493,-3.4306 0.6356,-5.518 0.0718,-1.0501 0.1264,-2.036 0.1631,-2.7592 0.0184,-0.3617 0.0322,-0.6578 0.0415,-0.8635 0.0047,-0.1029 0.0082,-0.1832 0.0105,-0.2378 l 9e-4,-0.0224 c 0.01,-0.0174 0.0223,-0.039 0.0369,-0.0648 0.0443,-0.0783 0.1097,-0.1949 0.1948,-0.3492 0.1703,-0.3088 0.4191,-0.7684 0.7347,-1.3737 0.631,-1.2106 1.5287,-3.0038 2.5968,-5.337 1.088,-2.3765 1.4482,-5.3281 1.4308,-8.183 C 87.232,49.1408 86.8357,46.3565 86.3935,44.3 85.9454,42.2168 85.1709,41.2114 84.461,40.7369 84.1077,40.5009 83.7803,40.4033 83.5363,40.366 83.4968,40.36 83.4596,40.3555 83.4249,40.3523 l 0.0277,-0.3503 c 0.031,-0.393 0.0746,-0.9523 0.1251,-1.6176 0.1011,-1.3306 0.2301,-3.0857 0.3415,-4.783 0.1139,-1.7359 -0.2338,-3.8172 -0.7788,-5.9945 -0.524,-2.0929 -1.2359,-4.2952 -1.9133,-6.3905 L 81.1424,20.9542 C 80.777,19.8237 80.0081,18.5983 78.9658,17.3272 77.9214,16.0536 76.5913,14.7207 75.0879,13.3754 72.081,10.6848 68.3651,7.93038 64.8159,5.48388 61.2263,3.00958 56.161,1.57947 52.0168,0.766552 49.9404,0.359259 48.0868,0.105364 46.7522,-0.046742 46.0847,-0.122807 45.5468,-0.173449 45.1753,-0.2051 44.9896,-0.220926 44.8454,-0.232005 44.7475,-0.239141 44.6986,-0.242709 44.6612,-0.245292 44.6359,-0.246989 l -0.0288,-0.001895 -0.0074,-4.73e-4 -0.0019,-1.22e-4 -6e-4,-3.3e-5 c -1e-4,-8e-6 -2e-4,-1.4e-5 -0.0156,0.249512 L 44.597,-0.249526 44.5893,-0.25 H 44.5816 42.4397 42.4319 L 42.424,-0.249507 42.4397,0 C 42.424,-0.249507 42.4239,-0.249501 42.4238,-0.249492 l -5e-4,3.3e-5 -0.002,1.25e-4 -0.0074,4.82e-4 -0.0287,0.00193 c -0.0253,0.001728 -0.0627,0.004356 -0.1117,0.007982 -0.098,0.007254 -0.2422,0.018502 -0.428,0.034537 -0.3715,0.032068 -0.9096,0.083288 -1.5773,0.1599946 C 38.9332,0.108981 37.0791,0.364414 35.0022,0.772726 30.8568,1.58768 25.7905,3.01776 22.2011,5.48366 18.6515,7.92218 14.9408,10.6761 11.9374,13.3676 10.4358,14.7134 9.10703,16.0471 8.0627,17.321 7.02046,18.5924 6.25043,19.8175 5.88157,20.9464 l -0.01639,0.0502 c -0.70465,2.1566 -1.45127,4.4417 -1.9953,6.6111 -0.54743,2.183 -0.89568,4.2707 -0.78176,6.0078 0.11139,1.6984 0.23976,3.4546 0.34026,4.7861 0.05026,0.6657 0.09356,1.2253 0.12429,1.6186 l 0.02754,0.3502 c -0.03435,0.0031 -0.07111,0.0074 -0.11004,0.0133 -0.24368,0.0367 -0.57055,0.1336 -0.92348,0.3693 -0.70913,0.4736 -1.4836,1.479 -1.93512,3.5655 -0.445827,2.0601 -0.843885,4.8468 -0.860997,7.7059 -0.017089,2.8553 0.3454859,5.8054 1.438357,8.1774 1.07274,2.3283 1.9709,4.119 2.60129,5.3282 0.31519,0.6046 0.56344,1.0639 0.73311,1.3724 0.08483,0.1543 0.15002,0.2708 0.19411,0.349 0.01457,0.0259 0.02683,0.0475 0.03674,0.0649 l 9.6e-4,0.0227 c 0.00234,0.0545 0.00583,0.1348 0.01048,0.2377 0.00928,0.2056 0.02316,0.5017 0.04151,0.8632 0.0367,0.7231 0.09134,1.7087 0.16309,2.7587 0.14263,2.0872 0.35498,4.4669 0.63561,5.5188 0.27782,1.0413 0.97971,2.8485 1.60566,4.382 0.31418,0.7697 0.6112,1.4751 0.82966,1.9881 0.10924,0.2566 0.19887,0.465 0.26121,0.6094 l 0.07209,0.1666 0.00683,0.0157 c 0.09972,2.2419 0.35403,4.4743 0.76111,6.6812 l 8.2e-4,0.004 c 0.32576,1.615 0.98269,2.6312 1.57049,3.2466 0.2931,0.3067 0.567,0.5119 0.7707,0.6415 0.0675,0.043 0.1272,0.0777 0.1775,0.105 -0.0053,0.0642 -0.0113,0.1444 -0.0174,0.2377 -0.0166,0.2529 -0.0335,0.6034 -0.0348,0.9937 -0.0026,0.7688 0.0542,1.7344 0.3184,2.402 0.2575,0.651 0.7659,1.4144 1.1976,2.0031 0.2179,0.297 0.4201,0.555 0.5679,0.738 0.074,0.092 0.1344,0.165 0.1765,0.216 0.015,0.018 0.0277,0.033 0.0379,0.045 l 0.0172,0.046 c 0.0213,0.057 0.0525,0.14 0.0925,0.248 0.0799,0.216 0.1947,0.529 0.3341,0.917 0.2789,0.778 0.6559,1.856 1.0486,3.063 0.4162,1.279 1.3461,2.207 2.1528,2.809 0.4052,0.302 0.7848,0.526 1.0635,0.675 0.137,0.073 0.25,0.129 0.3302,0.166 0.0128,0.079 0.0336,0.187 0.0672,0.32 0.0735,0.29 0.2078,0.701 0.4521,1.198 0.4889,0.994 1.4155,2.324 3.1657,3.713 z m 0,0 c -2e-4,0 -4e-4,0 -6e-4,0 l 0.1566,-0.195 -0.1554,0.196 c -2e-4,0 -4e-4,0 -6e-4,-0.001 z"
       fill="#191820"
       stroke="#ffffff"
       stroke-width="0.5"
       id="path8" />
    <path
       d="m 43.9074,122.412 7.2435,-1.027 1.7739,-1.758 2.6551,-4.403 -0.9514,-2.22 2.3223,2.605 c 1.6177,-0.96 3.1658,-2.032 4.6329,-3.21 2.5965,-2.056 2.8403,-4.234 2.8403,-4.234 0,0 -2.3927,1.238 -4.2721,1.815 -1.8794,0.577 -4.572,0 -4.572,0 0,0 5.1087,-1.688 6.6577,-3.09 1.549,-1.402 1.249,-4.321 1.249,-4.321 0,0 2.3434,-1.029 3.4636,-2.9394 1.1201,-1.9106 0.1406,-3.9994 0.1406,-3.9994 L 61.34,88.2619 65.3098,73.802 l -4.3611,-5.9148 -3.1753,6.5196 2.0856,5.8609 -3.03,2.8437 v 5.2021 L 51.2868,77.9538 c 0,0 5.5375,0.9213 5.5422,1.0339 0.0046,0.1125 -3.5011,-8.0669 -3.5011,-8.0669 l -3.1308,4.4027 c 0,0 -1.2209,-0.3868 -2.9925,-0.8628 -1.0727,-0.2888 -2.172,-0.4679 -3.2808,-0.5345 l -1.2702,0.0188 c -0.9572,0.0742 -1.9043,0.247 -2.8261,0.5157 -1.7716,0.4689 -2.9949,0.8628 -2.9949,0.8628 l -3.1284,-4.4027 c 0,0 -3.5152,8.1771 -3.5011,8.0669 0.0141,-0.1102 5.5422,-1.0339 5.5422,-1.0339 l -5.5422,10.3597 v -5.1951 l -3.03,-2.8437 2.0856,-5.8608 -3.1824,-6.5267 -4.3611,5.9148 3.9698,14.4599 -5.7531,7.3683 c 0,0 -0.9795,2.0864 0.143,3.9994 1.1225,1.9134 3.4612,2.9394 3.4612,2.9394 0,0 -0.3,2.919 1.2514,4.321 1.5513,1.402 6.6576,3.09 6.6576,3.09 0,0 -2.6902,0.577 -4.572,0 -1.8818,-0.577 -4.2744,-1.815 -4.2744,-1.815 0,0 0.2461,2.178 2.8426,4.234 1.4671,1.178 3.0152,2.25 4.6329,3.21 l 2.3294,-2.605 -0.9515,2.22 2.6551,4.403 1.774,1.758 7.4567,1.027 z"
       fill="#ffffff"
       id="path9" />
    <path
       d="m 49.4012,43.0583 c 0,0 0.8085,-2.1099 3.9158,-2.8789 3.1074,-0.7689 7.117,0.776 7.117,0.776 0,0 1.8864,0.8416 0.8623,2.1099 -1.024,1.2683 -3.5573,0.7033 -3.5573,0.7033 0,0 1.9216,1.1065 3.862,0.769 1.9403,-0.3376 -1.2983,1.7324 -3.8854,1.4722 -2.5871,-0.2602 -5.5633,-1.4887 -5.5633,-1.4887 0,0 0.0516,1.1933 2.4067,2.0068 2.3552,0.8135 4.265,1.9739 6.7373,0.6048 2.4723,-1.3691 5.3594,-2.5459 7.4239,-2.288 2.0646,0.2578 4.6377,2.921 4.6377,2.921 h -6.196 c 0,0 -1.2865,4.3535 0.1336,5.7038 1.4201,1.3504 4.4032,4.1987 4.4032,4.1987 0,0 -1.1412,-0.5696 -3.658,1.8614 -2.5169,2.4311 -1.2256,8.2357 -1.2256,8.2357 l 1.9051,4.4027 c 0,0 -4.2767,-4.0932 -8.0285,-6.461 -3.7518,-2.3678 -5.8093,-2.832 -7.1122,-5.5069 -1.303,-2.6749 1.0311,-5.1341 1.0311,-5.1341 l -6.4092,-10.3737 2.3434,1.913 z"
       fill="#ffffff"
       id="path10" />
    <path
       d="m 72.1074,79.4272 -3.2222,7.8981 1.6943,4.2972 -3.6417,6.0484 8.9636,-7.251 z"
       fill="#ffffff"
       id="path11" />
    <path
       d="m 43.7563,34.9416 c 0,0 5.4273,0.6189 7.8457,-0.0164 2.4184,-0.6354 2.784,-1.845 2.784,-1.845 0,0 4.265,1.0151 7.6184,1.845 3.3534,0.8299 4.1127,0 4.1127,0 0,0 2.177,-2.0256 0.9725,-3.8401 -1.2045,-1.8145 -5.7202,-3.2375 -5.7202,-3.2375 0,0 4.3704,0.211 6.9552,1.784 2.5848,1.5731 5.5328,-0.4829 7.377,-2.2974 1.8443,-1.8145 0.5765,-3.3899 0.5765,-3.3899 0,0 -2.9035,0.7267 -5.7156,-0.7549 -2.812,-1.4816 -3.9627,-2.8742 -5.4507,-4.9231 -1.4881,-2.049 -0.0235,-3.9854 0,-7.033 0.0234,-3.04768 -3.5292,-4.23392 -3.5292,-4.23392 0,0 0.3023,1.45115 -1.8068,5.33102 -2.109,3.8799 -6.4514,3.9737 -6.4514,3.9737 0,0 5.0431,-2.614 3.562,-8.32244 -0.6514,-2.51548 -5.9405,-5.20678 -5.9405,-5.20678 0,0 1.624,2.40764 0.8998,5.19037 C 51.1216,10.748 47.33,11.9506 47.33,11.9506 c 0,0 3.0628,-3.21641 2.1372,-6.86889 C 48.5415,1.42923 45.1928,1.61209 45.1928,1.61209 H 41.837 c 0,0 -3.3417,-0.19224 -4.279,3.46962 -0.9374,3.66186 2.1372,6.88529 2.1372,6.88529 0,0 -3.7893,-1.2096 -4.5158,-3.98534 -0.7264,-2.7757 0.8999,-5.19037 0.8999,-5.19037 0,0 -5.2891,2.6913 -5.9406,5.20678 -1.481,5.70843 3.562,8.32243 3.562,8.32243 0,0 -4.3447,-0.1055 -6.4537,-3.9831 -2.1091,-3.8775 -1.8068,-5.33099 -1.8068,-5.33099 0,0 -3.5503,1.17217 -3.5292,4.23389 0.0211,3.0617 1.4904,4.9817 0,7.033 -1.4904,2.0513 -2.6316,3.4345 -5.4437,4.9161 -2.8121,1.4816 -5.7156,0.7549 -5.7156,0.7549 0,0 -1.2701,1.573 0.5765,3.3899 1.8466,1.8168 4.7899,3.8705 7.3771,2.2974 2.5871,-1.573 6.9552,-1.784 6.9552,-1.784 0,0 -4.5181,1.4207 -5.7226,3.2375 -1.2045,1.8169 0.9819,3.8401 0.9819,3.8401 0,0 0.7569,0.8299 4.1127,0 3.3557,-0.8299 7.6043,-1.845 7.6043,-1.845 0,0 0.3632,1.2096 2.7816,1.845 2.4184,0.6353 8.0075,0 8.0075,0 z"
       fill="#ffffff"
       id="path12" />
    <path
       d="m 37.6029,43.0583 c 0,0 -0.8084,-2.1099 -3.9158,-2.8789 -3.1074,-0.7689 -7.117,0.776 -7.117,0.776 0,0 -1.8864,0.8416 -0.8623,2.1099 1.024,1.2683 3.5573,0.7033 3.5573,0.7033 0,0 -1.924,1.1065 -3.862,0.769 -1.938,-0.3376 1.2959,1.7324 3.8854,1.4722 2.5895,-0.2602 5.5633,-1.4887 5.5633,-1.4887 0,0 -0.0516,1.1933 -2.4067,2.0068 -2.3551,0.8135 -4.265,1.9739 -6.7373,0.6048 -2.4723,-1.3691 -5.3617,-2.5459 -7.424,-2.288 -2.0622,0.2578 -4.6376,2.914 -4.6376,2.914 h 6.196 c 0,0 1.2865,4.3534 -0.1336,5.7038 -1.4201,1.3503 -4.4032,4.1987 -4.4032,4.1987 0,0 1.1412,-0.5697 3.6557,1.8614 2.5145,2.4311 1.2279,8.2357 1.2279,8.2357 l -1.9052,4.4027 c 0,0 4.2674,-4.0862 8.0286,-6.454 3.7612,-2.3678 5.814,-2.839 7.1122,-5.5139 1.2983,-2.6749 -1.0311,-5.1341 -1.0311,-5.1341 l 6.4093,-10.3737 -2.3435,1.9129 z"
       fill="#ffffff"
       id="path13" />
    <path
       d="m 44.5005,65.8124 3.7167,-3.6244 4.4806,3.5259 3.8362,-1.1112 3.3815,2.0114 -0.8905,4.4895 -6.3647,-3.5119 -9.0596,-0.3727 h -0.1758 l -9.0573,0.3727 -6.3647,3.5119 -0.8905,-4.4895 3.3816,-2.0114 3.8361,1.1112 4.4806,-3.5259 3.8784,3.6244 z"
       fill="#ffffff"
       id="path14" />
    <path
       d="m 45.1032,69.1403 3.5666,0.1665 2.2099,1.9645 -3.6417,0.64 -3.0417,0.2462 h -1.8138 l -2.5872,-0.2462 -3.6416,-0.64 2.2098,-1.9645 4.4712,-0.2087 z"
       fill="#ffffff"
       id="path15" />
    <path
       d="m 14.9168,79.4272 3.2245,7.8981 -1.6942,4.2972 3.6393,6.0484 -8.9612,-7.251 z"
       fill="#ffffff"
       id="path16" />
    <path
       d="m 43.4347,36.884 c -0.532,-0.1664 -0.8718,-0.0984 -2.0646,1.0222 -1.2607,1.1721 0.3773,2.6162 0.3773,2.6162 l -1.5443,9.6119 -1.9942,-1.341 -2.0552,3.8307 2.7511,-0.5181 -0.089,2.8624 0.9374,1.5543 3.6299,1.9552 0.785,-0.0188 3.1121,-1.9364 0.9374,-1.5543 -0.0891,-2.8624 2.7512,0.5251 -2.0575,-3.8213 -1.9943,1.341 -1.5419,-9.6118 c 0,0 1.7224,-1.7747 0.3632,-2.8437 -1.3592,-1.0691 -2.0505,-0.7948 -2.0505,-0.7948 z"
       fill="#ffffff"
       id="path17" />
  </g>
  <defs
     id="defs18" />
</svg>
