<svg xmlns="http://www.w3.org/2000/svg" fill="none" viewBox="-0.625 -0.625 20 20" id="Repo--Streamline-Ultimate" height="20" width="20">
  <desc>
    Repo Streamline Icon: https://streamlinehq.com
  </desc>
  <path stroke="#000000" stroke-linecap="round" stroke-linejoin="round" d="M16.40625 16.2109375h-7.31203125M2.34375 14.453125c0 0.466171875 0.18519531250000001 0.91328125 0.5148515625 1.24296875 0.32965625 0.329609375 0.7767578125 0.51484375 1.2429609375 0.51484375h1.0620156250000001" stroke-width="1.25"></path>
  <path stroke="#000000" stroke-linecap="round" stroke-linejoin="round" d="M4.6875 0.5859375c-1.2765624999999998 0 -2.34375 1.0671875000000002 -2.34375 2.34375V14.453125c0 -0.957421875 0.800390625 -1.7578125 1.7578125 -1.7578125h11.71875c0.31078125 0 0.5859375 -0.27515625 0.5859375 -0.5859375v-10.9375c0 -0.31079687500000003 -0.27515625 -0.5859375 -0.5859375 -0.5859375H4.6875Z" stroke-width="1.25"></path>
  <path stroke="#000000" stroke-linecap="round" stroke-linejoin="round" d="M15.234375 16.2109375v-3.515625" stroke-width="1.25"></path>
  <path stroke="#000000" stroke-linecap="round" stroke-linejoin="round" d="M5.37109375 9.375c-0.1618046875 0 -0.29296875 -0.131171875 -0.29296875 -0.29296875s0.1311640625 -0.29296875 0.29296875 -0.29296875" stroke-width="1.25"></path>
  <path stroke="#000000" stroke-linecap="round" stroke-linejoin="round" d="M5.37109375 9.375c0.1618046875 0 0.29296875 -0.131171875 0.29296875 -0.29296875s-0.1311640625 -0.29296875 -0.29296875 -0.29296875" stroke-width="1.25"></path>
  <path stroke="#000000" stroke-linecap="round" stroke-linejoin="round" d="M5.37109375 6.640625c-0.1618046875 0 -0.29296875 -0.1311640625 -0.29296875 -0.29296875s0.1311640625 -0.29296875 0.29296875 -0.29296875" stroke-width="1.25"></path>
  <path stroke="#000000" stroke-linecap="round" stroke-linejoin="round" d="M5.37109375 6.640625c0.1618046875 0 0.29296875 -0.1311640625 0.29296875 -0.29296875s-0.1311640625 -0.29296875 -0.29296875 -0.29296875" stroke-width="1.25"></path>
  <path stroke="#000000" stroke-linecap="round" stroke-linejoin="round" d="M5.37109375 3.90625c-0.1618046875 0 -0.29296875 -0.1311640625 -0.29296875 -0.29296875s0.1311640625 -0.29296875 0.29296875 -0.29296875" stroke-width="1.25"></path>
  <path stroke="#000000" stroke-linecap="round" stroke-linejoin="round" d="M5.37109375 3.90625c0.1618046875 0 0.29296875 -0.1311640625 0.29296875 -0.29296875s-0.1311640625 -0.29296875 -0.29296875 -0.29296875" stroke-width="1.25"></path>
  <path stroke="#000000" stroke-linecap="round" stroke-linejoin="round" d="M5.17578125 14.6484375v3.515625l1.953125 -1.416015625 1.953125 1.416015625v-3.515625" stroke-width="1.25"></path>
</svg>