<svg xmlns="http://www.w3.org/2000/svg" fill="none" viewBox="-0.625 -0.625 20 20" id="Discord-Logo--Streamline-Ultimate" height="20" width="20">
  <desc>
    Discord Logo Streamline Icon: https://streamlinehq.com
  </desc>
  <path stroke="#000000" stroke-linecap="round" stroke-linejoin="round" d="M18.1640625 17.7734375c0 0.075546875 -0.021953125 0.149453125 -0.063125 0.2128125 -0.041171875 0.06328125 -0.09984375 0.11335937500000001 -0.16890625 0.143984375 -0.068984375 0.030703125 -0.14546875 0.040703125 -0.220078125 0.028828125000000003 -0.074609375 -0.011875 -0.144140625 -0.045156249999999995 -0.20023437499999996 -0.09578125l-3.8281250000000004 -3.4078125c-0.046015625 -0.04140625 -0.10124999999999999 -0.071328125 -0.16109375 -0.087265625 -0.05984375 -0.015859375 -0.12257812500000001 -0.01734375 -0.183046875 -0.00421875 -0.060546875 0.013125 -0.11703124999999999 0.04046875 -0.164921875 0.07976562499999999 -0.047890625 0.039218750000000004 -0.08578124999999999 0.089296875 -0.11046875 0.14609375l-0.46249999999999997 1.06484375c-0.03046875 0.069765625 -0.080625 0.12906250000000002 -0.144296875 0.170703125 -0.063671875 0.041640625 -0.138203125 0.06375 -0.214296875 0.063671875H1.3671875c-0.20720312500000002 0 -0.4059140625 -0.08234375 -0.5524296875 -0.228828125C0.66824765625 15.713750000000001 0.5859375 15.515 0.5859375 15.3078125V1.3671875c0 -0.20720312500000002 0.08231015625 -0.4059140625 0.22882031249999998 -0.5524296875C0.9612734374999999 0.66824765625 1.159984375 0.5859375 1.3671875 0.5859375h16.015625c0.2071875 0 0.40593749999999995 0.08231015625 0.552421875 0.22882031249999998 0.146484375 0.146515625 0.228828125 0.3452265625 0.228828125 0.5524296875v16.40625Z" stroke-width="1.25"></path>
  <path stroke="#000000" stroke-linecap="round" stroke-linejoin="round" d="M15.390625 8.59375c-0.3890625 -1.5036328125 -0.9282031249999999 -2.9643515624999996 -1.609375 -4.36015625 -0.099609375 -0.2144375 -0.2584375 -0.3959453125 -0.45773437499999997 -0.523140625 -0.19929687499999998 -0.127203125 -0.430859375 -0.194796875 -0.667265625 -0.194828125H6.0937265625c-0.23643750000000002 0.00003125 -0.46795312499999997 0.067625 -0.667265625 0.194828125 -0.1993125 0.12719531250000002 -0.35812499999999997 0.30870312499999997 -0.45773437499999997 0.523140625 -0.6811640625000001 1.3958046874999999 -1.2203359375 2.8565234375000004 -1.609375 4.36015625 -0.2296875 1.146875 0.61875 2.29375 1.3578125 3.046875 0.10935156250000001 0.11109374999999999 0.242921875 0.1953125 0.39025000000000004 0.24617187499999998 0.147328125 0.05078125 0.3044296875 0.06687499999999999 0.459 0.046875 0.1545703125 -0.019921875 0.302421875 -0.075390625 0.431984375 -0.16203125 0.1295703125 -0.086640625 0.2373359375 -0.20203125 0.314859375 -0.33726562499999996l0.703125 -1.23203125c0.0751875 -0.132109375 0.1840703125 -0.241953125 0.3155546875 -0.31828124999999996 0.13148437500000001 -0.076328125 0.28085937499999997 -0.116328125 0.4328828125 -0.11609375000000001H10.98515625c0.15203125 -0.000234375 0.30140625 0.039765625 0.43289062500000003 0.11609375000000001 0.13148437500000001 0.076328125 0.24031249999999998 0.18617187500000001 0.315546875 0.31828124999999996l0.703125 1.23203125c0.0775 0.135234375 0.185234375 0.250625 0.31484375000000003 0.33726562499999996 0.12953125000000001 0.086640625 0.27742187500000004 0.142109375 0.43195312499999994 0.16203125 0.154609375 0.02 0.31171875000000004 0.00390625 0.4590625 -0.046875 0.147265625 -0.050859375000000005 0.28085937499999997 -0.135078125 0.390234375 -0.24617187499999998 0.7398437499999999 -0.7531249999999999 1.5921874999999999 -1.9 1.3578125 -3.046875Z" stroke-width="1.25"></path>
  <path stroke="#000000" d="M11.5234375 6.73828125c-0.161796875 0 -0.29296875 -0.1311640625 -0.29296875 -0.29296875s0.131171875 -0.29296875 0.29296875 -0.29296875" stroke-width="1.25"></path>
  <path stroke="#000000" d="M11.5234375 6.73828125c0.161796875 0 0.29296875 -0.1311640625 0.29296875 -0.29296875s-0.131171875 -0.29296875 -0.29296875 -0.29296875" stroke-width="1.25"></path>
  <g>
    <path stroke="#000000" d="M7.2265625 6.73828125c-0.1618046875 0 -0.29296875 -0.1311640625 -0.29296875 -0.29296875s0.1311640625 -0.29296875 0.29296875 -0.29296875" stroke-width="1.25"></path>
    <path stroke="#000000" d="M7.2265625 6.73828125c0.1618046875 0 0.29296875 -0.1311640625 0.29296875 -0.29296875s-0.1311640625 -0.29296875 -0.29296875 -0.29296875" stroke-width="1.25"></path>
  </g>
</svg>