<svg viewBox="-0.625 -0.625 20 20" xmlns="http://www.w3.org/2000/svg" id="Shield-Check-1--Streamline-Ultimate" height="20" width="20">
  <desc>
    Shield Check 1 Streamline Icon: https://streamlinehq.com
  </desc>
  <path d="M1.7578125 3.06484375v5.9484375A9.30234375 9.30234375 0 0 0 7.7203124999999995 17.6953125l0.81328125 0.3125a2.34375 2.34375 0 0 0 1.6828124999999998 0l0.81328125 -0.3125a9.30234375 9.30234375 0 0 0 5.9624999999999995 -8.68203125V3.06484375a1.1617187500000001 1.1617187500000001 0 0 0 -0.678125 -1.0640625000000001A16.953125 16.953125 0 0 0 9.375 0.5859375a16.953125 16.953125 0 0 0 -6.9390624999999995 1.41484375 1.1617187500000001 1.1617187500000001 0 0 0 -0.678125 1.0640625000000001Z" fill="none" stroke="#000000" stroke-linecap="round" stroke-linejoin="round" stroke-width="1.25"></path>
  <path d="M13.4375 8.7890625a4.1015625 4.1015625 0 1 1 -4.0625 -4.6875" fill="none" stroke="#000000" stroke-linecap="round" stroke-linejoin="round" stroke-width="1.25"></path>
  <path d="m13.4765625 5.1265625 -3.7390624999999997 3.7390624999999997a0.51328125 0.51328125 0 0 1 -0.7250000000000001 0l-1.171875 -1.17578125" fill="none" stroke="#000000" stroke-linecap="round" stroke-linejoin="round" stroke-width="1.25"></path>
</svg>