<svg xmlns="http://www.w3.org/2000/svg" fill="none" viewBox="-0.625 -0.625 20 20" id="Money-Wallet--Streamline-Ultimate" height="20" width="20">
  <desc>
    Money Wallet Streamline Icon: https://streamlinehq.com
  </desc>
  <path stroke="#000000" stroke-linecap="round" stroke-linejoin="round" d="M16.9921875 14.453125V15.625c0 0.6215625 -0.246953125 1.217734375 -0.686484375 1.6572656250000002 -0.43953125 0.43953125 -1.0357031250000002 0.686484375 -1.6572656250000002 0.686484375h-11.71875c-0.6216015625 0 -1.2177421875 -0.246953125 -1.6572812499999998 -0.686484375C0.8328671875000001 16.842734375000003 0.5859375 16.2465625 0.5859375 15.625V7.421875c0 -0.6216015625 0.24692968750000002 -1.2177421875 0.68646875 -1.6572812499999998C1.7119453125 5.3250546875 2.3080859375 5.078125 2.9296875 5.078125h11.71875c0.6215625 0 1.217734375 0.24692968750000002 1.6572656250000002 0.68646875 0.43953125 0.4395390625 0.686484375 1.0356796874999998 0.686484375 1.6572812499999998V8.59375" stroke-width="1.25"></path>
  <path stroke="#000000" stroke-linecap="round" stroke-linejoin="round" d="m14.6484375 5.0781171875 -1.81953125 -3.6390625c-0.068828125 -0.13771093750000002 -0.1640625 -0.260515625 -0.280390625 -0.3613984375 -0.11624999999999999 -0.1008828125 -0.25125 -0.17785937500000001 -0.39734375000000005 -0.2265390625 -0.146015625 -0.0486875 -0.300234375 -0.06811718750000001 -0.45382812499999997 -0.05717968750000001 -0.15351562500000002 0.0109296875 -0.3034375 0.052015625 -0.44109375 0.1208984375L2.9296875 5.0781171875" stroke-width="1.25"></path>
  <path stroke="#000000" stroke-linecap="round" stroke-linejoin="round" d="M16.9921875 14.453125c0.31078125 0 0.60890625 -0.1234375 0.828671875 -0.343203125S18.1640625 13.59203125 18.1640625 13.28125v-3.515625c0 -0.31078125 -0.1234375 -0.60890625 -0.343203125 -0.828671875S17.30296875 8.59375 16.9921875 8.59375H14.0625c-0.7770312500000001 0 -1.5221875 0.308671875 -2.071640625 0.8580468750000001 -0.5493750000000001 0.549453125 -0.8580468750000001 1.294609375 -0.8580468750000001 2.071640625 0 0.7770312500000001 0.308671875 1.5221875 0.8580468750000001 2.071640625C12.5403125 14.144453125 13.285468750000001 14.453125 14.0625 14.453125h2.9296875Z" stroke-width="1.25"></path>
  <path stroke="#000000" d="M14.0625 11.81640625c-0.161796875 0 -0.29296875 -0.131171875 -0.29296875 -0.29296875s0.131171875 -0.29296875 0.29296875 -0.29296875" stroke-width="1.25"></path>
  <path stroke="#000000" d="M14.0625 11.81640625c0.161796875 0 0.29296875 -0.131171875 0.29296875 -0.29296875s-0.131171875 -0.29296875 -0.29296875 -0.29296875" stroke-width="1.25"></path>
</svg>