<?xml version="1.0" encoding="utf-8"?><svg xmlns="http://www.w3.org/2000/svg" viewBox="0 0 1200 441"><defs><style>.cls-1,.cls-13,.cls-6{fill:#f0ec73;}.cls-1,.cls-3,.cls-4{opacity:0.2;}.cls-2,.cls-3,.cls-9{fill:#8dd4bd;}.cls-13,.cls-2,.cls-5{opacity:0.4;}.cls-11,.cls-4,.cls-5{fill:#63cfe3;}.cls-7{fill:#0071ce;}.cls-8{fill:#d1ccbd;}.cls-10{fill:#ff595a;}.cls-12{fill:#fff;}.cls-14{fill:#d7d8d9;}.cls-15,.cls-16{fill:none;}.cls-15{stroke:#63cfe3;stroke-width:8px;}.cls-15,.cls-16,.cls-18{stroke-linecap:round;stroke-linejoin:round;}.cls-16,.cls-18{stroke:#24272a;stroke-width:4px;}.cls-17,.cls-18{fill:#24272a;}</style></defs><title>illo-careers</title><g id="highlights"><path class="cls-1" d="M585,103.57V136h77.71ZM585,201v49.32l83.75-83.75ZM1010,9H849L736.56,121.41ZM710.65,9v95.06L750.32,9ZM638.5,9H590a5,5,0,0,0-5,5v1l95.06,95.07ZM742.6,152l300.17,125.26A5,5,0,0,0,1044,274V152ZM826,423h69a5,5,0,0,0,5-5V352.66L725.24,177.9ZM694.65,279V184L655,279Z"/><path class="cls-2" d="M408.64,153H386a146.58,146.58,0,0,1,37,52.69V171.56A162.84,162.84,0,0,0,408.64,153Z"/><path class="cls-2" d="M153,316.31v34.13A163.34,163.34,0,0,0,198.56,396h34.13A146.7,146.7,0,0,1,153,316.31Z"/><path class="cls-2" d="M190,153H167.36A162.84,162.84,0,0,0,153,171.56v34.13A146.58,146.58,0,0,1,190,153Z"/><path class="cls-2" d="M343.31,396h34.13A163.34,163.34,0,0,0,423,350.44V316.31A146.7,146.7,0,0,1,343.31,396Z"/><path class="cls-3" d="M422.83,261a134.73,134.73,0,0,0-54.19-108H337.31a118.73,118.73,0,1,1-98.62,0H207.36a134.73,134.73,0,0,0-54.19,108c0,74.35,60.48,134.83,134.83,134.83S422.83,335.35,422.83,261Z"/><rect class="cls-4" x="441" y="297" width="27" height="126"/><rect class="cls-5" x="495" y="297" width="27" height="126"/><rect class="cls-4" x="549" y="297" width="27" height="126"/><rect class="cls-5" x="603" y="297" width="27" height="126"/><rect class="cls-4" x="657" y="297" width="27" height="126"/><rect class="cls-6" x="9" y="9.83" width="126" height="126" rx="5"/><rect class="cls-7" x="9" y="153" width="126" height="126" rx="5"/><rect class="cls-8" x="9" y="297" width="126" height="126" rx="5"/><rect class="cls-9" x="441" y="153" width="126" height="126" rx="5"/><rect class="cls-9" x="153" y="9" width="126" height="126" rx="5"/><rect class="cls-9" x="1062" y="153" width="126" height="126" rx="5"/><rect class="cls-8" x="1062" y="9" width="126" height="126" rx="5"/><rect class="cls-10" x="1062" y="297" width="126" height="126" rx="5"/><rect class="cls-7" x="918" y="297" width="126" height="126" rx="5"/><rect class="cls-10" x="297" y="9.83" width="126" height="126" rx="5"/><rect class="cls-11" x="441" y="9.83" width="126" height="126" rx="5"/><rect class="cls-11" x="153" y="414" width="45" height="18"/><polygon class="cls-11" points="711 432 612 351 567 396 540 378 504 414 486 405 468 414 387 414 387 432 711 432"/><circle class="cls-6" cx="288" cy="261" r="99"/><circle class="cls-12" cx="225" cy="279" r="9"/><circle class="cls-12" cx="288" cy="225" r="9"/><circle class="cls-12" cx="351" cy="270" r="9"/><rect class="cls-10" x="256" y="355" width="72" height="81"/><rect class="cls-9" x="202" y="391" width="54" height="45"/><rect class="cls-11" x="328" y="382" width="54" height="54"/><path class="cls-13" d="M585,152v31.72L662.16,152Zm0-114.34V86.24L668.36,121ZM767.65,9l-42,100.71L826.34,9ZM585,274a5,5,0,0,0,5,5h47.65l42-100.71L585,273Zm315,56V284a5,5,0,0,1,5-5h100.4L736.94,167ZM1043.72,12.42,743.15,136H1044V14A4.86,4.86,0,0,0,1043.72,12.42ZM710.65,282.2A4.89,4.89,0,0,1,711,284V418a5,5,0,0,0,5,5h92.71L710.65,184.49Zm-16-178.7V9H655.8Z"/><circle class="cls-12" cx="702" cy="144" r="81"/><circle class="cls-7" cx="988.5" cy="25.5" r="18"/><path class="cls-12" d="M1046,40a135,135,0,0,0-76.37,38.18L861.45,186.37a170.44,170.44,0,0,0-66.65,41.19l-35.18,35.18L797.81,250,836,288.19l-12.73,38.19,35.18-35.18a170.44,170.44,0,0,0,41.19-66.65l108.19-108.18A135,135,0,0,0,1046,40Z"/><path class="cls-14" d="M1039.89,41,814.35,266.56,836,288.19l-12.73,38.19,35.18-35.18a170.44,170.44,0,0,0,41.19-66.65l108.19-108.18A135,135,0,0,0,1046,40C1044,40.29,1041.91,40.64,1039.89,41Z"/><path class="cls-6" d="M821.91,339.69l7.82,11.72a4.5,4.5,0,0,1,7.64,3.22,4.48,4.48,0,0,1,4.11-4.46L838.05,333A44.78,44.78,0,0,0,821.91,339.69Zm38,10.44a4.47,4.47,0,0,1,3.7,1.95l8.26-12.39A44.73,44.73,0,0,0,855.7,333l-3.48,17.36a4.59,4.59,0,0,1,1.87,1.13,19.43,19.43,0,0,1,1.94.82A4.49,4.49,0,0,1,859.87,350.13Zm9,22.5v.1L891,368.3a44.73,44.73,0,0,0-6.69-16.13L867,363.69A22.38,22.38,0,0,1,868.87,372.63Zm-40.5-4.5V364.8l-18.94-12.63a44.73,44.73,0,0,0-6.69,16.13l21.14,4.23C824.21,369,828.37,368.13,828.37,368.13Zm-6.46,46.44a44.76,44.76,0,0,0,15.46,6.54V393.3c-.33-.14-.66-.29-1-.45Zm33.46-21.32v26.38l.33,1.63a44.73,44.73,0,0,0,16.13-6.69l-14.77-22.15C856.51,392.72,856,393,855.37,393.25Zm-30.06-11.81L802.74,386a44.78,44.78,0,0,0,6.69,16.14L830,388.38A21.24,21.24,0,0,1,825.31,381.44Zm37.63,6.4,21.37,14.25A44.78,44.78,0,0,0,891,386l-23.83-4.76A22.74,22.74,0,0,1,862.94,387.84Z"/><path class="cls-6" d="M765,180h0a18,18,0,0,1-18-18V108a45,45,0,0,0-45-45h0a45,45,0,0,0-45,45v54a18,18,0,0,1-18,18h0"/><path class="cls-12" d="M738,126a36.29,36.29,0,0,0-1.32-9.67,44.92,44.92,0,0,1-47.76-23.87l-1.06.42a45.11,45.11,0,0,1-19,19A36,36,0,0,0,684,157.17V189h36V157.17A36,36,0,0,0,738,126Z"/><line class="cls-15" x1="765" y1="270" x2="648" y2="387"/><line class="cls-15" x1="779" y1="315" x2="671" y2="423"/><line class="cls-15" x1="809.32" y1="318" x2="701.32" y2="426"/><line class="cls-15" x1="752" y1="313" x2="644" y2="421"/><polygon class="cls-11" points="702 333 702.93 428 639 396 702 333"/></g><g id="people"><path class="cls-16" d="M828,369V355.5a4.49,4.49,0,0,1,4.5-4.5h0a4.49,4.49,0,0,1,4.5,4.5V369"/><path class="cls-16" d="M837,369V355.5a4.49,4.49,0,0,1,4.5-4.5h0a4.49,4.49,0,0,1,4.5,4.5v18"/><rect class="cls-16" x="846" y="351" width="9" height="27" rx="4.5"/><rect class="cls-16" x="855" y="351" width="9" height="27" rx="4.5"/><path class="cls-16" d="M833,378c5,0,13,4,13,9"/><path class="cls-16" d="M845.32,370.85A4.09,4.09,0,0,0,841.9,369H827.75a5.75,5.75,0,0,0-5.18,8.25c2.06,4.3,4.78,9.27,7.52,12.16a21.24,21.24,0,0,0,6.91,4.84v37"/><path class="cls-16" d="M827.75,369H841.9a4.11,4.11,0,0,1,4.1,4.1v0a4.85,4.85,0,0,1-4.85,4.85H833"/><polyline class="cls-16" points="666 333 684 333 684 351"/><path class="cls-16" d="M189,81V63a27,27,0,0,1,27-27h0a27,27,0,0,1,27,27V81"/><path class="cls-16" d="M189,90h0a9,9,0,0,0,9-9V72"/><path class="cls-16" d="M243,90h0a9,9,0,0,1-9-9V72"/><rect class="cls-16" x="189" y="63" width="9" height="18"/><rect class="cls-17" x="189" y="72" width="9" height="9"/><rect class="cls-16" x="234" y="63" width="9" height="18"/><rect class="cls-17" x="234" y="72" width="9" height="9"/><line class="cls-16" x1="225" y1="72" x2="225" y2="72"/><line class="cls-16" x1="207" y1="72" x2="207" y2="72"/><path class="cls-16" d="M243,108l-5-10a14.55,14.55,0,0,0-13-8h0a9,9,0,0,1-18,0h0a14.55,14.55,0,0,0-13,8l-5,10"/><path class="cls-16" d="M216,90a18,18,0,0,1-18-18V63a18,18,0,0,1,18-18h0a18,18,0,0,1,18,18v9"/><path class="cls-17" d="M207,72a18,18,0,0,0,16.4-25.4A18,18,0,0,0,198,63v6.57A17.85,17.85,0,0,0,207,72Z"/><path class="cls-17" d="M220.5,81a4.5,4.5,0,0,1-9,0"/><path class="cls-16" d="M1125,225a18,18,0,0,0,18-18v-9a18,18,0,0,0-18-18h0a18,18,0,0,0-18,18v9"/><line class="cls-16" x1="1116" y1="207" x2="1116" y2="207"/><line class="cls-16" x1="1134" y1="207" x2="1134" y2="207"/><path class="cls-17" d="M1129.5,216a4.5,4.5,0,0,1-9,0"/><path class="cls-16" d="M1143,252V234a9,9,0,0,0-9-9h0"/><path class="cls-16" d="M1134,225h0a9,9,0,0,1-18,0h0a9,9,0,0,0-9,9v18"/><path class="cls-17" d="M1143,193.5c0,2.49-8.06,4.5-18,4.5s-18-2-18-4.5,8.06-13.5,18-13.5S1143,191,1143,193.5Z"/><path class="cls-16" d="M504,234a18,18,0,0,0,18-18v-9a18,18,0,0,0-18-18h0a18,18,0,0,0-18,18v9"/><line class="cls-16" x1="495" y1="216" x2="495" y2="216"/><line class="cls-16" x1="513" y1="216" x2="513" y2="216"/><path class="cls-17" d="M508.5,225a4.5,4.5,0,0,1-9,0"/><path class="cls-16" d="M522,252v-9a9,9,0,0,0-9-9h0"/><path class="cls-16" d="M513,234h0a9,9,0,0,1-18,0h0a9,9,0,0,0-9,9v9"/><ellipse class="cls-17" cx="504" cy="193.5" rx="18" ry="13.5"/><path class="cls-17" d="M486,207a18,18,0,0,1,36,0v9a22.5,22.5,0,1,0-36,0Z"/><line class="cls-16" x1="684" y1="125.99" x2="684" y2="125.99"/><line class="cls-16" x1="720" y1="125.99" x2="720" y2="125.99"/><path class="cls-17" d="M711,144a9,9,0,0,1-18,0"/><path class="cls-16" d="M738,108v18a36,36,0,0,1-36,36h0"/><line class="cls-16" x1="666" y1="126" x2="666" y2="108"/><line class="cls-16" x1="684" y1="180" x2="684" y2="162"/><path class="cls-16" d="M666,113.25a45.18,45.18,0,0,0,22.5-21.62A45.07,45.07,0,0,0,738,116.1"/><path class="cls-16" d="M765,180h0a18,18,0,0,1-18-18V108a45,45,0,0,0-45-45h0a45,45,0,0,0-45,45v54a18,18,0,0,1-18,18h0"/><path class="cls-18" d="M744.69,187.71A26.6,26.6,0,0,0,720,171a18,18,0,0,1-36,0,26.6,26.6,0,0,0-24.69,16.71l-7.83,19.58a80.91,80.91,0,0,0,101,0Z"/><path class="cls-16" d="M759.28,86.72a81,81,0,1,1-114.56,0"/><path class="cls-12" d="M710.68,199h0a0,0,0,0,1,0,0,2,2,0,0,0-.3-.36l-.06-.05a3,3,0,0,0-.3-.23l-.13-.07a1.75,1.75,0,0,0-.32-.12l-.13-.05a2.63,2.63,0,0,0-.49-.06h0a1.84,1.84,0,0,0-.47.06l-.13,0a1.54,1.54,0,0,0-.3.11l0,0h0a2,2,0,0,0-.61.48l-3.48,5.65,4.09-2.28h0v9.78l-10.93-13.12a2.05,2.05,0,0,0-1.58-.74h-.43a2.06,2.06,0,0,0-2.06,2.06v13.88a2,2,0,0,0,.26,1h0l.07.11a.35.35,0,0,1,0,.08,2.75,2.75,0,0,0,.22.26l0,.05a1.3,1.3,0,0,0,.23.18l.07.06a1.82,1.82,0,0,0,.31.16l0,0,.3.09.1,0a2.21,2.21,0,0,0,.37,0h0a1.76,1.76,0,0,0,.46-.06l.14,0,.3-.11,0,0h0a2.16,2.16,0,0,0,.62-.47h0l4-5.53-4.58,2h0v-9.64l10.93,13.12a2.05,2.05,0,0,0,1.58.74h.43a2.06,2.06,0,0,0,2.06-2.06V200.06A2,2,0,0,0,710.68,199Z"/><line class="cls-16" x1="477" y1="432" x2="450" y2="432"/><line class="cls-16" x1="441" y1="432" x2="423" y2="432"/><line class="cls-16" x1="414" y1="432" x2="405" y2="432"/><line class="cls-16" x1="396" y1="432" x2="396" y2="432"/><circle class="cls-16" cx="985.5" cy="22.5" r="18"/><path class="cls-16" d="M1010.33,10.34c5.82.22,9.62,1.45,10.15,3.66,1.18,4.83-13.54,12.55-32.86,17.24s-35.93,4.58-37.1-.25c-.54-2.21,2.25-5,7.29-7.88"/><polyline class="cls-16" points="684 333 648 369 612 342 567 387 540 369 504 405 486 396 468 405 396 405"/><polyline class="cls-16" points="747 396 711 432 486 432"/><line class="cls-16" x1="720" y1="333" x2="675" y2="378"/><line class="cls-16" x1="747" y1="360" x2="702" y2="405"/><line class="cls-16" x1="756" y1="324" x2="702" y2="378"/><line class="cls-16" x1="900" y1="34.69" x2="900" y2="34.69"/><line class="cls-16" x1="926.27" y1="12.42" x2="926.27" y2="12.42"/><line class="cls-16" x1="875.27" y1="16.42" x2="875.27" y2="16.42"/><line class="cls-16" x1="998.85" y1="231.47" x2="998.85" y2="231.47"/><line class="cls-16" x1="1026" y1="117" x2="1026" y2="117"/><line class="cls-16" x1="1053" y1="9" x2="1053" y2="135"/><line class="cls-16" x1="1011.43" y1="167.86" x2="1011.43" y2="167.86"/><line class="cls-16" x1="1030.5" y1="207" x2="1030.5" y2="207"/><line class="cls-16" x1="841.21" y1="34.69" x2="841.21" y2="34.69"/><line class="cls-16" x1="832.95" y1="69.75" x2="832.95" y2="69.75"/><line class="cls-16" x1="878.54" y1="61.46" x2="859.45" y2="80.55"/><line class="cls-16" x1="853.08" y1="86.91" x2="840.35" y2="99.64"/><line class="cls-16" x1="833.99" y1="106" x2="827.63" y2="112.37"/><line class="cls-16" x1="821.26" y1="118.73" x2="821.26" y2="118.73"/><line class="cls-16" x1="878.54" y1="125.1" x2="859.45" y2="144.19"/><line class="cls-16" x1="853.08" y1="150.55" x2="840.35" y2="163.28"/><line class="cls-16" x1="833.99" y1="169.64" x2="827.63" y2="176.01"/><line class="cls-16" x1="821.26" y1="182.37" x2="821.26" y2="182.37"/><line class="cls-16" x1="751.26" y1="265.1" x2="732.17" y2="284.19"/><line class="cls-16" x1="725.8" y1="290.56" x2="713.07" y2="303.29"/><line class="cls-16" x1="706.71" y1="309.65" x2="700.35" y2="316.01"/><line class="cls-16" x1="693.98" y1="322.38" x2="693.98" y2="322.38"/><line class="cls-16" x1="814.9" y1="328.74" x2="795.81" y2="347.83"/><line class="cls-16" x1="789.44" y1="354.2" x2="776.71" y2="366.93"/><line class="cls-16" x1="770.35" y1="373.29" x2="763.99" y2="379.65"/><line class="cls-16" x1="757.62" y1="386.02" x2="757.62" y2="386.02"/><line class="cls-16" x1="789.44" y1="265.1" x2="770.35" y2="284.19"/><line class="cls-16" x1="763.99" y1="290.56" x2="751.26" y2="303.29"/><line class="cls-16" x1="744.89" y1="309.65" x2="738.53" y2="316.01"/><line class="cls-16" x1="732.17" y1="322.38" x2="732.17" y2="322.38"/><line class="cls-16" x1="814.9" y1="290.56" x2="795.81" y2="309.65"/><line class="cls-16" x1="789.44" y1="316.01" x2="776.71" y2="328.74"/><line class="cls-16" x1="770.35" y1="335.11" x2="763.99" y2="341.47"/><line class="cls-16" x1="757.62" y1="347.83" x2="757.62" y2="347.83"/><line class="cls-16" x1="821.26" y1="258.74" x2="802.17" y2="277.83"/><line class="cls-16" x1="795.81" y1="284.19" x2="783.08" y2="296.92"/><line class="cls-16" x1="776.71" y1="303.29" x2="770.35" y2="309.65"/><line class="cls-16" x1="763.99" y1="316.01" x2="763.99" y2="316.01"/><path class="cls-16" d="M795.81,246,967.63,74.18A135,135,0,0,1,1044,36h0a135,135,0,0,1-38.18,76.37L834,284.19Z"/><path class="cls-16" d="M859.45,182.37h0a170.44,170.44,0,0,0-66.65,41.19l-35.18,35.18L795.81,246Z"/><path class="cls-16" d="M897.63,220.55h0a170.44,170.44,0,0,1-41.19,66.65l-35.18,35.18L834,284.19Z"/><path class="cls-17" d="M832.09,235.53l12.38,12.38a.24.24,0,0,1,0,.35l-1.3,1.3a2.49,2.49,0,0,1-2.29.67L826,247.05l4.71,4.31,5.15,5.15a.26.26,0,0,1,0,.35l-1.7,1.7a.25.25,0,0,1-.36,0l-12.37-12.37a.25.25,0,0,1,0-.36l1.28-1.28a2.49,2.49,0,0,1,2.29-.67l14.85,3.17-4.67-4.31L830,237.59a.25.25,0,0,1,0-.36l1.7-1.7A.24.24,0,0,1,832.09,235.53Z"/><path class="cls-17" d="M862,230.69l-1.8,1.8a.26.26,0,0,1-.41-.08l-7.55-17.08a.38.38,0,0,1,.08-.42l2.26-2.26a.37.37,0,0,1,.41-.07l17.09,7.55a.25.25,0,0,1,.08.4l-1.81,1.8a.22.22,0,0,1-.27,0l-14-6.29a.25.25,0,0,0-.33.33l6.29,14A.27.27,0,0,1,862,230.69Z"/><path class="cls-17" d="M884.58,207.58l-8.15-1a5.15,5.15,0,0,0-.63-7c-2.4-2.4-5.61-2.47-8.37.29l-5,5a.39.39,0,0,0,0,.53h0a2.4,2.4,0,0,0,3.4,0l3.34-3.34c1.67-1.67,3.32-1.62,4.56-.38s1.33,2.89-.36,4.58L868.61,211a.37.37,0,0,0,0,.53l6.12,6.13a.26.26,0,0,0,.35,0l1.7-1.7a.25.25,0,0,0,0-.36L872.21,211l2-2,7.16.95a2.5,2.5,0,0,0,2.09-.71l1.29-1.3A.25.25,0,0,0,884.58,207.58Z"/><path class="cls-17" d="M843.93,223.34l-7.9,7.9a.33.33,0,0,0,0,.47h0a2.44,2.44,0,0,0,3.46,0l6.4-6.4a.25.25,0,0,0,0-.36l-1.61-1.61A.26.26,0,0,0,843.93,223.34Zm10.76,10.77-5.9,5.9a.24.24,0,0,1-.35,0l-3.19-3.19a.25.25,0,0,1,0-.36l5.44-5.44a.25.25,0,0,0,0-.36l-1.61-1.61a.24.24,0,0,0-.35,0l-7.41,7.42a.37.37,0,0,0,0,.53l6.94,6.94a.37.37,0,0,0,.53,0l7.87-7.87a.26.26,0,0,0,0-.35l-1.61-1.61A.25.25,0,0,0,854.69,234.11Z"/><path class="cls-16" d="M929.45,163.28H916.72V142.82a5,5,0,0,0-5-5H891.26l-6.36-19.09h5.79a5,5,0,0,0,4.75-6.58l-4.18-12.51"/><circle class="cls-16" cx="878.54" cy="106" r="4.5"/><circle class="cls-16" cx="935.81" cy="48.73" r="4.5"/><path class="cls-16" d="M954.9,137.82H942.18V117.37a5,5,0,0,0-5-5H916.72l-.64-3.22a96.35,96.35,0,0,0-26.35-49.23l-4.83-4.83"/><circle class="cls-16" cx="910.36" cy="74.18" r="4.5"/><line class="cls-16" x1="891.26" y1="137.82" x2="910.36" y2="131.46"/><line class="cls-16" x1="916.72" y1="112.37" x2="935.81" y2="106"/><polyline class="cls-16" points="954.9 74.18 942.18 74.18 935.81 55.09 942.18 86.91 967.63 86.91 967.63 112.37 980.36 112.37"/><path class="cls-16" d="M970.32,149l-4.68,9.36c-4.8,9.61,3.44,14.86,11,22.46"/><circle class="cls-16" cx="976.68" cy="174.46" r="4.5"/><path class="cls-16" d="M976.68,180.82h0c0,24.45-7.71,43.9-25,61.18L950,244"/><path class="cls-16" d="M976.68,180.82h0a25,25,0,0,1,4.68,28.83"/><line class="cls-16" x1="930" y1="248" x2="970.32" y2="212.64"/><path class="cls-16" d="M72,369a18,18,0,0,0,18-18v-9a18,18,0,0,0-18-18h0a18,18,0,0,0-18,18v9"/><line class="cls-16" x1="63" y1="351" x2="63" y2="351"/><line class="cls-16" x1="81" y1="351" x2="81" y2="351"/><path class="cls-17" d="M76.5,360a4.5,4.5,0,0,1-9,0"/><path class="cls-17" d="M72,324a18,18,0,0,0-16.44,10.69C60,343.33,73.5,349.84,90,350.86V342A18,18,0,0,0,72,324Z"/><path class="cls-16" d="M90,396V380a11.24,11.24,0,0,0-9.1-11L72,386.79,63.1,369A11.24,11.24,0,0,0,54,380v16"/><line class="cls-16" x1="72" y1="387" x2="72" y2="396"/><path class="cls-16" d="M72,81A18,18,0,0,0,90,63V54A18,18,0,0,0,72,36h0A18,18,0,0,0,54,54v9"/><line class="cls-16" x1="63" y1="63" x2="63" y2="63"/><line class="cls-16" x1="81" y1="63" x2="81" y2="63"/><path class="cls-17" d="M76.5,72a4.5,4.5,0,0,1-9,0"/><path class="cls-16" d="M90,108V92.24a11.24,11.24,0,0,0-9-11,9,9,0,0,1-18,0,11.24,11.24,0,0,0-9,11V108"/><polyline class="cls-16" points="72 108 90 81.22 90 81 90 108"/><polyline class="cls-16" points="72 108 54 81.22 54 81 54 108"/><line class="cls-16" x1="75.18" y1="41.82" x2="68.82" y2="48.18"/><line class="cls-16" x1="68.82" y1="41.82" x2="75.18" y2="48.18"/><path class="cls-16" d="M54,63c0-5,8.06-9,18-9s18,4,18,9"/><path class="cls-16" d="M1125,81a18,18,0,0,0,18-18V54a18,18,0,0,0-18-18h0a18,18,0,0,0-18,18v9"/><line class="cls-16" x1="1116" y1="63" x2="1116" y2="63"/><line class="cls-16" x1="1134" y1="63" x2="1134" y2="63"/><path class="cls-17" d="M1129.5,72a4.5,4.5,0,0,1-9,0"/><path class="cls-16" d="M1143,108V92.24a11.24,11.24,0,0,0-9-11,9,9,0,0,1-18,0,11.24,11.24,0,0,0-9,11V108"/><rect class="cls-18" x="1107" y="36" width="36" height="18"/><line class="cls-16" x1="1098" y1="54" x2="1152" y2="54"/><path class="cls-17" d="M1116,108a9,9,0,0,1,18,0"/><path class="cls-16" d="M72,225a18,18,0,0,0,18-18v-9a18,18,0,0,0-18-18h0a18,18,0,0,0-18,18v9"/><path class="cls-17" d="M76.62,216a4.5,4.5,0,0,1-9,0"/><line class="cls-16" x1="63.12" y1="225" x2="63.12" y2="252"/><line class="cls-16" x1="81.12" y1="225" x2="81.12" y2="252"/><path class="cls-18" d="M81.12,225.23V252h9V236.24A11.22,11.22,0,0,0,81.12,225.23Zm-27,11V252h9V225.23A11.23,11.23,0,0,0,54.12,236.24Z"/><path class="cls-16" d="M81.12,225a9,9,0,1,1-18,0"/><line class="cls-16" x1="63.12" y1="216" x2="81.12" y2="216"/><circle class="cls-16" cx="65.25" cy="204.5" r="4.5"/><circle class="cls-16" cx="78.75" cy="204.5" r="4.5"/><line class="cls-16" x1="69.75" y1="204.5" x2="73.75" y2="204.5"/><path class="cls-18" d="M81.12,182.5V187A11,11,0,0,0,90,197.79,18,18,0,0,0,81.12,182.5ZM54,197.83A11,11,0,0,0,63.12,187v-4.68A18,18,0,0,0,54,197.83Z"/><path class="cls-16" d="M360,81a18,18,0,0,0,18-18V54a18,18,0,0,0-18-18h0a18,18,0,0,0-18,18v9"/><polygon class="cls-18" points="342.01 36 378.01 36 378.01 47 360.01 53 342.01 47 342.01 36"/><path class="cls-16" d="M378,107.78V92a11.23,11.23,0,0,0-9-11,9,9,0,0,1-18,0,11.23,11.23,0,0,0-9,11v15.77"/><line class="cls-16" x1="351" y1="63" x2="351" y2="63"/><line class="cls-16" x1="369" y1="63" x2="369" y2="63"/><path class="cls-17" d="M364.5,72a4.5,4.5,0,0,1-9,0"/><path class="cls-16" d="M360,99h9v4.5a4.5,4.5,0,0,1-4.5,4.5h0a4.49,4.49,0,0,1-4.5-4.5"/><path class="cls-10" d="M360,59a2,2,0,0,1-1.42-.59,2,2,0,0,1,0-2.82l9-9a2,2,0,1,1,2.83,2.82l-9,9A2,2,0,0,1,360,59Z"/><path class="cls-16" d="M504,76.5a18,18,0,0,0,18-18h0a18,18,0,0,0-18-18h0a18,18,0,0,0-18,18h0"/><line class="cls-16" x1="495" y1="58.5" x2="495" y2="58.5"/><line class="cls-16" x1="513" y1="58.5" x2="513" y2="58.5"/><path class="cls-17" d="M508.5,67.5a4.5,4.5,0,0,1-9,0"/><path class="cls-16" d="M522,58.5c0-5-8.06-9-18-9s-18,4-18,9"/><path class="cls-16" d="M504,40.5h0a12.73,12.73,0,0,0-18,0l-5.27,5.27a12.73,12.73,0,0,0-3.73,9V85.5"/><path class="cls-16" d="M504,40.5h0a12.73,12.73,0,0,1,18,0l5.27,5.27a12.73,12.73,0,0,1,3.73,9V85.5"/><line class="cls-16" x1="486" y1="58.5" x2="486" y2="76.5"/><line class="cls-16" x1="522" y1="58.5" x2="522" y2="76.5"/><path class="cls-16" d="M499.5,40.5a4.5,4.5,0,0,1,9,0"/><path class="cls-16" d="M522,103.5v-9a18,18,0,0,0-10.6-16.4L504,85.5l-7.4-7.4A18,18,0,0,0,486,94.5v9"/><line class="cls-16" x1="504" y1="85.5" x2="504" y2="94.5"/><polygon class="cls-16" points="324 378 324 351 252 351 252 387 198 387 198 432 378 432 378 378 324 378"/><line class="cls-16" x1="252" y1="387" x2="252" y2="423"/><line class="cls-16" x1="324" y1="351" x2="324" y2="423"/><polyline class="cls-16" points="279 342 279 279 297 279 297 342"/><line class="cls-16" x1="288" y1="288" x2="288" y2="342"/><path class="cls-16" d="M288,243h0a9,9,0,0,1,9,9v27a0,0,0,0,1,0,0H279a0,0,0,0,1,0,0V252A9,9,0,0,1,288,243Z"/><circle class="cls-16" cx="288" cy="256.5" r="4.5"/><polyline class="cls-16" points="279 243 288 252 297 243"/><circle class="cls-16" cx="288" cy="228" r="9"/><polyline class="cls-16" points="342 369 342 324 360 324 360 369"/><line class="cls-16" x1="351" y1="333" x2="351" y2="369"/><path class="cls-16" d="M351,288h0a9,9,0,0,1,9,9v27a0,0,0,0,1,0,0H342a0,0,0,0,1,0,0V297A9,9,0,0,1,351,288Z"/><circle class="cls-16" cx="351" cy="301.5" r="4.5"/><polyline class="cls-16" points="342 288 351 297 360 288"/><circle class="cls-16" cx="351" cy="273" r="9"/><polyline class="cls-16" points="342 273 342 264 360 264 360 273"/><line class="cls-16" x1="299.14" y1="211.13" x2="312.17" y2="223.55"/><line class="cls-16" x1="302.59" y1="207.51" x2="315.62" y2="219.93"/><line class="cls-16" x1="317" y1="218.49" x2="310.79" y2="225"/><line class="cls-16" x1="303.97" y1="206.06" x2="297.76" y2="212.58"/><line class="cls-16" x1="294.36" y1="203.11" x2="300.87" y2="209.32"/><path class="cls-16" d="M270,288V261a18,18,0,0,1,18-18h9l9-9V216"/><path class="cls-16" d="M333,333V306a18,18,0,0,1,18-18h0a18,18,0,0,1,18,18v27"/><polyline class="cls-16" points="216 378 216 330 234 330 234 378"/><line class="cls-16" x1="225" y1="339" x2="225" y2="378"/><path class="cls-16" d="M225,294h0a9,9,0,0,1,9,9v27a0,0,0,0,1,0,0H216a0,0,0,0,1,0,0V303A9,9,0,0,1,225,294Z"/><circle class="cls-16" cx="225" cy="307.5" r="4.5"/><polyline class="cls-16" points="216 294 225 303 234 294"/><circle class="cls-16" cx="225" cy="279" r="9"/><path class="cls-16" d="M207,339V312a18,18,0,0,1,18-18h0a18,18,0,0,1,18,18v27"/><path class="cls-16" d="M225,270a9,9,0,0,0,9,9A9,9,0,0,0,225,270Zm-9,9a9,9,0,0,0,9-9A9,9,0,0,0,216,279Z"/><polyline class="cls-16" points="346.5 387 355.5 387 355.5 396 346.5 396 346.5 405 355.5 405"/><polyline class="cls-16" points="220.5 396 229.5 396 229.5 414 220.5 414"/><line class="cls-16" x1="220.5" y1="405" x2="229.5" y2="405"/><polyline class="cls-16" points="283.5 360 287.5 360 287.5 378"/><line class="cls-16" x1="283.5" y1="378" x2="292.5" y2="378"/><line class="cls-16" x1="189" y1="432" x2="387" y2="432"/><polyline class="cls-16" points="274.5 396 265.5 405 274.5 414"/><polyline class="cls-16" points="301.5 396 310.5 405 301.5 414"/><line class="cls-16" x1="292.5" y1="396" x2="283.5" y2="414"/><path class="cls-16" d="M198,261a90,90,0,0,1,180,0"/><path class="cls-16" d="M237.09,210.09a72,72,0,0,1,101.82,0"/><path class="cls-16" d="M364.37,337.37a108,108,0,1,0-152.74,0"/><path class="cls-16" d="M981,366.75a18,18,0,0,0,18-18h0a18,18,0,0,0-18-18h0a18,18,0,0,0-18,18h0"/><line class="cls-16" x1="972" y1="348.75" x2="972" y2="348.75"/><line class="cls-16" x1="990" y1="348.75" x2="990" y2="348.75"/><path class="cls-17" d="M985.5,357.75a4.5,4.5,0,0,1-9,0"/><path class="cls-16" d="M999,348.75c0-5-8.06-9-18-9s-18,4-18,9"/><path class="cls-16" d="M981,330.75h0a12.73,12.73,0,0,0-18,0L957.73,336a12.73,12.73,0,0,0-3.73,9v30.73"/><path class="cls-16" d="M981,330.75h0a12.73,12.73,0,0,1,18,0l5.27,5.27a12.73,12.73,0,0,1,3.73,9v30.73"/><line class="cls-16" x1="963" y1="348.75" x2="963" y2="366.75"/><line class="cls-16" x1="999" y1="348.75" x2="999" y2="366.75"/><path class="cls-16" d="M976.5,330.75a4.5,4.5,0,0,1,9,0"/><path class="cls-16" d="M999,393.75v-9a18,18,0,0,0-10.6-16.4l-7.4,7.4-7.4-7.4a18,18,0,0,0-10.6,16.4v9"/><line class="cls-16" x1="981" y1="375.75" x2="981" y2="384.75"/><path class="cls-16" d="M1128,369.64a18,18,0,0,0,18-18v-9a18,18,0,0,0-18-18h0a18,18,0,0,0-18,18v9"/><line class="cls-16" x1="1119" y1="351.64" x2="1119" y2="351.64"/><line class="cls-16" x1="1137" y1="351.64" x2="1137" y2="351.64"/><path class="cls-17" d="M1132.5,360.64a4.5,4.5,0,0,1-9,0"/><path class="cls-16" d="M1110,342.64h36a17.85,17.85,0,0,0-2.43-9h-31.14A17.85,17.85,0,0,0,1110,342.64Z"/><path class="cls-16" d="M1110,387.64v7.72c5.24-3.09,9-11.42,9-21.22,0-.68,0-1.36-.06-2A18,18,0,0,0,1110,387.64Zm27.06-15.53c0,.67-.06,1.35-.06,2,0,9.8,3.76,18.13,9,21.22v-7.72A18,18,0,0,0,1137.06,372.11Zm-18-.09c.58,8.81,4.34,15.62,8.91,15.62s8.33-6.81,8.91-15.62a17.81,17.81,0,0,0-8.91-2.38"/><path class="cls-16" d="M1188,432H855V394.12a22.75,22.75,0,0,0,6.91-4.71A22.5,22.5,0,0,0,864,360"/><line class="cls-16" x1="9" y1="432" x2="180" y2="432"/><line class="cls-16" x1="9" y1="144" x2="135" y2="144"/><line class="cls-16" x1="9" y1="288" x2="135" y2="288"/><line class="cls-16" x1="441" y1="144" x2="567" y2="144"/><line class="cls-16" x1="297" y1="144" x2="423" y2="144"/><line class="cls-16" x1="153" y1="144" x2="279" y2="144"/><line class="cls-16" x1="441" y1="288" x2="567" y2="288"/><line class="cls-16" x1="1062" y1="288" x2="1188" y2="288"/><line class="cls-16" x1="918" y1="288" x2="1044" y2="288"/><line class="cls-16" x1="869" y1="288" x2="900" y2="288"/><line class="cls-16" x1="1062" y1="144" x2="1188" y2="144"/><line class="cls-16" x1="990" y1="144" x2="1044" y2="144"/><line class="cls-16" x1="585" y1="288" x2="693" y2="288"/><line class="cls-16" x1="144" y1="153" x2="144" y2="279"/><line class="cls-16" x1="144" y1="297" x2="144" y2="423"/><line class="cls-16" x1="1053" y1="297" x2="1053" y2="423"/><line class="cls-16" x1="909" y1="297" x2="909" y2="423"/><line class="cls-16" x1="432" y1="297" x2="432" y2="423"/><line class="cls-16" x1="432" y1="153" x2="432" y2="279"/><line class="cls-16" x1="432" y1="9" x2="432" y2="135"/><line class="cls-16" x1="576" y1="9" x2="576" y2="135"/><line class="cls-16" x1="288" y1="9" x2="288" y2="135"/><line class="cls-16" x1="144" y1="9" x2="144" y2="135"/><line class="cls-16" x1="576" y1="153" x2="576" y2="279"/><line class="cls-16" x1="612" y1="144" x2="585" y2="144"/><line class="cls-16" x1="837" y1="144" x2="792" y2="144"/><line class="cls-16" x1="702" y1="54" x2="702" y2="9"/><line class="cls-16" x1="702" y1="297" x2="702" y2="234"/><line class="cls-16" x1="638.36" y1="80.36" x2="594" y2="36"/><line class="cls-16" x1="784.73" y1="226.73" x2="765.64" y2="207.64"/><line class="cls-16" x1="765.64" y1="80.36" x2="837" y2="9"/><line class="cls-16" x1="585" y1="261" x2="638.36" y2="207.64"/><line class="cls-16" x1="198" y1="405" x2="162" y2="405"/><line class="cls-16" x1="1053" y1="153" x2="1053" y2="279"/><line class="cls-16" x1="837" y1="431.23" x2="729" y2="431.23"/></g></svg>