<?xml version="1.0" encoding="UTF-8" standalone="no"?>
<svg
   id="Layer_1"
   data-name="Layer 1"
   viewBox="0 0 1551.996 568.04169"
   version="1.1"
   sodipodi:docname="docs_logo_white.svg"
   inkscape:version="1.2.2 (b0a84865, 2022-12-01)"
   width="1551.996"
   height="568.04169"
   xmlns:inkscape="http://www.inkscape.org/namespaces/inkscape"
   xmlns:sodipodi="http://sodipodi.sourceforge.net/DTD/sodipodi-0.dtd"
   xmlns="http://www.w3.org/2000/svg"
   xmlns:svg="http://www.w3.org/2000/svg">
  <defs
     id="defs197" />
  <sodipodi:namedview
     id="namedview195"
     pagecolor="#ffffff"
     bordercolor="#000000"
     borderopacity="0.25"
     inkscape:showpageshadow="2"
     inkscape:pageopacity="0.0"
     inkscape:pagecheckerboard="0"
     inkscape:deskcolor="#d1d1d1"
     showgrid="false"
     inkscape:zoom="0.41179648"
     inkscape:cx="406.75433"
     inkscape:cy="426.1814"
     inkscape:window-width="1920"
     inkscape:window-height="1027"
     inkscape:window-x="1512"
     inkscape:window-y="25"
     inkscape:window-maximized="0"
     inkscape:current-layer="Layer_1" />
  <text
     xml:space="preserve"
     style="font-style:normal;font-variant:normal;font-weight:500;font-stretch:normal;font-size:413.081px;line-height:1.25;font-family:'FK Grotesk';-inkscape-font-specification:'FK Grotesk, Medium';font-variant-ligatures:normal;font-variant-caps:normal;font-variant-numeric:normal;font-variant-east-asian:normal;fill:#ffffff;fill-opacity:1;fill-rule:evenodd;stroke-width:35.1282;stroke-linecap:square;stroke-linejoin:bevel;stroke-dasharray:210.769, 70.2564"
     x="541.12689"
     y="430.24469"
     id="text574"><tspan
       sodipodi:role="line"
       id="tspan572"
       x="541.12689"
       y="430.24469"
       style="font-style:normal;font-variant:normal;font-weight:500;font-stretch:normal;font-size:413.081px;font-family:'FK Grotesk';-inkscape-font-specification:'FK Grotesk, Medium';font-variant-ligatures:normal;font-variant-caps:normal;font-variant-numeric:normal;font-variant-east-asian:normal;fill:#ffffff;fill-opacity:1;stroke-width:35.1282">Docs</tspan></text>
  <path
     d="m 421.61,108.51401 c -13,0 -25.07,6.74 -31.88,17.82 l -73.37,108.93 c -2.39,3.59 -1.42,8.43 2.17,10.82 2.91,1.94 6.76,1.7 9.41,-0.58 l 72.22,-62.64 c 1.2,-1.08 3.05,-0.97 4.13,0.23 0.49,0.55 0.75,1.26 0.75,1.99 v 196.12 c 0,1.62 -1.31,2.92 -2.93,2.92 -0.87,0 -1.69,-0.38 -2.24,-1.05 l -218.31,-261.32 c -7.11,-8.39 -17.55,-13.23 -28.54,-13.24 h -7.63 c -20.65,0 -37.39,16.74 -37.39,37.39 v 276.22 c 0,20.65 16.74,37.39 37.39,37.39 13,0 25.07,-6.74 31.88,-17.82 l 73.37,-108.93 c 2.39,-3.59 1.42,-8.43 -2.17,-10.82 -2.91,-1.94 -6.76,-1.7 -9.41,0.58 l -72.22,62.64 c -1.2,1.08 -3.05,0.97 -4.13,-0.23 -0.49,-0.55 -0.75,-1.26 -0.74,-1.99 v -196.17 c 0,-1.62 1.31,-2.92 2.93,-2.92 0.86,0 1.69,0.38 2.24,1.05 l 218.28,261.37 c 7.11,8.39 17.55,13.23 28.54,13.24 h 7.63 c 20.65,0.01 37.4,-16.72 37.42,-37.37 v -276.24 c 0,-20.65 -16.74,-37.39 -37.39,-37.39 z"
     id="path192"
     style="fill:#ffffff" />
</svg>
