<svg xmlns="http://www.w3.org/2000/svg" viewBox="0 0 112 112"><defs><style>.cls-1{fill:#8dd4bd;}.cls-2{fill:#24272a;}.cls-3{fill:#fff;}</style></defs><title>app-studio</title><g id="Layer_2" data-name="Layer 2"><g id="Layer_1-2" data-name="Layer 1"><path class="cls-1" d="M86,53.48a17.94,17.94,0,0,0-2.74-4.75l-8,.88L72,42.21a17.92,17.92,0,0,0-5.47,0l-3.27,7.4-8-.88a17.94,17.94,0,0,0-2.74,4.75L57.22,60l-4.77,6.52a17.94,17.94,0,0,0,2.74,4.75l8-.88,3.27,7.4a17.92,17.92,0,0,0,5.47,0l3.26-7.4,8,.88A17.94,17.94,0,0,0,86,66.52L81.22,60ZM69.22,66a6,6,0,1,1,6-6A6,6,0,0,1,69.22,66Z"/><rect class="cls-2" x="2" y="2" width="108" height="9"/><polygon class="cls-1" points="83 20 83 38 101 38 83 20"/><rect class="cls-1" x="2" y="11" width="27" height="99"/><rect class="cls-1" x="29" y="92" width="81" height="18"/><path class="cls-2" d="M107,112H5a5,5,0,0,1-5-5V5A5,5,0,0,1,5,0H107a5,5,0,0,1,5,5V107A5,5,0,0,1,107,112ZM5,4A1,1,0,0,0,4,5V107a1,1,0,0,0,1,1H107a1,1,0,0,0,1-1V5a1,1,0,0,0-1-1Z"/><path class="cls-2" d="M110,13H2A2,2,0,0,1,2,9H110a2,2,0,0,1,0,4Z"/><path class="cls-2" d="M20,22H2a2,2,0,0,1,0-4H20a2,2,0,0,1,0,4Z"/><path class="cls-3" d="M6,9a2,2,0,0,1-.77-.15,1.88,1.88,0,0,1-.64-.44A2,2,0,0,1,4,7a1.72,1.72,0,0,1,0-.39,1.82,1.82,0,0,1,.11-.38,1.63,1.63,0,0,1,.19-.34,1.42,1.42,0,0,1,.25-.3,1.42,1.42,0,0,1,.3-.25,1.63,1.63,0,0,1,.34-.19A1.66,1.66,0,0,1,5.61,5a2,2,0,0,1,.78,0,1.82,1.82,0,0,1,.38.11,1.63,1.63,0,0,1,.34.19,1.42,1.42,0,0,1,.3.25,1.42,1.42,0,0,1,.25.3,2.27,2.27,0,0,1,.19.34A1.82,1.82,0,0,1,8,6.61,1.72,1.72,0,0,1,8,7a2,2,0,0,1-.59,1.41,1.88,1.88,0,0,1-.64.44A2,2,0,0,1,6,9Z"/><path class="cls-3" d="M15,9a2,2,0,0,1-2-2,1.72,1.72,0,0,1,0-.39,2.72,2.72,0,0,1,.11-.38,2.27,2.27,0,0,1,.19-.34,1.76,1.76,0,0,1,.24-.3,1.79,1.79,0,0,1,.31-.25,1.63,1.63,0,0,1,.34-.19A1.66,1.66,0,0,1,14.61,5a2,2,0,0,1,1.8.55,1.42,1.42,0,0,1,.25.3,2.27,2.27,0,0,1,.19.34,2.72,2.72,0,0,1,.11.38A1.72,1.72,0,0,1,17,7a2,2,0,0,1-.59,1.41,1.88,1.88,0,0,1-.64.44A2,2,0,0,1,15,9Z"/><path class="cls-3" d="M24,9a2,2,0,0,1-.77-.15,1.88,1.88,0,0,1-.64-.44A2,2,0,0,1,22,7a1.72,1.72,0,0,1,0-.39,1.82,1.82,0,0,1,.11-.38,2.27,2.27,0,0,1,.19-.34,1.42,1.42,0,0,1,.25-.3A2,2,0,0,1,24.39,5a1.66,1.66,0,0,1,.38.11,1.63,1.63,0,0,1,.34.19,1.42,1.42,0,0,1,.3.25,1.42,1.42,0,0,1,.25.3,2.27,2.27,0,0,1,.19.34,2.72,2.72,0,0,1,.11.38A2.58,2.58,0,0,1,26,7a2,2,0,0,1-2,2Z"/><path class="cls-2" d="M83,103H38a2,2,0,0,1,0-4H83a2,2,0,0,1,0,4Z"/><path class="cls-2" d="M20,31H2a2,2,0,0,1,0-4H20a2,2,0,0,1,0,4Z"/><path class="cls-2" d="M20,40H2a2,2,0,0,1,0-4H20a2,2,0,0,1,0,4Z"/><path class="cls-2" d="M20,49H2a2,2,0,0,1,0-4H20a2,2,0,0,1,0,4Z"/><path class="cls-2" d="M20,58H2a2,2,0,0,1,0-4H20a2,2,0,0,1,0,4Z"/><path class="cls-2" d="M20,67H2a2,2,0,0,1,0-4H20a2,2,0,0,1,0,4Z"/><path class="cls-2" d="M20,76H2a2,2,0,0,1,0-4H20a2,2,0,0,1,0,4Z"/><path class="cls-2" d="M20,85H2a2,2,0,0,1,0-4H20a2,2,0,0,1,0,4Z"/><path class="cls-2" d="M20,94H2a2,2,0,0,1,0-4H20a2,2,0,0,1,0,4Z"/><path class="cls-2" d="M29,112a2,2,0,0,1-2-2V11a2,2,0,0,1,4,0v99A2,2,0,0,1,29,112Z"/><path class="cls-2" d="M110,94H29a2,2,0,0,1,0-4h81a2,2,0,0,1,0,4Z"/><path class="cls-2" d="M101,85a2,2,0,0,1-2-2V38.83L82.17,22H40V83a2,2,0,0,1-4,0V20a2,2,0,0,1,2-2H83a2,2,0,0,1,1.41.59l18,18A2,2,0,0,1,103,38V83A2,2,0,0,1,101,85Z"/><path class="cls-2" d="M101,40H83a2,2,0,0,1-2-2V20a2,2,0,0,1,4,0V36h16a2,2,0,0,1,0,4Z"/><path class="cls-2" d="M69.22,80a20.53,20.53,0,0,1-3-.23,2,2,0,0,1-1.52-1.17L62,72.54l-6.58.71a2,2,0,0,1-1.78-.73,20.41,20.41,0,0,1-3.05-5.27,2,2,0,0,1,.25-1.91L54.75,60l-3.92-5.34a2,2,0,0,1-.25-1.91,20.41,20.41,0,0,1,3.05-5.27,2,2,0,0,1,1.78-.73l6.58.71,2.67-6.06a2,2,0,0,1,1.52-1.17,20,20,0,0,1,6.08,0,2,2,0,0,1,1.53,1.17l2.67,6.06L83,46.75a2,2,0,0,1,1.78.73,20.09,20.09,0,0,1,3,5.27,2,2,0,0,1-.25,1.91L83.7,60l3.91,5.34a2,2,0,0,1,.25,1.91,20.09,20.09,0,0,1-3,5.27,2,2,0,0,1-1.78.73l-6.58-.71L73.79,78.6a2,2,0,0,1-1.53,1.17A20.43,20.43,0,0,1,69.22,80Zm-1.36-4.06a15.56,15.56,0,0,0,2.73,0l2.8-6.35a2,2,0,0,1,2-1.19l6.9.75a15.09,15.09,0,0,0,1.37-2.36l-4.1-5.61a2,2,0,0,1,0-2.36l4.1-5.61a15.09,15.09,0,0,0-1.37-2.36l-6.9.75a2,2,0,0,1-2-1.19l-2.8-6.35a15.56,15.56,0,0,0-2.73,0l-2.81,6.35a2,2,0,0,1-2,1.19l-6.9-.75a14.64,14.64,0,0,0-1.37,2.36l4.1,5.61a2,2,0,0,1,0,2.36l-4.1,5.61a14.64,14.64,0,0,0,1.37,2.36L63,68.4a2,2,0,0,1,2,1.19ZM69.22,68a8,8,0,1,1,8-8A8,8,0,0,1,69.22,68Zm0-12a4,4,0,1,0,4,4A4,4,0,0,0,69.22,56Z"/></g></g></svg>