<?xml version="1.0" encoding="UTF-8" standalone="no"?>
<svg
   width="54.020901"
   height="48.573399"
   viewBox="0 0 54.020901 48.573399"
   fill="none"
   version="1.1"
   id="svg146"
   sodipodi:docname="meteor.svg"
   inkscape:version="1.2.2 (b0a84865, 2022-12-01)"
   xmlns:inkscape="http://www.inkscape.org/namespaces/inkscape"
   xmlns:sodipodi="http://sodipodi.sourceforge.net/DTD/sodipodi-0.dtd"
   xmlns="http://www.w3.org/2000/svg"
   xmlns:svg="http://www.w3.org/2000/svg">
  <defs
     id="defs150" />
  <sodipodi:namedview
     id="namedview148"
     pagecolor="#ffffff"
     bordercolor="#000000"
     borderopacity="0.25"
     inkscape:showpageshadow="2"
     inkscape:pageopacity="0.0"
     inkscape:pagecheckerboard="0"
     inkscape:deskcolor="#d1d1d1"
     showgrid="false"
     inkscape:zoom="2.0475168"
     inkscape:cx="140.65819"
     inkscape:cy="24.419824"
     inkscape:window-width="1352"
     inkscape:window-height="430"
     inkscape:window-x="0"
     inkscape:window-y="35"
     inkscape:window-maximized="0"
     inkscape:current-layer="svg146" />
  <path
     d="m 52.934,23.3916 c -1.2581,-1.2519 -3.313,-1.2585 -4.58,-0.02 l -5.046,5.0208 c -1.266,1.2596 -3.3375,1.2596 -4.6035,0 0,0 -0.0078,-0.0089 -0.0123,-0.0134 -0.2704,-0.249 -0.5151,-0.5425 -0.6324,-0.7904 -0.19,-0.3792 -0.3576,-1.0184 -0.3576,-1.422 0,-0.3791 0.1196,-0.9472 0.2615,-1.2319 0.0056,-0.01 0.0145,-0.0233 0.0212,-0.0355 0.1587,-0.3969 0.3967,-0.7672 0.7185,-1.0874 l 7.4695,-7.4322 c 0.2101,-0.2146 0.4257,-0.4336 0.6525,-0.6593 l 6.246,-6.21708 c 1.266,-1.25964 1.266,-3.32089 0,-4.58053 -1.2659,-1.25965 -3.3375,-1.25965 -4.6035,0 L 38.1011,15.2378 c -0.0201,0.02 -0.038,0.0422 -0.057,0.0634 -0.0078,0.0055 -0.0156,0.0089 -0.0234,0.0144 l -0.5285,0.5259 c -1.266,1.2596 -3.3376,1.2596 -4.6035,0 -1.266,-1.2597 -1.266,-3.3209 0,-4.5806 L 37.1458,7.02506 C 37.157,7.01283 37.1659,7.00172 37.1771,6.98949 L 38.4933,5.67981 C 38.814,5.36073 39.0531,4.98939 39.2118,4.59249 39.2196,4.58026 39.2274,4.56692 39.233,4.55691 39.376,4.2723 39.4945,3.70418 39.4945,3.32506 39.4945,2.92259 39.328,2.28221 39.1369,1.90309 39.0196,1.65516 38.7749,1.36165 38.5045,1.11261 38.5,1.10817 38.4967,1.10372 38.4922,1.09927 c -1.266,-1.259644 -3.3375,-1.259644 -4.6035,0 L 25.2739,9.6711 c -0.0134,0.01223 -0.0246,0.02224 -0.038,0.03447 l -0.6894,0.68593 c -1.266,1.2597 -3.3375,1.2597 -4.6035,0 -1.2659,-1.25961 -1.2659,-3.32085 0,-4.5805 l 0.2771,-0.28573 c 1.266,-1.25965 1.266,-3.32089 0,-4.580534 -1.2659,-1.259648 -3.3375,-1.259648 -4.6035,0 L 14.9127,1.64516 10.8746,5.62311 C 9.75387,6.72822 8.63875,7.85334 7.68564,8.83616 L 6.67779,9.83898 C 6.54594,9.97017 6.43197,10.1114 6.32806,10.257 5.73698,10.8874 5.30121,11.371 5.11349,11.6167 4.54253,12.3271 3.6844,13.6068 3.20841,14.4595 c -0.49946,0.8528 -1.16652,2.1791 -1.49949,2.9618 -0.33297,0.7816 -0.80896699,2.2269 -1.07154499,3.1986 -0.237996,0.9717 -0.524039,2.8428 -0.5955496,4.1459 -0.0949751,1.4219 -0.0234644,3.1741 0.1664856,4.3826 0.143021,1.114 0.499457,2.7005 0.762035,3.5532 C 1.23181,33.5544 1.8754,35.0942 2.39944,36.137 c 0.52404,1.0429 1.45256,2.5827 2.09504,3.4354 0.64248,0.8528 1.66709,2.0379 2.30957,2.6294 0.61901,0.5926 1.571,1.3975 2.09504,1.8 0.52404,0.4024 1.54751,1.0662 2.26151,1.492 0.714,0.4269 1.952,1.0184 2.7386,1.3508 0.7855,0.3313 2.4281,0.8527 3.6192,1.1607 1.7386,0.4503 2.8336,0.5681 5.0716,0.5681 2.2381,0 3.3331,-0.1189 5.0471,-0.5681 1.2146,-0.308 2.9051,-0.8527 3.7621,-1.2085 0.8571,-0.3558 2.2381,-1.0662 3.0951,-1.5876 0.857,-0.5214 2.0716,-1.3508 2.7386,-1.8478 0.6425,-0.5214 4.6427,-4.3593 8.8573,-8.5763 l 6.846,-6.8119 c 0,0 0.0067,-0.0111 0.0112,-0.0155 1.2526,-1.2608 1.2492,-3.3109 -0.0123,-4.5661 z"
     fill="#411edf"
     id="path132" />
</svg>
