<svg height="50" viewBox="0 0 189 50" width="189" xmlns="http://www.w3.org/2000/svg" xmlns:xlink="http://www.w3.org/1999/xlink"><linearGradient id="a" gradientTransform="matrix(1 0 0 -1 0 52)" gradientUnits="userSpaceOnUse" x1="1.6589" x2="47.883" y1="4.1175" y2="50.3416"><stop offset=".21" stop-color="#24272a"/><stop offset=".42" stop-color="#24272a" stop-opacity="0"/><stop offset=".59" stop-color="#24272a" stop-opacity="0"/><stop offset=".81" stop-color="#24272a"/></linearGradient><path d="m5.7 49.5c1.6 0 3.2-.7 4.3-2l38.7-44.8c-1.1-1.7-2.9-2.7-4.8-2.7-1.6 0-3.2.7-4.3 1.9l-38.9 44.7c1 1.8 2.9 2.9 5 2.9z" fill="url(#a)"/><g fill="#24272a"><path d="m5.7 49.5c.9 0 1.8-.2 2.6-.6v-37.5l30.1 36.1c1.1 1.3 2.7 2 4.4 2h1.2c3.1 0 5.7-2.5 5.7-5.7v-38.1c-.2-3.2-2.7-5.7-5.8-5.7-.9 0-1.8.2-2.6.6v37.5l-30.1-36.1c-1.1-1.3-2.7-2-4.4-2h-1.1c-3.2 0-5.7 2.5-5.7 5.7v38.2c0 3.1 2.5 5.6 5.7 5.6z"/><path d="m94.2 10.3v28.9c0 .2-.2.4-.4.4h-3c-1.4 0-2.7-.7-3.5-1.9l-13.6-21 .5 10.5v12c0 .2-.2.4-.4.4h-4c-.2 0-.4-.2-.4-.4v-28.9c0-.2.2-.4.4-.4h3c1.4 0 2.7.7 3.5 1.9l13.6 21-.4-10.5v-12c0-.2.2-.4.4-.4h4c.2 0 .3.2.3.4z"/><path d="m134.9 39.6h-4.2c-.2 0-.4-.2-.4-.4v-.1l11.1-28.8c.1-.2.3-.4.6-.4h5.3c.3 0 .5.2.6.4l11.1 28.8c.1.2 0 .5-.3.5h-.1-4.2c-.2 0-.3-.1-.4-.3l-9-23.7c-.1-.2-.3-.3-.5-.2-.1 0-.2.1-.2.2l-9 23.7c-.1.2-.3.3-.4.3z"/><path d="m188.2 39-8.4-10.7c4.7-.9 7.5-4.1 7.5-9 0-5.6-3.6-9.4-10.1-9.4h-11.7c-.3 0-.6.3-.6.6 0 2.2 1.8 4 4 4h7.8c3.9 0 5.8 2 5.8 4.9s-1.8 5-5.8 5h-11.2c-.3 0-.6.3-.6.6v14.3c0 .2.2.4.4.4h4c.2 0 .4-.2.4-.4v-10.7h4.6l7.2 9.5c.8 1 2 1.6 3.3 1.6h3c.2 0 .4-.2.4-.4s0-.3 0-.3z"/><path d="m122.3 9.9h-18.4c-.3 0-.6.2-.6.6 0 2.2 1.8 4 4 4h15c.2 0 .4-.2.4-.4v-3.8c0-.2-.2-.4-.4-.4zm0 25.1h-13.8c-.2 0-.4-.2-.4-.4v-7.5c0-.2.2-.4.4-.4h12.7c.2 0 .4-.2.4-.4v-3.8c0-.2-.2-.4-.4-.4h-17.3c-.3 0-.6.3-.6.6v16.3c0 .3.3.6.6.6h18.4c.2 0 .4-.2.4-.4v-3.8c0-.2-.2-.4-.4-.4z"/></g></svg>