<svg id="Layer_1" data-name="Layer 1" xmlns="http://www.w3.org/2000/svg" xmlns:xlink="http://www.w3.org/1999/xlink" viewBox="0 0 414 162"><defs><style>.cls-1{fill:#fff;}.cls-2{fill:url(#linear-gradient);}</style><linearGradient id="linear-gradient" x1="39.01" y1="122.98" x2="122.98" y2="39.01" gradientUnits="userSpaceOnUse"><stop offset="0.21" stop-color="#fff"/><stop offset="0.42" stop-color="#fff" stop-opacity="0"/><stop offset="0.59" stop-color="#fff" stop-opacity="0"/><stop offset="0.81" stop-color="#fff"/></linearGradient></defs><title>near_logo_wht</title><path class="cls-1" d="M207.21,54.75v52.5a.76.76,0,0,1-.75.75H201a7.49,7.49,0,0,1-6.3-3.43l-24.78-38.3.85,19.13v21.85a.76.76,0,0,1-.75.75h-7.22a.76.76,0,0,1-.75-.75V54.75a.76.76,0,0,1,.75-.75h5.43a7.52,7.52,0,0,1,6.3,3.42l24.78,38.24-.77-19.06V54.75a.75.75,0,0,1,.75-.75h7.22A.76.76,0,0,1,207.21,54.75Z"/><path class="cls-1" d="M281,108h-7.64a.75.75,0,0,1-.7-1L292.9,54.72A1.14,1.14,0,0,1,294,54h9.57a1.14,1.14,0,0,1,1.05.72L324.8,107a.75.75,0,0,1-.7,1h-7.64a.76.76,0,0,1-.71-.48l-16.31-43a.75.75,0,0,0-1.41,0l-16.31,43A.76.76,0,0,1,281,108Z"/><path class="cls-1" d="M377.84,106.79,362.66,87.4c8.57-1.62,13.58-7.4,13.58-16.27,0-10.19-6.63-17.13-18.36-17.13H336.71a1.12,1.12,0,0,0-1.12,1.12h0a7.2,7.2,0,0,0,7.2,7.2H357c7.09,0,10.49,3.63,10.49,8.87s-3.32,9-10.49,9H336.71a1.13,1.13,0,0,0-1.12,1.13v26a.75.75,0,0,0,.75.75h7.22a.76.76,0,0,0,.75-.75V87.87h8.33l13.17,17.19a7.51,7.51,0,0,0,6,2.94h5.48A.75.75,0,0,0,377.84,106.79Z"/><path class="cls-1" d="M258.17,54h-33.5a1,1,0,0,0-1,1h0A7.33,7.33,0,0,0,231,62.33h27.17a.74.74,0,0,0,.75-.75V54.75A.75.75,0,0,0,258.17,54Zm0,45.67h-25a.76.76,0,0,1-.75-.75V85.38a.75.75,0,0,1,.75-.75h23.11a.75.75,0,0,0,.75-.75V77a.75.75,0,0,0-.75-.75H224.79a1.13,1.13,0,0,0-1.12,1.13v29.45a1.12,1.12,0,0,0,1.12,1.13h33.38a.75.75,0,0,0,.75-.75v-6.83A.74.74,0,0,0,258.17,99.67Z"/><path class="cls-2" d="M46.29,126a10.29,10.29,0,0,0,7.79-3.57h0l70.35-81.61A10.29,10.29,0,0,0,115.71,36h0a10.28,10.28,0,0,0-7.75,3.53L37.27,120.66A10.27,10.27,0,0,0,46.29,126Z"/><path class="cls-1" d="M46.29,126A10.18,10.18,0,0,0,51,124.85V56.72l54.65,65.58a10.32,10.32,0,0,0,7.91,3.7h2.15A10.29,10.29,0,0,0,126,115.71V46.29A10.29,10.29,0,0,0,115.71,36h0A10.32,10.32,0,0,0,111,37.13v68.15L56.35,39.7A10.32,10.32,0,0,0,48.44,36H46.29A10.29,10.29,0,0,0,36,46.29v69.42A10.29,10.29,0,0,0,46.29,126Z"/></svg>