<?xml version="1.0" encoding="utf-8"?><svg viewBox="0 0 1440 500" xmlns="http://www.w3.org/2000/svg"><g fill="#e5e5e6"><path d="m873 470h-27a2 2 0 0 1 0-4h27a2 2 0 0 1 0 4z"/><path d="m837 470h-18a2 2 0 0 1 0-4h18a2 2 0 0 1 0 4z"/><path d="m810 470h-9a2 2 0 0 1 0-4h9a2 2 0 0 1 0 4z"/><path d="m792 470a2 2 0 0 1 -1.42-.59 2 2 0 0 1 -.43-.64 2 2 0 0 1 -.15-.77 2 2 0 0 1 .58-1.41 2.06 2.06 0 0 1 2.83 0 2 2 0 0 1 .59 1.41 2 2 0 0 1 -.15.77 1.88 1.88 0 0 1 -.44.64 1.42 1.42 0 0 1 -.3.25 1.63 1.63 0 0 1 -.34.19 1.66 1.66 0 0 1 -.38.11 1.72 1.72 0 0 1 -.39.04z"/><path d="m594 470h-27a2 2 0 0 1 0-4h27a2 2 0 0 1 0 4z"/><path d="m621 470h-18a2 2 0 0 1 0-4h18a2 2 0 0 1 0 4z"/><path d="m639 470h-9a2 2 0 0 1 0-4h9a2 2 0 0 1 0 4z"/><path d="m648 470a2 2 0 0 1 -1.41-.59 1.42 1.42 0 0 1 -.25-.3 1.93 1.93 0 0 1 -.19-.34 2.2 2.2 0 0 1 -.15-.77 1.72 1.72 0 0 1 0-.39 2.72 2.72 0 0 1 .11-.38 2.27 2.27 0 0 1 .19-.34 1.42 1.42 0 0 1 .25-.3 2 2 0 0 1 1.8-.55 1.58 1.58 0 0 1 .37.11 2 2 0 0 1 .35.19 2.16 2.16 0 0 1 .55.55 2.27 2.27 0 0 1 .19.34 1.82 1.82 0 0 1 .11.38 1.72 1.72 0 0 1 0 .39 2.2 2.2 0 0 1 -.15.77 1.93 1.93 0 0 1 -.19.34 2.16 2.16 0 0 1 -.55.55 1.93 1.93 0 0 1 -.34.19 1.66 1.66 0 0 1 -.38.11 1.72 1.72 0 0 1 -.31.04z"/><path d="m1025.5 425a2 2 0 0 1 -1.71-3l12.15-20h-14.44a2 2 0 0 1 -1.23-3.58l40-31a2 2 0 0 1 3 2.6l-11.27 18.98h14.5a2 2 0 0 1 1.23 3.58l-41 32a2 2 0 0 1 -1.23.42zm1.85-27h12.15a2 2 0 0 1 1.71 3l-8.31 13.65 27.79-21.65h-12.19a2 2 0 0 1 -1.72-3l7.68-13z"/><path d="m1287 461h-54a2 2 0 0 1 -1.11-3.66l27-18a2 2 0 0 1 2.22 0l27 18a2 2 0 0 1 -1.11 3.66zm-47.39-4h40.78l-20.39-13.6z"/><path d="m1287 470h-54a2 2 0 0 1 0-4h54a2 2 0 0 1 0 4z"/><path d="m1287 497h-54a2 2 0 0 1 0-4h54a2 2 0 0 1 0 4z"/><path d="m1238 488a2 2 0 0 1 -2-2v-9a2 2 0 0 1 4 0v9a2 2 0 0 1 -2 2z"/><path d="m1249.25 488a2 2 0 0 1 -2-2v-9a2 2 0 0 1 4 0v9a2 2 0 0 1 -2 2z"/><path d="m1260.5 488a2 2 0 0 1 -2-2v-9a2 2 0 0 1 4 0v9a2 2 0 0 1 -2 2z"/><path d="m1271.75 488a2 2 0 0 1 -2-2v-9a2 2 0 0 1 4 0v9a2 2 0 0 1 -2 2z"/><path d="m1283 488a2 2 0 0 1 -2-2v-9a2 2 0 0 1 4 0v9a2 2 0 0 1 -2 2z"/><path d="m1255.34 189a1.46 1.46 0 0 1 -.86-.29 1.55 1.55 0 0 1 -.58-1.5l1-4.86-3.47-3a1.58 1.58 0 0 1 -.37-1.57 1.49 1.49 0 0 1 1.18-1l4.7-.42 1.74-4.45a1.45 1.45 0 0 1 1.32-.91 1.45 1.45 0 0 1 1.31.85l1.74 4.45 4.7.42a1.49 1.49 0 0 1 1.18 1 1.58 1.58 0 0 1 -.37 1.57l-3.47 3 1 4.86a1.55 1.55 0 0 1 -.58 1.5 1.43 1.43 0 0 1 -1.55.11l-4-2.67-4 2.67a1.36 1.36 0 0 1 -.62.24zm.27-9.7 1.65 1.67a1.59 1.59 0 0 1 .42 1.35l-.39 2.36 2-1.11a1.37 1.37 0 0 1 1.36 0l2 1.11-.39-2.36a1.59 1.59 0 0 1 .42-1.35l1.65-1.67-2.27-.34a1.49 1.49 0 0 1 -1.11-.84l-1-2.14-1 2.14a1.49 1.49 0 0 1 -1.11.84z"/><path d="m1260 200a20 20 0 1 1 20-20 20 20 0 0 1 -20 20zm0-36a16 16 0 1 0 16 16 16 16 0 0 0 -16-16z"/><path d="m1242 209a2.07 2.07 0 0 1 -.77-.15 2 2 0 0 1 -1.23-1.85v-7h-7a2 2 0 0 1 -1.85-1.23 2 2 0 0 1 .44-2.18l9-9a2 2 0 0 1 2.82 2.82l-5.58 5.59h4.17a2 2 0 0 1 2 2v4.17l5.59-5.58a2 2 0 0 1 2.82 2.82l-9 9a2 2 0 0 1 -1.41.59z"/><path d="m1278 209a2 2 0 0 1 -1.41-.59l-9-9a2 2 0 0 1 2.82-2.82l5.59 5.58v-4.17a2 2 0 0 1 2-2h4.17l-5.58-5.59a2 2 0 0 1 2.82-2.82l9 9a2 2 0 0 1 .44 2.18 2 2 0 0 1 -1.85 1.23h-7v7a2 2 0 0 1 -1.23 1.85 2.07 2.07 0 0 1 -.77.15z"/><path d="m1287 182a2 2 0 0 1 -2-2 25 25 0 0 0 -50 0 2 2 0 0 1 -4 0 29 29 0 0 1 58 0 2 2 0 0 1 -2 2z"/><path d="m1386 191c-6.27 0-11-2.79-11-6.5s4.73-6.5 11-6.5 11 2.79 11 6.5-4.73 6.5-11 6.5zm0-9c-4.55 0-7 1.77-7 2.5s2.45 2.5 7 2.5 7-1.77 7-2.5-2.45-2.5-7-2.5z"/><path d="m1386 200c-6.27 0-11-2.79-11-6.5a2 2 0 0 1 4 0c0 .73 2.45 2.5 7 2.5s7-1.77 7-2.5a2 2 0 0 1 4 0c0 3.71-4.73 6.5-11 6.5z"/><path d="m1386 209c-6.27 0-11-2.79-11-6.5a2 2 0 0 1 4 0c0 .73 2.45 2.5 7 2.5s7-1.77 7-2.5a2 2 0 0 1 4 0c0 3.71-4.73 6.5-11 6.5z"/><path d="m1404 182h-18a2 2 0 0 1 -2-2v-27a2 2 0 0 1 2-2h18a2 2 0 0 1 2 2v27a2 2 0 0 1 -2 2zm-16-4h14v-23h-14z"/><path d="m1413 191h-18a2 2 0 0 1 -2-2v-9a2 2 0 0 1 4 0v7h14v-23h-7a2 2 0 0 1 0-4h9a2 2 0 0 1 2 2v27a2 2 0 0 1 -2 2z"/><path d="m1422 200h-18a2 2 0 0 1 -2-2v-9a2 2 0 0 1 4 0v7h14v-23h-7a2 2 0 0 1 0-4h9a2 2 0 0 1 2 2v27a2 2 0 0 1 -2 2z"/><path d="m1431 209h-18a2 2 0 0 1 -2-2v-9a2 2 0 0 1 4 0v7h14v-23h-7a2 2 0 0 1 0-4h9a2 2 0 0 1 2 2v27a2 2 0 0 1 -2 2z"/><path d="m1395 205a2 2 0 0 1 -2-2v-14a2 2 0 0 1 4 0v14a2 2 0 0 1 -2 2z"/><path d="m1377 205a2 2 0 0 1 -2-2v-18a2 2 0 0 1 4 0v18a2 2 0 0 1 -2 2z"/><path d="m1118.45 484.76h-4.9a8.33 8.33 0 0 1 -8.55-8.08 7 7 0 0 0 -2.54-5.23 18 18 0 0 1 -6.4-15.25c.75-8.92 8.19-16.11 17.68-17.08a20.88 20.88 0 0 1 16.15 5.12 18 18 0 0 1 6.11 13.47 18.22 18.22 0 0 1 -6.38 13.68 7 7 0 0 0 -2.62 5.29 8.33 8.33 0 0 1 -8.55 8.08zm-2.45-41.76q-.92 0-1.83.09c-7.46.77-13.52 6.55-14.1 13.45a14 14 0 0 0 5 11.88 11 11 0 0 1 3.93 8.26 4.34 4.34 0 0 0 4.55 4.08h4.9a4.34 4.34 0 0 0 4.55-4.08 11.14 11.14 0 0 1 4-8.31 13.87 13.87 0 0 0 .22-21.16 16.75 16.75 0 0 0 -11.22-4.21z"/><path d="m1116 489.63c-4.64 0-8-2-8-4.78a2 2 0 0 1 4-.22 8.54 8.54 0 0 0 8 0 2 2 0 0 1 4 .22c0 2.77-3.36 4.78-8 4.78z"/><path d="m1116 494.28c-4.64 0-8-2-8-4.79a2 2 0 0 1 4-.22 8.47 8.47 0 0 0 8 0 2 2 0 0 1 4 .22c0 2.77-3.36 4.79-8 4.79z"/><path d="m1118.94 492.28a2.95 2.95 0 0 1 -5.88 0"/><path d="m1116 497a4.84 4.84 0 0 1 -4.94-4.72 2 2 0 0 1 4 0 1 1 0 0 0 1.88 0 2 2 0 0 1 4 0 4.84 4.84 0 0 1 -4.94 4.72z"/><path d="m1126.35 459.73a2 2 0 0 1 -2-2c0-4.19-3.75-7.6-8.35-7.6a2 2 0 0 1 0-4c6.81 0 12.35 5.2 12.35 11.6a2 2 0 0 1 -2 2z"/><path d="m1332 110a2 2 0 0 1 -1.41-3.41l18-18a2 2 0 0 1 2.82 2.82l-18 18a2 2 0 0 1 -1.41.59z"/><path d="m1341 90 9-9v9h9l-9 9h-9z"/><path d="m1350 101h-9a2 2 0 0 1 -2-2v-9a2 2 0 0 1 .59-1.41l9-9a2 2 0 0 1 2.18-.44 2 2 0 0 1 1.23 1.85v7h7a2 2 0 0 1 1.85 1.23 2 2 0 0 1 -.44 2.18l-9 9a2 2 0 0 1 -1.41.59zm-7-4h6.17l5-5h-4.17a2 2 0 0 1 -2-2v-4.17l-5 5z"/><path d="m1332 137a29 29 0 0 1 0-58 2 2 0 0 1 0 4 25 25 0 1 0 25 25 2 2 0 0 1 4 0 29 29 0 0 1 -29 29z"/><path d="m1332 128a20 20 0 0 1 0-40 2 2 0 0 1 0 4 16 16 0 1 0 16 16 2 2 0 0 1 4 0 20 20 0 0 1 -20 20z"/><path d="m1332 119a11 11 0 0 1 0-22 2 2 0 0 1 0 4 7 7 0 1 0 7 7 2 2 0 0 1 4 0 11 11 0 0 1 -11 11z"/><path d="m1287 56h-54a2 2 0 0 1 -2-2v-36a2 2 0 0 1 2-2h54a2 2 0 0 1 2 2v36a2 2 0 0 1 -2 2zm-52-4h50v-32h-50z"/><path d="m1233 27h54v9h-54z"/><path d="m1251 47a2.07 2.07 0 0 1 -.77-.15 2 2 0 0 1 -1.23-1.85v-4.17l-5.59 5.58a2 2 0 0 1 -2.82-2.82l9-9a2 2 0 0 1 2.18-.44 2 2 0 0 1 1.23 1.85v4.17l1.09-1.08a2 2 0 0 1 2.82 0l3.09 3.08 3.09-3.08a2 2 0 0 1 1.41-.59h13.5a2 2 0 0 1 0 4h-12.67l-3.92 3.91a2 2 0 0 1 -2.82 0l-3.09-3.08-3.09 3.08a2 2 0 0 1 -1.41.59z"/><path d="m63 353h-54a2 2 0 0 1 -2-2v-36a2 2 0 0 1 2-2h54a2 2 0 0 1 2 2v36a2 2 0 0 1 -2 2zm-52-4h50v-32h-50z"/><path d="m54 317a2 2 0 0 1 -2-2 16 16 0 0 0 -32 0 2 2 0 0 1 -4 0 20 20 0 0 1 40 0 2 2 0 0 1 -2 2z"/><path d="m42 344h-12a2 2 0 0 1 -1.7-.95 2 2 0 0 1 -.09-1.94l2.54-5.11a7.93 7.93 0 0 1 -2.75-6 8 8 0 0 1 16 0 7.93 7.93 0 0 1 -2.75 6l2.54 5.08a2 2 0 0 1 -.09 1.94 2 2 0 0 1 -1.7.98zm-8.76-4h5.52l-1.87-3.74a2 2 0 0 1 .9-2.69 4 4 0 1 0 -3.58 0 2 2 0 0 1 .9 2.69z"/><path d="m108 425a2 2 0 0 1 -1.6-.8l-24.27-32.2a15.63 15.63 0 0 1 23.56-20.44l2.31 2.44 2.27-2.41a15.63 15.63 0 0 1 22.15 0 15.7 15.7 0 0 1 1.45 20.41l-24.27 32.2a2 2 0 0 1 -1.6.8zm-13.37-54a11.53 11.53 0 0 0 -8.22 3.41 11.68 11.68 0 0 0 -1.08 15.2l22.67 30.07 22.68-30.07a11.69 11.69 0 0 0 -1.09-15.2 11.62 11.62 0 0 0 -16.45 0l-3.69 3.9a2.05 2.05 0 0 1 -2.9 0l-3.73-3.94a11.52 11.52 0 0 0 -8.19-3.37z"/><path d="m126 384.5a2 2 0 0 1 -2-2 2.5 2.5 0 0 0 -2.5-2.5 2 2 0 0 1 0-4 6.51 6.51 0 0 1 6.5 6.5 2 2 0 0 1 -2 2z"/><path d="m252 407a2 2 0 0 1 -1.11-.34l-27-18a2 2 0 0 1 0-3.32l27-18a2 2 0 0 1 2.22 0l27 18a2 2 0 0 1 0 3.32l-27 18a2 2 0 0 1 -1.11.34zm-23.39-20 23.39 15.6 23.39-15.6-23.39-15.6z"/><path d="m252 416c-11.21 0-20-4.83-20-11v-11a2 2 0 0 1 4 0v11c0 3.31 6.57 7 16 7s16-3.69 16-7v-11a2 2 0 0 1 4 0v11c0 6.17-8.79 11-20 11z"/><path d="m270 425a9.58 9.58 0 0 1 -7.08-2.69c-4-4.07-4-11.63-3.93-18.94 0-.8 0-1.59 0-2.37v-1.54c0-3.66-1.2-4.85-4.09-7.72l-.49-.49-3.6-2.64a2 2 0 0 1 2.36-3.22l3.73 2.72.23.2.59.59c3.06 3 5.27 5.24 5.27 10.56v1.54 2.4c-.05 6.19-.1 13.2 2.76 16.09a5.68 5.68 0 0 0 4.25 1.51 2 2 0 0 1 0 4z"/><path d="m180 353a29 29 0 1 1 29-29 29 29 0 0 1 -29 29zm0-54a25 25 0 1 0 25 25 25 25 0 0 0 -25-25z"/><path d="m184.5 339.5h-9a2 2 0 0 1 -2-2v-7h-7a2 2 0 0 1 -2-2v-9a2 2 0 0 1 2-2h7v-7a2 2 0 0 1 2-2h9a2 2 0 0 1 2 2v7h7a2 2 0 0 1 2 2v9a2 2 0 0 1 -2 2h-7v7a2 2 0 0 1 -2 2zm-7-4h5v-7a2 2 0 0 1 2-2h7v-5h-7a2 2 0 0 1 -2-2v-7h-5v7a2 2 0 0 1 -2 2h-7v5h7a2 2 0 0 1 2 2z"/><path d="m171 470a2 2 0 0 1 -.89-3.79l36-18a2 2 0 1 1 1.78 3.58l-36 18a2 2 0 0 1 -.89.21z"/><path d="m171 461a2 2 0 0 1 -.89-3.79l18-9a2 2 0 1 1 1.78 3.58l-18 9a2 2 0 0 1 -.89.21z"/><path d="m157.5 488a6.5 6.5 0 0 1 0-13 2 2 0 0 1 0 4 2.5 2.5 0 1 0 2.5 2.5v-27a2 2 0 0 1 1.11-1.79l27-13.5a2 2 0 1 1 1.78 3.58l-25.89 12.95v25.76a6.51 6.51 0 0 1 -6.5 6.5z"/><path d="m184.5 497a6.5 6.5 0 0 1 0-13 2 2 0 0 1 0 4 2.5 2.5 0 1 0 2.5 2.5v-31.5a2 2 0 0 1 1.11-1.79l18-9a2 2 0 0 1 1.94.09 2 2 0 0 1 .95 1.7v31.5a6.5 6.5 0 1 1 -6.5-6.5 2 2 0 0 1 0 4 2.5 2.5 0 1 0 2.5 2.5v-28.26l-14 7v30.26a6.51 6.51 0 0 1 -6.5 6.5z"/><path d="m189 470a2 2 0 0 1 -.89-3.79l18-9a2 2 0 1 1 1.78 3.58l-18 9a2 2 0 0 1 -.89.21z"/><path d="m171 479a2 2 0 0 1 -.89-3.79l9-4.5a2 2 0 1 1 1.78 3.58l-9 4.5a2 2 0 0 1 -.89.21z"/><path d="m99 110a15.5 15.5 0 0 1 0-31 2 2 0 0 1 0 4 11.5 11.5 0 0 0 0 23 2 2 0 0 1 0 4z"/><path d="m94.5 94h-13.5a2 2 0 0 1 0-4h13.5a2 2 0 0 1 0 4z"/><path d="m94.5 99h-13.5a2 2 0 0 1 0-4h13.5a2 2 0 0 1 0 4z"/><path d="m130.5 110h-13.5a2 2 0 0 1 0-4h13.5a2.5 2.5 0 0 0 0-5h-9a6.5 6.5 0 0 1 0-13h13.5a2 2 0 0 1 0 4h-13.5a2.5 2.5 0 0 0 0 5h9a6.5 6.5 0 0 1 0 13z"/><path d="m126 92a2 2 0 0 1 -2-2v-9a2 2 0 0 1 4 0v9a2 2 0 0 1 -2 2z"/><path d="m126 119a2 2 0 0 1 -2-2v-9a2 2 0 0 1 4 0v9a2 2 0 0 1 -2 2z"/><path d="m114.75 125.5h-13.5a2 2 0 0 1 0-4h13.5a2 2 0 0 1 0 4z"/><path d="m114.75 130.5h-13.5a2 2 0 0 1 0-4h13.5a2 2 0 0 1 0 4z"/><path d="m108 119a2 2 0 0 1 -1.41-.59l-9-9a2 2 0 0 1 2.82-2.82l7.59 7.58 7.59-7.58a2 2 0 0 1 2.82 2.82l-9 9a2 2 0 0 1 -1.41.59z"/><path d="m108 137a2 2 0 0 1 -2-2v-18a2 2 0 0 1 4 0v18a2 2 0 0 1 -2 2z"/><path d="m1399.5 51.5a2.07 2.07 0 0 1 -.77-.15 2 2 0 0 1 -1.21-1.54l-1.11 1.1a2 2 0 0 1 -2.82-2.82l4.5-4.5a2 2 0 0 1 2.18-.44 2 2 0 0 1 1.23 1.85v.27a2 2 0 0 1 1.66.57l.84.83.84-.83a2 2 0 0 1 1.41-.59h6.75a2 2 0 0 1 0 4h-5.92l-1.67 1.66a2 2 0 0 1 -2.82 0l-.84-.83-.84.83a2 2 0 0 1 -1.41.59z"/><path d="m1422 60.5a2 2 0 0 1 -2-2v-45a2.5 2.5 0 0 0 -2.5-2.5h-36a2 2 0 0 1 0-4h36a6.51 6.51 0 0 1 6.5 6.5v45a2 2 0 0 1 -2 2z"/><path d="m1426.5 65a2 2 0 0 1 0-4 2.53 2.53 0 0 0 1.5-.5h-31.31a6.5 6.5 0 0 1 -12.69-2v-45a2.5 2.5 0 0 0 -5 0 2 2 0 0 1 -4 0 6.5 6.5 0 0 1 13 0v45a2.5 2.5 0 0 0 5 0 2 2 0 0 1 2-2h36a2 2 0 0 1 2 2 6.51 6.51 0 0 1 -6.5 6.5z"/><path d="m1413 20h-18a2 2 0 0 1 0-4h18a2 2 0 0 1 0 4z"/><path d="m1413 29h-18a2 2 0 0 1 0-4h18a2 2 0 0 1 0 4z"/><path d="m1413 38h-18a2 2 0 0 1 0-4h18a2 2 0 0 1 0 4z"/><path d="m234 119a11 11 0 1 1 11-11 11 11 0 0 1 -11 11zm0-18a7 7 0 1 0 7 7 7 7 0 0 0 -7-7z"/><path d="m270 101a11 11 0 1 1 11-11 11 11 0 0 1 -11 11zm0-18a7 7 0 1 0 7 7 7 7 0 0 0 -7-7z"/><path d="m270 137a11 11 0 1 1 11-11 11 11 0 0 1 -11 11zm0-18a7 7 0 1 0 7 7 7 7 0 0 0 -7-7z"/><path d="m270 128a2 2 0 0 1 -.89-.21l-36-18a2 2 0 0 1 0-3.58l36-18a2 2 0 1 1 1.78 3.58l-32.42 16.21 32.42 16.21a2 2 0 0 1 -.89 3.79z"/><path d="m1404 497a2 2 0 0 1 -1.6-.8l-27-36a2 2 0 0 1 -.4-1.2v-9a2 2 0 0 1 .59-1.41l9-9a2 2 0 0 1 1.41-.59h36a2 2 0 0 1 1.41.59l9 9a2 2 0 0 1 .59 1.41v9a2 2 0 0 1 -.4 1.2l-27 36a2 2 0 0 1 -1.6.8zm-25-38.67 25 33.34 25-33.34v-7.5l-7.83-7.83h-34.34l-7.83 7.83z"/><path d="m1413 452a2 2 0 0 1 -1.41-.59l-7.59-7.58-7.59 7.58a2 2 0 0 1 -2.82 0l-9-9a2 2 0 0 1 2.82-2.82l7.59 7.58 7.59-7.58a2 2 0 0 1 2.82 0l7.59 7.58 7.59-7.58a2 2 0 0 1 2.82 2.82l-9 9a2 2 0 0 1 -1.41.59z"/><path d="m1422 461a2 2 0 0 1 -1.41-.59l-7.59-7.58-7.59 7.58a2 2 0 0 1 -2.82 0l-7.59-7.58-7.59 7.58a2 2 0 0 1 -2.82 0l-9-9a2 2 0 0 1 2.82-2.82l7.59 7.58 7.59-7.58a2 2 0 0 1 2.82 0l7.59 7.58 7.59-7.58a2 2 0 0 1 2.82 0l7.59 7.58 7.59-7.58a2 2 0 0 1 2.82 2.82l-9 9a2 2 0 0 1 -1.41.59z"/><path d="m1404 497a2 2 0 0 1 -1.79-1.11l-18-36a2 2 0 1 1 3.58-1.78l18 36a2 2 0 0 1 -1.79 2.89z"/><path d="m1404 497a2 2 0 0 1 -2-2v-36a2 2 0 0 1 4 0v36a2 2 0 0 1 -2 2z"/><path d="m1431 461h-54a2 2 0 0 1 0-4h54a2 2 0 0 1 0 4z"/><path d="m1404 497a2 2 0 0 1 -1.79-2.89l18-36a2 2 0 1 1 3.58 1.78l-18 36a2 2 0 0 1 -1.79 1.11z"/><path d="m1116 20.82a6.91 6.91 0 1 1 6.91-6.91 6.92 6.92 0 0 1 -6.91 6.91zm0-9.82a2.91 2.91 0 1 0 2.91 2.91 2.92 2.92 0 0 0 -2.91-2.91z"/><path d="m1098.64 62.72a6.91 6.91 0 1 1 4.89-2 6.93 6.93 0 0 1 -4.89 2zm0-9.82a2.91 2.91 0 1 0 2.06.85 2.91 2.91 0 0 0 -2.06-.85z"/><path d="m1133.36 62.72a6.93 6.93 0 0 1 -4.89-2 6.92 6.92 0 1 1 4.89 2zm-2.06-4.85a2.91 2.91 0 1 0 0-4.12 2.92 2.92 0 0 0 0 4.12z"/><path d="m1116 65a26.55 26.55 0 1 1 26.55-26.55 26.58 26.58 0 0 1 -26.55 26.55zm0-49.09a22.55 22.55 0 1 0 22.55 22.54 22.57 22.57 0 0 0 -22.55-22.54z"/><path d="m1399.5 342.68a24.5 24.5 0 1 1 24.5-24.5 24.53 24.53 0 0 1 -24.5 24.5zm0-45a20.5 20.5 0 1 0 20.5 20.5 20.53 20.53 0 0 0 -20.5-20.5z"/><path d="m1431 351.68a2 2 0 0 1 -1.41-.59l-18-18a2 2 0 1 1 2.82-2.82l18 18a2 2 0 0 1 0 2.82 2 2 0 0 1 -1.41.59z"/><path d="m1399.5 316.18a6.5 6.5 0 1 1 6.5-6.5 6.51 6.51 0 0 1 -6.5 6.5zm0-9a2.5 2.5 0 1 0 2.5 2.5 2.5 2.5 0 0 0 -2.5-2.5z"/><path d="m1408.5 329.18a2 2 0 0 1 -2-2v-4a7 7 0 0 0 -14 0v4a2 2 0 1 1 -4 0v-4a11 11 0 0 1 22 0v4a2 2 0 0 1 -2 2z"/><path d="m1399.5 322.68a2 2 0 0 1 -2-2v-6a2 2 0 0 1 4 0v6a2 2 0 0 1 -2 2z"/><path d="m495 461a2 2 0 0 1 -1.11-.34l-25.89-17.26-25.89 17.26a2 2 0 1 1 -2.22-3.32l27-18a2 2 0 0 1 2.22 0l27 18a2 2 0 0 1 -1.11 3.66z"/><path d="m486 497h-45a2 2 0 0 1 -2-2v-27a2 2 0 0 1 4 0v25h41v-5h-25a2 2 0 0 1 -2-2v-18a2 2 0 0 1 2-2h27a2 2 0 0 1 2 2v16h7a2 2 0 0 1 0 4h-7v7a2 2 0 0 1 -2 2zm-25-13h23v-14h-23z"/><path d="m477 479h-9a2 2 0 0 1 0-4h9a2 2 0 0 1 0 4z"/><path d="m1197 137h-18a2 2 0 0 1 -1.85-1.23 2 2 0 0 1 .44-2.18l3.91-3.92v-15.17h-20.5a2 2 0 0 1 -.63-3.9l21.13-7v-3.5a44.84 44.84 0 0 1 4.71-20 2 2 0 0 1 3.58 0 44.84 44.84 0 0 1 4.71 20v3.5l21.13 7a2 2 0 0 1 -.63 3.9h-20.5v15.17l3.91 3.92a2 2 0 0 1 .44 2.18 2 2 0 0 1 -1.85 1.23zm-13.17-4h8.34l-1.08-1.09a2 2 0 0 1 -.59-1.41v-18a2 2 0 0 1 2-2h10.18l-10.81-3.6a2 2 0 0 1 -1.37-1.9v-4.94a40.9 40.9 0 0 0 -2.5-14 40.9 40.9 0 0 0 -2.5 14v4.94a2 2 0 0 1 -1.37 1.9l-10.81 3.6h10.18a2 2 0 0 1 2 2v18a2 2 0 0 1 -.59 1.41z"/><path d="m1206 416a10.89 10.89 0 0 1 -7.52-3 19.93 19.93 0 0 1 -17.67 1.64 15.5 15.5 0 1 1 -9.76-29.26 20 20 0 0 1 36.87 8.77 11 11 0 0 1 -1.92 21.85zm-7.2-7.62a1.37 1.37 0 0 1 .28 0 2 2 0 0 1 1.32.78 7 7 0 1 0 5.6-11.16 2 2 0 0 1 -2-2 16 16 0 0 0 -30-7.83 2 2 0 0 1 -1.42 1 11.49 11.49 0 0 0 1.92 22.83 11.31 11.31 0 0 0 5.31-1.31 2 2 0 0 1 1.74-.06 15.88 15.88 0 0 0 16-1.85 2 2 0 0 1 1.25-.4z"/><path d="m1207.09 378.91a2 2 0 0 1 -1.41-.59 25 25 0 0 0 -35.36 0 2 2 0 0 1 -2.83-2.83 29 29 0 0 1 41 0 2 2 0 0 1 -1.42 3.42z"/><path d="m1188 407c-6.27 0-11-2.79-11-6.5s4.73-6.5 11-6.5 11 2.79 11 6.5-4.73 6.5-11 6.5zm0-9c-4.55 0-7 1.77-7 2.5s2.45 2.5 7 2.5 7-1.77 7-2.5-2.45-2.5-7-2.5z"/><path d="m1188 425c-6.27 0-11-2.79-11-6.5v-18a2 2 0 0 1 4 0v18c0 .73 2.45 2.5 7 2.5s7-1.77 7-2.5v-18a2 2 0 0 1 4 0v18c0 3.71-4.73 6.5-11 6.5z"/><path d="m63 209h-54a2 2 0 0 1 0-4h54a2 2 0 0 1 0 4z"/><path d="m29.63 188.36a2 2 0 0 1 -1.19-.39l-20.63-15.37a2 2 0 0 1 2.38-3.2l19.25 14.33 32.15-32.14a2 2 0 0 1 2.82 2.82l-33.36 33.37a2 2 0 0 1 -1.42.58z"/><path d="m63 164a2 2 0 0 1 -2-2v-7h-7a2 2 0 0 1 0-4h9a2 2 0 0 1 2 2v9a2 2 0 0 1 -2 2z"/><path d="m18 209h-9a2 2 0 0 1 -2-2v-22a2 2 0 0 1 2-2h9a2 2 0 0 1 2 2v22a2 2 0 0 1 -2 2zm-7-4h5v-18h-5z"/><path d="m63 209h-9a2 2 0 0 1 -2-2v-36a2 2 0 0 1 2-2h9a2 2 0 0 1 2 2v36a2 2 0 0 1 -2 2zm-7-4h5v-32h-5z"/><path d="m48 209h-9a2 2 0 0 1 -2-2v-22a2 2 0 0 1 2-2h9a2 2 0 0 1 2 2v22a2 2 0 0 1 -2 2zm-7-4h5v-18h-5z"/><path d="m33 209h-9a2 2 0 0 1 -2-2v-14a2 2 0 0 1 2-2h9a2 2 0 0 1 2 2v14a2 2 0 0 1 -2 2zm-7-4h5v-10h-5z"/><path d="m36.83 497a2 2 0 0 1 -1.11-.34c-19.29-12.86-25.21-34.59-27-46.4a2 2 0 0 1 .43-1.57 2 2 0 0 1 1.46-.73 15.94 15.94 0 0 0 13.1-8 2 2 0 0 1 1.73-1h22.82a2 2 0 0 1 1.74 1.04 15.93 15.93 0 0 0 13.1 8 2 2 0 0 1 1.89 2.3c-1.82 11.81-7.74 33.54-27 46.4a1.94 1.94 0 0 1 -1.16.3zm-23.83-45.27c2 11.23 7.74 29.48 23.84 40.84 16.1-11.36 21.81-29.57 23.84-40.84a19.88 19.88 0 0 1 -13.53-8.73h-20.63a19.93 19.93 0 0 1 -13.52 8.73z"/><path d="m35.83 476a2 2 0 0 1 -1.66-.89l-6-9a2 2 0 0 1 3.33-2.22l4.33 6.5 10.34-15.5a2 2 0 0 1 3.33 2.22l-12 18a2 2 0 0 1 -1.67.89z"/><path d="m423 380h-27a2 2 0 0 1 0-4h27a2 2 0 0 1 0 4z"/><path d="m423 398h-27a2 2 0 0 1 0-4h27a2 2 0 0 1 0 4z"/><path d="m423 416h-27a2 2 0 0 1 0-4h27a2 2 0 0 1 0 4z"/><path d="m387 389h-18a2 2 0 0 1 -2-2v-18a2 2 0 0 1 2-2h18a2 2 0 0 1 2 2v18a2 2 0 0 1 -2 2zm-16-4h14v-14h-14z"/><path d="m376.5 383a2 2 0 0 1 -1.41-.59l-3-3a2 2 0 0 1 2.82-2.82l1.59 1.58 4.59-4.58a2 2 0 0 1 2.82 2.82l-6 6a2 2 0 0 1 -1.41.59z"/><path d="m387 407h-18a2 2 0 0 1 -2-2v-9a2 2 0 0 1 4 0v7h14v-7a2 2 0 0 1 4 0v9a2 2 0 0 1 -2 2z"/><path d="m387 425h-18a2 2 0 0 1 -2-2v-9a2 2 0 0 1 4 0v7h14v-7a2 2 0 0 1 4 0v9a2 2 0 0 1 -2 2z"/><path d="m1320.82 409.64a2 2 0 0 1 -2-2.3 47 47 0 0 1 39.87-39.87 2 2 0 0 1 2.27 2.28 47 47 0 0 1 -39.87 39.86zm35.7-37.71a42.94 42.94 0 0 0 -33.23 33.23 42.94 42.94 0 0 0 33.23-33.23z"/><path d="m1327.18 416a2 2 0 0 1 -.76-.15 2 2 0 0 1 -1.24-1.85v-10.73h-10.73a2 2 0 0 1 -1.41-3.41l6.36-6.37a2 2 0 1 1 2.83 2.83l-3 2.95h7.9a2 2 0 0 1 2 2v7.9l3-2.95a2 2 0 1 1 2.83 2.83l-6.37 6.36a2 2 0 0 1 -1.41.59z"/><path d="m1343.09 391.86a6.5 6.5 0 1 1 4.6-1.9 6.45 6.45 0 0 1 -4.6 1.9zm0-9a2.5 2.5 0 0 0 -1.77 4.27 2.55 2.55 0 0 0 3.54 0 2.52 2.52 0 0 0 0-3.54 2.49 2.49 0 0 0 -1.77-.73z"/><path d="m1305.45 425a2 2 0 0 1 -1.41-3.41l9-9a2 2 0 0 1 2.83 2.82l-9 9a2 2 0 0 1 -1.42.59z"/><path d="m1332.45 425h-6.19a6.88 6.88 0 0 1 -4.87-11.76 2 2 0 1 1 2.82 2.83 2.89 2.89 0 0 0 2 4.93h6.19a2 2 0 0 1 0 4z"/><path d="m1310.39 409.1a7 7 0 0 1 -2.68-.54 6.79 6.79 0 0 1 -4.26-6.37v-6.19a2 2 0 0 1 4 0v6.19a2.9 2.9 0 0 0 4.94 2.05 2 2 0 1 1 2.82 2.83 6.79 6.79 0 0 1 -4.82 2.03z"/><path d="m1332 281a2 2 0 0 1 -1.11-.34l-19.65-13.1a12 12 0 0 1 -4.08-15.35l1.83-3.66a8 8 0 0 0 -1.5-9.23l-3.9-3.91a2 2 0 0 1 0-2.82l9-9a2 2 0 0 1 2.82 0l1.93 1.92a8 8 0 0 0 11.32 0l1.93-1.92a2 2 0 0 1 2.82 0l1.93 1.92a8 8 0 0 0 11.32 0l1.93-1.92a2 2 0 0 1 2.82 0l9 9a2 2 0 0 1 0 2.82l-3.9 3.91a8 8 0 0 0 -1.5 9.23l1.83 3.66a12 12 0 0 1 -4.08 15.35l-19.65 13.1a2 2 0 0 1 -1.11.34zm-24.17-47 2.49 2.49a12 12 0 0 1 2.25 13.85l-1.83 3.66a8 8 0 0 0 2.71 10.23l18.55 12.37 18.55-12.37a8 8 0 0 0 2.71-10.23l-1.83-3.66a12 12 0 0 1 2.25-13.85l2.49-2.49-6.17-6.17-.51.51a12 12 0 0 1 -17 0l-.51-.51-.51.51a12 12 0 0 1 -17 0l-.51-.51z"/><path d="m1325 259 7-16 7 16-16-10h18z"/><path d="m1339 261a2 2 0 0 1 -1.06-.3l-5.94-3.7-5.94 3.72a2 2 0 0 1 -2.89-2.5l2.31-5.29-3.54-2.21a2 2 0 0 1 1.06-3.72h5.07l2.1-4.8a2 2 0 0 1 3.66 0l2.1 4.8h5.07a2 2 0 0 1 1.06 3.7l-3.54 2.21 2.31 5.29a2 2 0 0 1 -.52 2.31 2 2 0 0 1 -1.31.49zm-8.47-9.65 1.47.92 1.47-.92-.15-.35h-2.64z"/><path d="m180 56c-11 0-20-7-20-15.5a12.57 12.57 0 0 1 1.54-6c-6.74-2.9-10.54-7.21-10.54-12 0-8.69 12.74-15.5 29-15.5 16 0 29 11 29 24.5s-13 24.5-29 24.5zm0-45c-14.95 0-25 5.95-25 11.5 0 3.47 3.92 7 10.23 9.19a2 2 0 0 1 1.26 1.31 2 2 0 0 1 -.36 1.8 9.15 9.15 0 0 0 -2.13 5.7c0 6.34 7.18 11.5 16 11.5 13.79 0 25-9.2 25-20.5s-11.21-20.5-25-20.5z"/><path d="m179.83 65a20.46 20.46 0 0 1 -13.54-5.46c-4.17-4-6.29-9.95-6.29-17.54a2 2 0 0 1 4 0c0 6.47 1.71 11.4 5.07 14.66a16.45 16.45 0 0 0 10.87 4.34c13.91 0 25.06-16.63 25.06-30.4a2 2 0 1 1 4 0c0 7.76-3.12 16.37-8.33 23-5.75 7.4-13.09 11.4-20.67 11.4z"/><path d="m180 47a2 2 0 0 1 -1.9-1.57l-3.79-17.21-13.09-5.95a2 2 0 0 1 .83-3.82h36a2 2 0 0 1 .88 3.8l-12.19 6-4.76 17.31a2 2 0 0 1 -1.98 1.44zm-8.77-24.55 5.6 2.55a2 2 0 0 1 1.17 1.39l2.27 10.28 2.85-10.38a2 2 0 0 1 1-1.29l5.25-2.57z"/><path d="m162 44a2.06 2.06 0 0 1 -.59-.09c-10.95-3.37-10.41-20.74-10.41-21.48a2 2 0 0 1 4 .14c0 .15-.43 15 7.59 17.52a2 2 0 0 1 -.59 3.91z"/><path d="m1105.5 344a6.5 6.5 0 1 1 6.5-6.5 6.51 6.51 0 0 1 -6.5 6.5zm0-9a2.5 2.5 0 1 0 2.5 2.5 2.5 2.5 0 0 0 -2.5-2.5z"/><path d="m1132.5 344a6.5 6.5 0 1 1 6.5-6.5 6.51 6.51 0 0 1 -6.5 6.5zm0-9a2.5 2.5 0 1 0 2.5 2.5 2.5 2.5 0 0 0 -2.5-2.5z"/><path d="m1128 339h-36a2 2 0 0 1 -2-2v-31a2 2 0 0 1 2-2h36a2 2 0 0 1 2 2v31a2 2 0 0 1 -2 2zm-34-4h32v-27h-32z"/><path d="m1143 339h-15a2 2 0 0 1 -2-2v-18a2 2 0 0 1 2-2 11 11 0 0 1 10.82 9h4.18a2 2 0 0 1 2 2v9a2 2 0 0 1 -2 2zm-13-4h11v-5h-4a2 2 0 0 1 -2-2 7 7 0 0 0 -5-6.71z"/><path d="m324 484a2 2 0 0 1 -1.79-1.11l-2.67-5.33a56.8 56.8 0 0 0 -4.53-7.23 11 11 0 0 1 -2-6.65 11.15 11.15 0 0 1 10.68-10.68 11 11 0 0 1 9.24 17.41 51.44 51.44 0 0 0 -4.3 6.8l-2.84 5.68a2 2 0 0 1 -1.79 1.11zm0-27h-.2a7.1 7.1 0 0 0 -6.8 6.8 6.92 6.92 0 0 0 1.28 4.22 60.25 60.25 0 0 1 4.84 7.75l.88 1.76 1.05-2.11a54 54 0 0 1 4.64-7.35 7 7 0 0 0 -5.69-11.07z"/><circle cx="324" cy="464" r="4.5"/><path d="m297 497a2 2 0 0 1 -1.05-.3 2 2 0 0 1 -.95-1.7v-45a2 2 0 0 1 1.11-1.79l18-9a2 2 0 0 1 1.78 0l17.11 8.55 17.11-8.55a2 2 0 0 1 1.94.09 2 2 0 0 1 .95 1.7v45a2 2 0 0 1 -1.11 1.79l-18 9a2 2 0 0 1 -1.78 0l-17.11-8.55-17.11 8.55a2 2 0 0 1 -.89.21zm18-13a2 2 0 0 1 .89.21l17.11 8.55 16-8v-40.52l-15.11 7.55a2 2 0 0 1 -1.78 0l-17.11-8.55-16 8v40.52l15.11-7.55a2 2 0 0 1 .89-.21z"/><path d="m63 65h-54a2 2 0 0 1 0-4h54a2 2 0 0 1 0 4z"/><path d="m18 56a11 11 0 0 1 -11-11 2 2 0 0 1 2-2h18a2 2 0 0 1 2 2 11 11 0 0 1 -11 11zm-6.71-9a7 7 0 0 0 13.42 0z"/><path d="m54 56a11 11 0 0 1 -11-11 2 2 0 0 1 2-2h18a2 2 0 0 1 2 2 11 11 0 0 1 -11 11zm-6.71-9a7 7 0 0 0 13.42 0z"/><path d="m27 47a2 2 0 0 1 -1.79-1.11l-7.21-14.42-7.21 14.42a2 2 0 0 1 -3.58-1.78l9-18a2 2 0 0 1 3.58 0l9 18a2 2 0 0 1 -1.79 2.89z"/><path d="m63 47a2 2 0 0 1 -1.79-1.11l-7.21-14.42-7.21 14.42a2 2 0 1 1 -3.58-1.78l9-18a2 2 0 0 1 3.58 0l9 18a2 2 0 0 1 -1.79 2.89z"/><path d="m36 65a2 2 0 0 1 -2-2v-45a2 2 0 0 1 4 0v45a2 2 0 0 1 -2 2z"/><path d="m63 29h-54a2 2 0 0 1 0-4h54a2 2 0 0 1 0 4z"/><path d="m36 20a2 2 0 0 1 -1.79-1.11l-4.5-9a2 2 0 0 1 3.58-1.78l2.71 5.42 2.71-5.42a2 2 0 1 1 3.58 1.78l-4.5 9a2 2 0 0 1 -1.79 1.11z"/><path d="m958.5 479a6.5 6.5 0 1 1 6.5-6.5 6.51 6.51 0 0 1 -6.5 6.5zm0-9a2.5 2.5 0 1 0 2.5 2.5 2.5 2.5 0 0 0 -2.5-2.5z"/><path d="m985.5 479a6.5 6.5 0 1 1 6.5-6.5 6.51 6.51 0 0 1 -6.5 6.5zm0-9a2.5 2.5 0 1 0 2.5 2.5 2.5 2.5 0 0 0 -2.5-2.5z"/><path d="m999 470a2 2 0 0 1 -2-2v-7h-7a2 2 0 0 1 -1.41-.59l-8.42-8.41h-16.34l-8.42 8.41a2 2 0 0 1 -1.41.59h-7v7a2 2 0 0 1 -4 0v-9a2 2 0 0 1 2-2h8.17l8.42-8.41a2 2 0 0 1 1.41-.59h18a2 2 0 0 1 1.41.59l8.42 8.41h8.17a2 2 0 0 1 2 2v9a2 2 0 0 1 -2 2z"/><path d="m999 488h-54a2 2 0 0 1 0-4h54a2 2 0 0 1 0 4z"/><path d="m1246 335h-44a7 7 0 0 1 -7-7v-80a7 7 0 0 1 7-7h44a7 7 0 0 1 7 7v80a7 7 0 0 1 -7 7zm-44-90a3 3 0 0 0 -3 3v80a3 3 0 0 0 3 3h44a3 3 0 0 0 3-3v-80a3 3 0 0 0 -3-3z"/><path d="m1251 254h-54a2 2 0 0 1 0-4h54a2 2 0 0 1 0 4z"/><path d="m1251 326h-54a2 2 0 0 1 0-4h54a2 2 0 0 1 0 4z"/><path d="m1179 290h-27a2 2 0 0 1 -1.41-.59l-18-18a2 2 0 0 1 2.82-2.82l17.42 17.41h26.17a2 2 0 0 1 0 4z"/><path d="m1296 290h-27a2 2 0 0 1 0-4h27a2 2 0 0 1 0 4z"/><path d="m1224 245a2 2 0 0 1 -2-2v-27a2 2 0 0 1 4 0v27a2 2 0 0 1 -2 2z"/><path d="m1242 380a2 2 0 0 1 -1.41-.59l-18-18a2 2 0 0 1 -.59-1.41v-27a2 2 0 0 1 4 0v26.17l17.41 17.42a2 2 0 0 1 -1.41 3.41z"/><path d="m1189.09 255.09a2 2 0 0 1 -1.41-.58l-37.09-37.1a2 2 0 0 1 2.82-2.82l37.1 37.09a2 2 0 0 1 -1.42 3.41z"/><path d="m1278 344a2 2 0 0 1 -1.41-.59l-19.1-19.09a2 2 0 1 1 2.83-2.83l19.09 19.1a2 2 0 0 1 -1.41 3.41z"/><path d="m1134 380a2 2 0 0 1 -1.41-3.41l55.09-55.1a2 2 0 1 1 2.83 2.83l-55.1 55.09a2 2 0 0 1 -1.41.59z"/><path d="m1188 47a11 11 0 1 1 11-11 11 11 0 0 1 -11 11zm0-18a7 7 0 1 0 7 7 7 7 0 0 0 -7-7z"/><path d="m1044 47a11 11 0 1 1 11-11 11 11 0 0 1 -11 11zm0-18a7 7 0 1 0 7 7 7 7 0 0 0 -7-7z"/><path d="m1332 47a11 11 0 1 1 11-11 11 11 0 0 1 -11 11zm0-18a7 7 0 1 0 7 7 7 7 0 0 0 -7-7z"/><path d="m1260 119a11 11 0 1 1 11-11 11 11 0 0 1 -11 11zm0-18a7 7 0 1 0 7 7 7 7 0 0 0 -7-7z"/><path d="m1116 119a11 11 0 1 1 11-11 11 11 0 0 1 -11 11zm0-18a7 7 0 1 0 7 7 7 7 0 0 0 -7-7z"/><path d="m1404 119a11 11 0 1 1 11-11 11 11 0 0 1 -11 11zm0-18a7 7 0 1 0 7 7 7 7 0 0 0 -7-7z"/><path d="m1188 191a11 11 0 1 1 11-11 11 11 0 0 1 -11 11zm0-18a7 7 0 1 0 7 7 7 7 0 0 0 -7-7z"/><path d="m1332 191a11 11 0 1 1 11-11 11 11 0 0 1 -11 11zm0-18a7 7 0 1 0 7 7 7 7 0 0 0 -7-7z"/><path d="m1044 335a11 11 0 1 1 11-11 11 11 0 0 1 -11 11zm0-18a7 7 0 1 0 7 7 7 7 0 0 0 -7-7z"/><path d="m1332 335a11 11 0 1 1 11-11 11 11 0 0 1 -11 11zm0-18a7 7 0 1 0 7 7 7 7 0 0 0 -7-7z"/><path d="m1404 263a11 11 0 1 1 11-11 11 11 0 0 1 -11 11zm0-18a7 7 0 1 0 7 7 7 7 0 0 0 -7-7z"/><path d="m1116 263a11 11 0 1 1 11-11 11 11 0 0 1 -11 11zm0-18a7 7 0 1 0 7 7 7 7 0 0 0 -7-7z"/><path d="m1260 407a11 11 0 1 1 11-11 11 11 0 0 1 -11 11zm0-18a7 7 0 1 0 7 7 7 7 0 0 0 -7-7z"/><path d="m1116 407a11 11 0 1 1 11-11 11 11 0 0 1 -11 11zm0-18a7 7 0 1 0 7 7 7 7 0 0 0 -7-7z"/><path d="m1404 407a11 11 0 1 1 11-11 11 11 0 0 1 -11 11zm0-18a7 7 0 1 0 7 7 7 7 0 0 0 -7-7z"/><path d="m1188 479a11 11 0 1 1 11-11 11 11 0 0 1 -11 11zm0-18a7 7 0 1 0 7 7 7 7 0 0 0 -7-7z"/><path d="m1044 479a11 11 0 1 1 11-11 11 11 0 0 1 -11 11zm0-18a7 7 0 1 0 7 7 7 7 0 0 0 -7-7z"/><path d="m1332 479a11 11 0 1 1 11-11 11 11 0 0 1 -11 11zm0-18a7 7 0 1 0 7 7 7 7 0 0 0 -7-7z"/><path d="m1386 92a2 2 0 0 1 -1.41-.59l-36-36a2 2 0 0 1 2.82-2.82l36 36a2 2 0 0 1 -1.41 3.41z"/><path d="m1350 164a2 2 0 0 1 -1.41-3.41l36-36a2 2 0 0 1 2.82 2.82l-36 36a2 2 0 0 1 -1.41.59z"/><path d="m1278 92a2 2 0 0 1 -1.41-3.41l36-36a2 2 0 0 1 2.82 2.82l-36 36a2 2 0 0 1 -1.41.59z"/><path d="m1314 164a2 2 0 0 1 -1.41-.59l-36-36a2 2 0 0 1 2.82-2.82l36 36a2 2 0 0 1 -1.41 3.41z"/><path d="m1422 92a2 2 0 0 1 -1.41-3.41l36-36a2 2 0 0 1 2.82 2.82l-36 36a2 2 0 0 1 -1.41.59z"/><path d="m1458 164a2 2 0 0 1 -1.41-.59l-36-36a2 2 0 0 1 2.82-2.82l36 36a2 2 0 0 1 -1.41 3.41z"/><path d="m1422 236a2 2 0 0 1 -1.41-3.41l36-36a2 2 0 0 1 2.82 2.82l-36 36a2 2 0 0 1 -1.41.59z"/><path d="m1458 308a2 2 0 0 1 -1.41-.59l-36-36a2 2 0 0 1 2.82-2.82l36 36a2 2 0 0 1 -1.41 3.41z"/><path d="m1422 380a2 2 0 0 1 -1.41-3.41l36-36a2 2 0 0 1 2.82 2.82l-36 36a2 2 0 0 1 -1.41.59z"/><path d="m1458 452a2 2 0 0 1 -1.41-.59l-36-36a2 2 0 0 1 2.82-2.82l36 36a2 2 0 0 1 -1.41 3.41z"/><path d="m252 47a11 11 0 1 1 11-11 11 11 0 0 1 -11 11zm0-18a7 7 0 1 0 7 7 7 7 0 0 0 -7-7z"/><path d="m396 47a11 11 0 1 1 11-11 11 11 0 0 1 -11 11zm0-18a7 7 0 1 0 7 7 7 7 0 0 0 -7-7z"/><path d="m108 47a11 11 0 1 1 11-11 11 11 0 0 1 -11 11zm0-18a7 7 0 1 0 7 7 7 7 0 0 0 -7-7z"/><path d="m180 119a11 11 0 1 1 11-11 11 11 0 0 1 -11 11zm0-18a7 7 0 1 0 7 7 7 7 0 0 0 -7-7z"/><path d="m324 119a11 11 0 1 1 11-11 11 11 0 0 1 -11 11zm0-18a7 7 0 1 0 7 7 7 7 0 0 0 -7-7z"/><path d="m36 119a11 11 0 1 1 11-11 11 11 0 0 1 -11 11zm0-18a7 7 0 1 0 7 7 7 7 0 0 0 -7-7z"/><path d="m396 335a11 11 0 1 1 11-11 11 11 0 0 1 -11 11zm0-18a7 7 0 1 0 7 7 7 7 0 0 0 -7-7z"/><path d="m252 335a11 11 0 1 1 11-11 11 11 0 0 1 -11 11zm0-18a7 7 0 1 0 7 7 7 7 0 0 0 -7-7z"/><path d="m468 407a11 11 0 1 1 11-11 11 11 0 0 1 -11 11zm0-18a7 7 0 1 0 7 7 7 7 0 0 0 -7-7z"/><path d="m972 407a11 11 0 1 1 11-11 11 11 0 0 1 -11 11zm0-18a7 7 0 1 0 7 7 7 7 0 0 0 -7-7z"/><path d="m108 335a11 11 0 1 1 11-11 11 11 0 0 1 -11 11zm0-18a7 7 0 1 0 7 7 7 7 0 0 0 -7-7z"/><path d="m36 263a11 11 0 1 1 11-11 11 11 0 0 1 -11 11zm0-18a7 7 0 1 0 7 7 7 7 0 0 0 -7-7z"/><path d="m324 263a11 11 0 1 1 11-11 11 11 0 0 1 -11 11zm0-18a7 7 0 1 0 7 7 7 7 0 0 0 -7-7z"/><path d="m180 407a11 11 0 1 1 11-11 11 11 0 0 1 -11 11zm0-18a7 7 0 1 0 7 7 7 7 0 0 0 -7-7z"/><path d="m324 407a11 11 0 1 1 11-11 11 11 0 0 1 -11 11zm0-18a7 7 0 1 0 7 7 7 7 0 0 0 -7-7z"/><path d="m36 407a11 11 0 1 1 11-11 11 11 0 0 1 -11 11zm0-18a7 7 0 1 0 7 7 7 7 0 0 0 -7-7z"/><path d="m252 479a11 11 0 1 1 11-11 11 11 0 0 1 -11 11zm0-18a7 7 0 1 0 7 7 7 7 0 0 0 -7-7z"/><path d="m396 479a11 11 0 1 1 11-11 11 11 0 0 1 -11 11zm0-18a7 7 0 1 0 7 7 7 7 0 0 0 -7-7z"/><path d="m108 479a11 11 0 1 1 11-11 11 11 0 0 1 -11 11zm0-18a7 7 0 1 0 7 7 7 7 0 0 0 -7-7z"/><path d="m540 479a11 11 0 1 1 11-11 11 11 0 0 1 -11 11zm0-18a7 7 0 1 0 7 7 7 7 0 0 0 -7-7z"/><path d="m900 479a11 11 0 1 1 11-11 11 11 0 0 1 -11 11zm0-18a7 7 0 1 0 7 7 7 7 0 0 0 -7-7z"/><path d="m54 92a2 2 0 0 1 -1.41-3.41l36-36a2 2 0 0 1 2.82 2.82l-36 36a2 2 0 0 1 -1.41.59z"/><path d="m90 164a2 2 0 0 1 -1.41-.59l-36-36a2 2 0 0 1 2.82-2.82l36 36a2 2 0 0 1 -1.41 3.41z"/><path d="m162 92a2 2 0 0 1 -1.41-.59l-36-36a2 2 0 0 1 2.82-2.82l36 36a2 2 0 0 1 -1.41 3.41z"/><path d="m198 92a2 2 0 0 1 -1.41-3.41l36-36a2 2 0 0 1 2.82 2.82l-36 36a2 2 0 0 1 -1.41.59z"/><path d="m342 92a2 2 0 0 1 -1.41-3.41l36-36a2 2 0 1 1 2.82 2.82l-36 36a2 2 0 0 1 -1.41.59z"/><path d="m306 92a2 2 0 0 1 -1.41-.59l-36-36a2 2 0 0 1 2.82-2.82l36 36a2 2 0 0 1 -1.41 3.41z"/><path d="m54 236a2 2 0 0 1 -1.41-3.41l36-36a2 2 0 0 1 2.82 2.82l-36 36a2 2 0 0 1 -1.41.59z"/><path d="m306 236a2 2 0 0 1 -1.41-.59l-36-36a2 2 0 0 1 2.82-2.82l36 36a2 2 0 0 1 -1.41 3.41z"/><path d="m378 308a2 2 0 0 1 -1.41-.59l-36-36a2 2 0 0 1 2.82-2.82l36 36a2 2 0 0 1 -1.41 3.41z"/><path d="m450 380a2 2 0 0 1 -1.41-.59l-36-36a2 2 0 0 1 2.82-2.82l36 36a2 2 0 0 1 -1.41 3.41z"/><path d="m522 452a2 2 0 0 1 -1.41-.59l-36-36a2 2 0 0 1 2.82-2.82l36 36a2 2 0 0 1 -1.41 3.41z"/><path d="m54 380a2 2 0 0 1 -1.41-3.41l36-36a2 2 0 0 1 2.82 2.82l-36 36a2 2 0 0 1 -1.41.59z"/><path d="m162 380a2 2 0 0 1 -1.41-.59l-36-36a2 2 0 0 1 2.82-2.82l36 36a2 2 0 0 1 -1.41 3.41z"/><path d="m198 380a2 2 0 0 1 -1.41-3.41l36-36a2 2 0 0 1 2.82 2.82l-36 36a2 2 0 0 1 -1.41.59z"/><path d="m342 380a2 2 0 0 1 -1.41-3.41l36-36a2 2 0 0 1 2.82 2.82l-36 36a2 2 0 0 1 -1.41.59z"/><path d="m306 380a2 2 0 0 1 -1.41-.59l-36-36a2 2 0 0 1 2.82-2.82l36 36a2 2 0 0 1 -1.41 3.41z"/><path d="m126 164a2 2 0 0 1 -1.41-3.41l36-36a2 2 0 0 1 2.82 2.82l-36 36a2 2 0 0 1 -1.41.59z"/><path d="m18 92a2 2 0 0 1 -1.41-.59l-36-36a2 2 0 0 1 0-2.82 2 2 0 0 1 2.82 0l36 36a2 2 0 0 1 -1.41 3.41z"/><path d="m-18 164a2 2 0 0 1 -1.41-.59 2 2 0 0 1 0-2.82l36-36a2 2 0 0 1 2.82 2.82l-36 36a2 2 0 0 1 -1.41.59z"/><path d="m18 236a2 2 0 0 1 -1.41-.59l-36-36a2 2 0 0 1 0-2.82 2 2 0 0 1 2.82 0l36 36a2 2 0 0 1 -1.41 3.41z"/><path d="m-18 308a2 2 0 0 1 -1.41-.59 2 2 0 0 1 0-2.82l36-36a2 2 0 0 1 2.82 2.82l-36 36a2 2 0 0 1 -1.41.59z"/><path d="m18 380a2 2 0 0 1 -1.41-.59l-36-36a2 2 0 0 1 0-2.82 2 2 0 0 1 2.82 0l36 36a2 2 0 0 1 -1.41 3.41z"/><path d="m-18 452a2 2 0 0 1 -1.41-.59 2 2 0 0 1 0-2.82l36-36a2 2 0 0 1 2.82 2.82l-36 36a2 2 0 0 1 -1.41.59z"/><path d="m234 164a2 2 0 0 1 -1.41-.59l-36-36a2 2 0 0 1 2.82-2.82l36 36a2 2 0 0 1 -1.41 3.41z"/><path d="m270 164a2 2 0 0 1 -1.41-3.41l36-36a2 2 0 1 1 2.82 2.82l-36 36a2 2 0 0 1 -1.41.59z"/><path d="m90 308a2 2 0 0 1 -1.41-.59l-36-36a2 2 0 0 1 2.82-2.82l36 36a2 2 0 0 1 -1.41 3.41z"/><path d="m126 308a2 2 0 0 1 -1.41-3.41l32.58-32.59h-22.17a2 2 0 0 1 0-4h27a2 2 0 0 1 1.85 1.23 2 2 0 0 1 -.44 2.18l-36 36a2 2 0 0 1 -1.41.59z"/><path d="m234 308a2 2 0 0 1 -1.41-.59l-36-36a2 2 0 0 1 -.44-2.18 2 2 0 0 1 1.85-1.23h27a2 2 0 0 1 0 4h-22.17l32.58 32.59a2 2 0 0 1 -1.41 3.41z"/><path d="m270 308a2 2 0 0 1 -1.41-3.41l36-36a2 2 0 0 1 2.82 2.82l-36 36a2 2 0 0 1 -1.41.59z"/><path d="m90 452a2 2 0 0 1 -1.41-.59l-36-36a2 2 0 0 1 2.82-2.82l36 36a2 2 0 0 1 -1.41 3.41z"/><path d="m378 452a2 2 0 0 1 -1.41-.59l-36-36a2 2 0 0 1 2.82-2.82l36 36a2 2 0 0 1 -1.41 3.41z"/><path d="m126 452a2 2 0 0 1 -1.41-3.41l36-36a2 2 0 0 1 2.82 2.82l-36 36a2 2 0 0 1 -1.41.59z"/><path d="m234 452a2 2 0 0 1 -1.41-.59l-36-36a2 2 0 0 1 2.82-2.82l36 36a2 2 0 0 1 -1.41 3.41z"/><path d="m270 452a2 2 0 0 1 -1.41-3.41l36-36a2 2 0 0 1 2.82 2.82l-36 36a2 2 0 0 1 -1.41.59z"/><path d="m414 452a2 2 0 0 1 -1.41-3.41l36-36a2 2 0 0 1 2.82 2.82l-36 36a2 2 0 0 1 -1.41.59z"/><path d="m1242 92a2 2 0 0 1 -1.41-.59l-36-36a2 2 0 0 1 2.82-2.82l36 36a2 2 0 0 1 -1.41 3.41z"/><path d="m1206 164a2 2 0 0 1 -1.41-3.41l36-36a2 2 0 0 1 2.82 2.82l-36 36a2 2 0 0 1 -1.41.59z"/><path d="m1134 92a2 2 0 0 1 -1.41-3.41l36-36a2 2 0 0 1 2.82 2.82l-36 36a2 2 0 0 1 -1.41.59z"/><path d="m1170 164a2 2 0 0 1 -1.41-.59l-36-36a2 2 0 0 1 2.82-2.82l36 36a2 2 0 0 1 -1.41 3.41z"/><path d="m1386 236a2 2 0 0 1 -1.41-.59l-36-36a2 2 0 0 1 2.82-2.82l36 36a2 2 0 0 1 -1.41 3.41z"/><path d="m1350 308a2 2 0 0 1 -1.41-3.41l36-36a2 2 0 0 1 2.82 2.82l-36 36a2 2 0 0 1 -1.41.59z"/><path d="m1260 254a2 2 0 0 1 -1.41-3.41l54-54a2 2 0 0 1 2.82 2.82l-54 54a2 2 0 0 1 -1.41.59z"/><path d="m1134 236a2 2 0 0 1 -1.41-3.41l36-36a2 2 0 0 1 2.82 2.82l-36 36a2 2 0 0 1 -1.41.59z"/><path d="m1314 308a2 2 0 0 1 -1.41-.59l-18-18a2 2 0 0 1 2.82-2.82l18 18a2 2 0 0 1 -1.41 3.41z"/><path d="m1386 380a2 2 0 0 1 -1.41-.59l-36-36a2 2 0 0 1 2.82-2.82l36 36a2 2 0 0 1 -1.41 3.41z"/><path d="m1350 452a2 2 0 0 1 -1.41-3.41l36-36a2 2 0 0 1 2.82 2.82l-36 36a2 2 0 0 1 -1.41.59z"/><path d="m1278 380a2 2 0 0 1 -1.41-3.41l36-36a2 2 0 0 1 2.82 2.82l-36 36a2 2 0 0 1 -1.41.59z"/><path d="m1314 452a2 2 0 0 1 -1.41-.59l-36-36a2 2 0 0 1 2.82-2.82l36 36a2 2 0 0 1 -1.41 3.41z"/><path d="m1206 452a2 2 0 0 1 -1.41-3.41l36-36a2 2 0 0 1 2.82 2.82l-36 36a2 2 0 0 1 -1.41.59z"/><path d="m1170 452a2 2 0 0 1 -1.41-.59l-36-36a2 2 0 0 1 2.82-2.82l36 36a2 2 0 0 1 -1.41 3.41z"/><path d="m1098 380a2 2 0 0 1 -1.41-.59l-36-36a2 2 0 0 1 2.82-2.82l36 36a2 2 0 0 1 -1.41 3.41z"/><path d="m1062 452a2 2 0 0 1 -1.41-3.41l36-36a2 2 0 0 1 2.82 2.82l-36 36a2 2 0 0 1 -1.41.59z"/><path d="m918 452a2 2 0 0 1 -1.41-3.41l36-36a2 2 0 1 1 2.82 2.82l-36 36a2 2 0 0 1 -1.41.59z"/><path d="m1062 308a2 2 0 0 1 -1.41-3.41l36-36a2 2 0 0 1 2.82 2.82l-36 36a2 2 0 0 1 -1.41.59z"/><path d="m990 380a2 2 0 0 1 -1.41-3.41l36-36a2 2 0 0 1 2.82 2.82l-36 36a2 2 0 0 1 -1.41.59z"/><path d="m1098 92a2 2 0 0 1 -1.41-.59l-36-36a2 2 0 0 1 2.82-2.82l36 36a2 2 0 0 1 -1.41 3.41z"/><path d="m1026 452a2 2 0 0 1 -1.41-.59l-36-36a2 2 0 0 1 2.82-2.82l36 36a2 2 0 0 1 -1.41 3.41z"/><path d="m252 281h-144a2 2 0 0 1 0-4h144a2 2 0 0 1 0 4z"/><path d="m333 344h-27a2 2 0 0 1 -2-2v-27a2 2 0 0 1 2-2h27a2 2 0 0 1 2 2v27a2 2 0 0 1 -2 2zm-25-4h23v-23h-23z"/><path d="m342 353c-7.14 0-11-12.62-11-24.5s3.86-24.5 11-24.5 11 12.62 11 24.5-3.86 24.5-11 24.5zm0-45c-2.85 0-7 8-7 20.5s4.15 20.5 7 20.5 7-8 7-20.5-4.15-20.5-7-20.5z"/><path d="m342 353h-27c-7.14 0-11-12.62-11-24.5s3.86-24.5 11-24.5h27a2 2 0 0 1 0 4h-27c-2.85 0-7 8-7 20.5s4.15 20.5 7 20.5h27a2 2 0 0 1 0 4z"/><path d="m324 335a2 2 0 0 1 -2-2v-9a2 2 0 0 1 4 0v9a2 2 0 0 1 -2 2z"/><path d="m315 335a2 2 0 0 1 -2-2v-9a2 2 0 0 1 4 0v9a2 2 0 0 1 -2 2z"/><path d="m342 47h-36a2 2 0 0 1 -2-2v-31a7 7 0 0 1 7-7h26a7 7 0 0 1 7 7v31a2 2 0 0 1 -2 2zm-34-4h32v-29a3 3 0 0 0 -3-3h-26a3 3 0 0 0 -3 3z"/><path d="m351 65a2 2 0 0 1 -1.41-.59l-17.42-17.41h-16.34l-17.42 17.41a2 2 0 0 1 -2.82-2.82l18-18a2 2 0 0 1 1.41-.59h18a2 2 0 0 1 1.41.59l18 18a2 2 0 0 1 -1.41 3.41z"/><path d="m342 56h-36a2 2 0 0 1 0-4h36a2 2 0 0 1 0 4z"/><path d="m342 20h-36a2 2 0 0 1 0-4h36a2 2 0 0 1 0 4z"/><path d="m342 38h-36a2 2 0 0 1 0-4h36a2 2 0 0 1 0 4z"/><path d="m315 42a1.72 1.72 0 0 1 -.39 0 1.82 1.82 0 0 1 -.38-.11 1.63 1.63 0 0 1 -.34-.19 1.42 1.42 0 0 1 -.3-.25 2 2 0 0 1 -.59-1.45 1.72 1.72 0 0 1 0-.39 1.58 1.58 0 0 1 .11-.37 1.48 1.48 0 0 1 .19-.35 2.16 2.16 0 0 1 .55-.55 2.27 2.27 0 0 1 .34-.19 2.72 2.72 0 0 1 .38-.11 2 2 0 0 1 .78 0 2.72 2.72 0 0 1 .38.11 2.27 2.27 0 0 1 .34.19 1.42 1.42 0 0 1 .3.25 1.81 1.81 0 0 1 .25.3 2.27 2.27 0 0 1 .19.34 1.82 1.82 0 0 1 .11.38 1.72 1.72 0 0 1 0 .39 2 2 0 0 1 -.59 1.41 1.42 1.42 0 0 1 -.3.25 1.63 1.63 0 0 1 -.34.19 1.82 1.82 0 0 1 -.38.11 1.72 1.72 0 0 1 -.31.04z"/><path d="m333 42a2 2 0 0 1 -1.41-.59 1.42 1.42 0 0 1 -.25-.3 2.27 2.27 0 0 1 -.19-.34 1.66 1.66 0 0 1 -.11-.38 1.72 1.72 0 0 1 0-.39 2 2 0 0 1 .59-1.41 1.42 1.42 0 0 1 .3-.25 1.63 1.63 0 0 1 .34-.19 1.82 1.82 0 0 1 .38-.11 2 2 0 0 1 .78 0 1.58 1.58 0 0 1 .37.11 1.48 1.48 0 0 1 .35.19 1.42 1.42 0 0 1 .3.25 2 2 0 0 1 .55 1.41 1.72 1.72 0 0 1 0 .39 1.66 1.66 0 0 1 -.11.38 2.27 2.27 0 0 1 -.19.34 1.42 1.42 0 0 1 -.25.3 2 2 0 0 1 -1.45.59z"/><path d="m205.46 165.54a2 2 0 0 1 -1.46-.54 34 34 0 0 0 -48 0 2 2 0 0 1 -2.83-2.83 38 38 0 0 1 53.74 0 2 2 0 0 1 0 2.83 2 2 0 0 1 -1.45.54z"/><path d="m199.09 171.91a2 2 0 0 1 -1.41-.59 25 25 0 0 0 -35.36 0 2 2 0 0 1 -2.83-2.83 29 29 0 0 1 41 0 2 2 0 0 1 -1.42 3.42z"/><path d="m252 263h-144a2 2 0 0 1 -2-2v-90a2 2 0 0 1 2-2h144a2 2 0 0 1 2 2v90a2 2 0 0 1 -2 2zm-142-4h140v-86h-140z"/><path d="m234 191h-108a2 2 0 0 1 0-4h108a2 2 0 0 1 0 4z"/><path d="m144 200h-18a2 2 0 0 1 0-4h18a2 2 0 0 1 0 4z"/><path d="m135 209h-9a2 2 0 0 1 0-4h9a2 2 0 0 1 0 4z"/><path d="m144 218h-18a2 2 0 0 1 0-4h18a2 2 0 0 1 0 4z"/><path d="m135 227h-9a2 2 0 0 1 0-4h9a2 2 0 0 1 0 4z"/><path d="m144 236h-18a2 2 0 0 1 0-4h18a2 2 0 0 1 0 4z"/><path d="m135 245h-9a2 2 0 0 1 0-4h9a2 2 0 0 1 0 4z"/><path d="m234 236h-81a2 2 0 0 1 0-4h81a2 2 0 0 1 0 4z"/><path d="m180 245h-27a2 2 0 0 1 0-4h27a2 2 0 0 1 0 4z"/><path d="m234 245h-36a2 2 0 0 1 0-4h36a2 2 0 0 1 0 4z"/><path d="m162 227h-9a2 2 0 0 1 0-4h8.17l8.42-8.41a2 2 0 0 1 1.41-.59h8.17l8.42-8.41a2 2 0 0 1 2.3-.38l17 8.48 26-17.35a2 2 0 1 1 2.22 3.32l-27 18a2 2 0 0 1 -2 .13l-16.72-8.36-8 8a2 2 0 0 1 -1.39.57h-8.17l-8.42 8.41a2 2 0 0 1 -1.41.59z"/><path d="m1237.5 317h-27a6.5 6.5 0 0 1 0-13h27a6.5 6.5 0 0 1 0 13zm-27-9a2.5 2.5 0 0 0 0 5h27a2.5 2.5 0 0 0 0-5z"/><path d="m1242 299h-36a2 2 0 0 1 -2-2v-9a2 2 0 0 1 2-2h36a2 2 0 0 1 2 2v9a2 2 0 0 1 -2 2zm-34-4h32v-5h-32z"/><path d="m1215 281a2 2 0 0 1 -1.41-3.41l18-18a2 2 0 0 1 2.82 2.82l-18 18a2 2 0 0 1 -1.41.59z"/><path d="m1233 281a2 2 0 0 1 -1.41-.59l-18-18a2 2 0 0 1 2.82-2.82l18 18a2 2 0 0 1 -1.41 3.41z"/><path d="m1242 272h-36a2 2 0 0 1 0-4h36a2 2 0 0 1 0 4z"/></g></svg>