<?xml version="1.0" encoding="UTF-8" standalone="no"?>
<svg
   id="Layer_1"
   data-name="Layer 1"
   viewBox="0 0 639 639"
   version="1.1"
   sodipodi:docname="near_logo_white.svg"
   inkscape:version="1.4 (e7c3feb1, 2024-10-09)"
   xmlns:inkscape="http://www.inkscape.org/namespaces/inkscape"
   xmlns:sodipodi="http://sodipodi.sourceforge.net/DTD/sodipodi-0.dtd"
   xmlns="http://www.w3.org/2000/svg"
   xmlns:svg="http://www.w3.org/2000/svg">
  <defs
     id="defs1" />
  <sodipodi:namedview
     id="namedview1"
     pagecolor="#ffffff"
     bordercolor="#000000"
     borderopacity="0.25"
     inkscape:showpageshadow="2"
     inkscape:pageopacity="0.0"
     inkscape:pagecheckerboard="0"
     inkscape:deskcolor="#d1d1d1"
     inkscape:zoom="0.040688576"
     inkscape:cx="319.5"
     inkscape:cy="319.5"
     inkscape:window-width="1104"
     inkscape:window-height="245"
     inkscape:window-x="0"
     inkscape:window-y="755"
     inkscape:window-maximized="0"
     inkscape:current-layer="Layer_1" />
  <path
     d="m457.61,144c-13,0-25.07,6.74-31.88,17.82l-73.37,108.93c-2.39,3.59-1.42,8.43,2.17,10.82,2.91,1.94,6.76,1.7,9.41-.58l72.22-62.64c1.2-1.08,3.05-.97,4.13.23.49.55.75,1.26.75,1.99v196.12c0,1.62-1.31,2.92-2.93,2.92-.87,0-1.69-.38-2.24-1.05L217.56,157.24c-7.11-8.39-17.55-13.23-28.54-13.24h-7.63c-20.65,0-37.39,16.74-37.39,37.39v276.22c0,20.65,16.74,37.39,37.39,37.39,13,0,25.07-6.74,31.88-17.82l73.37-108.93c2.39-3.59,1.42-8.43-2.17-10.82-2.91-1.94-6.76-1.7-9.41.58l-72.22,62.64c-1.2,1.08-3.05.97-4.13-.23-.49-.55-.75-1.26-.74-1.99v-196.17c0-1.62,1.31-2.92,2.93-2.92.86,0,1.69.38,2.24,1.05l218.28,261.37c7.11,8.39,17.55,13.23,28.54,13.24h7.63c20.65.01,37.4-16.72,37.42-37.37V181.39c0-20.65-16.74-37.39-37.39-37.39Z"
     id="path1"
     style="fill:#ffffff" />
</svg>
