<svg xmlns="http://www.w3.org/2000/svg" viewBox="0 0 256 256">
  <rect width="256" height="256" fill="none"/>
  <desc>
    Link Broken 2 Streamline Icon: https://streamlinehq.com
  </desc>
  <g transform="translate(16, 16) scale(9.33)">
    <path d="M12 0.5A4.51 4.51 0 0 0 7.5 5v3.13a1 1 0 1 0 2 0V5a2.5 2.5 0 0 1 5 0v5.5A2.5 2.5 0 0 1 12 13a1 1 0 0 0 0 2 4.51 4.51 0 0 0 4.5 -4.5V5A4.51 4.51 0 0 0 12 0.5Z" fill="#22c55e" stroke-width="1"></path>
    <path d="M15.5 15.63a1 1 0 0 0 -1 1V19a2.5 2.5 0 0 1 -5 0v-5a2.5 2.5 0 0 1 2.5 -2.5 1 1 0 0 0 0 -2A4.51 4.51 0 0 0 7.5 14v5a4.5 4.5 0 0 0 9 0v-2.37a1 1 0 0 0 -1 -1Z" fill="#22c55e" stroke-width="1"></path>
    <path d="m5.24 6.88 -1.3 -0.75a1 1 0 1 0 -1 1.74l1.3 0.75a1 1 0 0 0 1.36 -0.37 1 1 0 0 0 -0.36 -1.37Z" fill="#22c55e" stroke-width="1"></path>
    <path d="M4 12.5a1 1 0 0 0 0 -2H2.5a1 1 0 0 0 0 2Z" fill="#22c55e" stroke-width="1"></path>
    <path d="m4.24 14.38 -1.3 0.75a1 1 0 0 0 1 1.74l1.3 -0.75a1 1 0 0 0 -1 -1.74Z" fill="#22c55e" stroke-width="1"></path>
    <path d="M19.26 8.75a1 1 0 0 0 0.5 -0.13l1.3 -0.75a1 1 0 0 0 -1 -1.74l-1.3 0.75a1 1 0 0 0 0.5 1.87Z" fill="#22c55e" stroke-width="1"></path>
    <path d="M21.5 10.5H20a1 1 0 0 0 0 2h1.5a1 1 0 0 0 0 -2Z" fill="#22c55e" stroke-width="1"></path>
    <path d="m21.06 15.13 -1.3 -0.75a1 1 0 0 0 -1 1.74l1.3 0.75a1 1 0 1 0 1 -1.74Z" fill="#22c55e" stroke-width="1"></path>
  </g>
</svg>