<?xml version="1.0" encoding="utf-8"?>
<!-- Generator: Adobe Illustrator 24.0.0, SVG Export Plug-In . SVG Version: 6.00 Build 0)  -->
<svg xmlns="http://www.w3.org/2000/svg" viewBox="0 0 256 256">
  <rect width="256" height="256" fill="none"/>
  <!-- NEAR logo with border/outline to make it smaller -->
  <g transform="translate(48, 48) scale(1.8)">
    <path d="M72.2,4.6L53.4,32.5c-1.3,1.9,1.2,4.2,3,2.6L74.9,19c0.5-0.4,1.2-0.1,1.2,0.6v50.3c0,0.7-0.9,1-1.3,0.5l-56-67
      C17,1.2,14.4,0,11.5,0h-2C4.3,0,0,4.3,0,9.6v70.8C0,85.7,4.3,90,9.6,90c3.3,0,6.4-1.7,8.2-4.6l18.8-27.9c1.3-1.9-1.2-4.2-3-2.6
      l-18.5,16c-0.5,0.4-1.2,0.1-1.2-0.6V20.1c0-0.7,0.9-1,1.3-0.5l56,67c1.8,2.2,4.5,3.4,7.3,3.4h2c5.3,0,9.6-4.3,9.6-9.6V9.6
      c0-5.3-4.3-9.6-9.6-9.6C77.1,0,74,1.7,72.2,4.6z" 
      fill="#22c55e" 
      stroke="#22c55e" 
      stroke-width="3" 
      stroke-linecap="round" 
      stroke-linejoin="round"/>
  </g>
</svg> 