<svg viewBox="0 0 256 256" xmlns="http://www.w3.org/2000/svg" width="256" height="256">
  <desc>Token/Coin Icon - Dark Mode</desc>
  <g transform="translate(16, 16) scale(15.5)">
    <g id="coin--accounting-billing-payment-cash-coin-currency-money-finance">
      <path id="Ellipse 19" stroke="#22c55e" stroke-linecap="round" stroke-linejoin="round" d="M7 0.499996c3.5899 0 6.5 2.910154 6.5 6.500004 0 3.5899 -2.9101 6.5 -6.5 6.5C3.41015 13.5 0.5 10.5898 0.500001 7 0.500001 3.41014 3.41015 0.499995 7 0.499996Z" stroke-width="1" fill="none"></path>
      <path id="Ellipse 21" stroke="#22c55e" stroke-linecap="round" stroke-linejoin="round" d="M7.08268 2.91655c2.2552 0.00001 4.08342 1.82821 4.08342 4.08342 0 2.2552 -1.82822 4.08343 -4.08342 4.08343 -2.25521 0 -4.08341 -1.82823 -4.08341 -4.08344 0 -2.2552 1.8282 -4.08341 4.08341 -4.08341Z" stroke-width="1" fill="none"></path>
      <path id="Ellipse 22" stroke="#22c55e" stroke-linecap="round" stroke-linejoin="round" d="M7.08301 4.97945c1.11591 0 2.02054 0.90463 2.02054 2.02055" stroke-width="1" fill="none"></path>
    </g>
  </g>
</svg>