<svg viewBox="0 0 1440 432" xmlns="http://www.w3.org/2000/svg"><circle cx="1222.38" cy="215.69" fill="none" r="18" stroke="#000" stroke-linecap="round" stroke-linejoin="round" stroke-width="2"/><path d="m1221 218c0-1.85 1.14-2.47 3-3.43 1.56-.81 2.5-1.43 2.5-3.05 0-1.95-1.43-3.3-4.09-3.3-2.18 0-3.84.94-4.16 3.77h-2.18c.34-3.95 3-5.77 6.42-5.77 3.64 0 6.19 2 6.19 5.25 0 2.55-1.56 3.56-3.48 4.58-1.2.62-2.08 1.12-2.08 2.31v1h-2.12zm-.44 5.54a1.54 1.54 0 1 1 1.53 1.45 1.44 1.44 0 0 1 -1.52-1.47z"/><path d="m216 54-18 36h36z" fill="none" stroke="#000" stroke-linecap="round" stroke-linejoin="round" stroke-width="2"/><path d="m215 78.88-.79-12.45h3.7l-.79 12.45zm-.6 5.31v-3h3.32v3z"/><g fill="none" stroke="#000" stroke-linecap="round" stroke-linejoin="round" stroke-width="2"><path d="m63 81h27"/><path d="m63 90-9-9 9-9"/><path d="m81 63h-27"/><path d="m81 54 9 9-9 9"/><path d="m369 72a9 9 0 1 0 -9 9 9 9 0 0 0 9-9zm-9 9h-15.57a18 18 0 0 0 31.14 0z"/><path d="m342 72a18 18 0 0 1 36 0"/><path d="m81 216a9 9 0 1 0 -9 9 9 9 0 0 0 9-9zm-9 9h-15.57a18 18 0 0 0 31.14 0z"/><path d="m54 216a18 18 0 0 1 36 0"/><path d="m495 76 6 6 12-15"/><rect height="36" rx="5" width="36" x="486" y="54"/><path d="m490 60h28"/><path d="m774 59a5 5 0 0 1 5-5h26a5 5 0 0 1 5 5v26a5 5 0 0 1 -5 5h-26a5 5 0 0 1 -5-5"/><path d="m774 63h9"/><path d="m774 72h9"/><circle cx="796.5" cy="67.5" r="4.5"/><path d="m774 81h14l2.17-4.89a6.92 6.92 0 0 1 6.33-4.11 6.92 6.92 0 0 1 6.33 4.11l2.17 4.89"/><path d="m1092.73 59.27a18 18 0 1 1 -25.46 0"/><path d="m1080 54v18"/><path d="m954 54h-31.5a4.49 4.49 0 0 0 -4.5 4.5 4.49 4.49 0 0 0 4.5 4.5h31.5v27h-31a5 5 0 0 1 -5-5v-26"/><path d="m923 58.5h31"/><circle cx="202.5" cy="229.5" r="4.5"/><path d="m202.5 211.5v9"/><circle cx="229.5" cy="229.5" r="4.5"/><path d="m229.5 211.5v9"/><path d="m220.5 202.5h-9"/><circle cx="202.5" cy="202.5" r="4.5"/><circle cx="216" cy="216" r="4.5"/><circle cx="229.5" cy="202.5" r="4.5"/><path d="m218.92 212.58 7.16-7.16"/><path d="m213.08 212.58-7.16-7.16"/><path d="m218.92 219.42 7.16 7.16"/><path d="m213.08 219.42-7.16 7.16"/><path d="m220.5 229.5h-9"/><circle cx="645.69" cy="69.69" r="16"/><path d="m657 81 8.69 8.69"/><circle cx="1224" cy="72" r="18"/><path d="m1224 59v13l6.01 6.01"/><circle cx="1368" cy="72" r="18"/><path d="m1368 63v18"/><path d="m1359 72h18"/><path d="m504 206.69h18v18h-18z"/><path d="m486 206.69h18v18h-18z"/><path d="m486 197.69h36"/><path d="m486 233.69h36"/><path d="m513 215.69h-18"/><circle cx="936" cy="215.69" r="18"/><path d="m945 206.69-18 18"/><path d="m1071 217.19 6 6 12-15"/><circle cx="1080" cy="215.69" r="18"/><path d="m342 234v-36h27l9 9v27"/><path d="m355.75 211.5-6.5 6.5 6.5 6.5"/><path d="m364.25 211.5 6.5 6.5-6.5 6.5"/><path d="m1381.5 216.9v-16.66l-3-2.55-3 2.55-3 2.56 3 2.56-3 2.55 3 2.56-3 2.56v3.87a9 9 0 1 0 9 0zm-4.5 10.79a3 3 0 1 1 3-3 3 3 0 0 1 -3 3z"/><path d="m1354.5 214.47v16.66l3 2.56 3-2.56 3-2.56-3-2.55 3-2.56-3-2.56 3-2.55v-3.88a9 9 0 1 0 -9 0zm4.5-10.78a3 3 0 1 1 -3 3 3 3 0 0 1 3-3z"/><rect height="36" rx="5" width="36" x="630" y="197.69"/><circle cx="648" cy="215.69" r="4.5"/><path d="m662 206.69h4"/><path d="m662 224.69h4"/><circle cx="648" cy="215.69" r="11.58"/><path d="m648 204.11v2.57"/><path d="m648 224.69v2.57"/><path d="m659.58 215.69h-2.58"/><path d="m639 215.69h-2.58"/><path d="m656.18 207.5-.9.91"/><path d="m640.72 222.96-.9.91"/><path d="m656.18 223.87-.9-.91"/><path d="m640.72 208.41-.9-.91"/><path d="m783 197.69h27v27h-27z"/><path d="m774 206.69v27h27"/><path d="m792 206.69h9v9"/><path d="m783 224.69 18-18"/></g><path d="m135 351h18v18h-18z"/><path d="m207 369v-18h9l9 9v9z"/><path d="m423 369 9-9-9-9zm18-9-9-9v18z"/><path d="m279 351 9 9-9 9z"/><path d="m297 351-9 9 9 9z"/><circle cx="360" cy="360" r="9"/><path d="m495 369 4.5-4.5 4.5 4.5 4.5-4.5 4.5 4.5v-18h-18z"/><path d="m574.2 351v10.8h10.8v-10.8zm-3.6 7.2h-3.6v10.8h10.8v-3.6h-7.2z"/><path d="m720 351a9 9 0 1 0 9 9h-9z"/><path d="m783 351h4.5v18h-4.5z"/><path d="m789.75 357.75h4.5v11.25h-4.5z"/><path d="m796.5 353.25h4.5v15.75h-4.5z"/><path d="m855 359.32v5.18c0 2.49 4 4.5 9 4.5s9-2 9-4.5v-5.18c-2 1.64-5.19 2.68-9 2.68s-7-1-9-2.68zm9 .68c5 0 9-2 9-4.5s-4-4.5-9-4.5-9 2-9 4.5 4 4.5 9 4.5z"/><path d="m639 369 18-18v18z"/><path d="m1071 369 9-9-9-9zm18-9-9-9v18z"/><path d="m940.5 360h-9l4.5 9zm-10.8-3.6h12.6l2.7-5.4h-18z"/><path d="m1219.5 360c0-3.33.91-6.23 2.25-7.79a3 3 0 0 0 -2.25-1.21c-2.49 0-4.5 4-4.5 9s2 9 4.5 9a3 3 0 0 0 2.25-1.21c-1.34-1.56-2.25-4.46-2.25-7.79z"/><ellipse cx="1228.5" cy="360" rx="4.5" ry="9"/><path d="m1363.5 369 2.12-2.12v-7.41a4.72 4.72 0 0 0 1.06-.79 4.5 4.5 0 1 0 -6.36 0 4.72 4.72 0 0 0 1.06.79v7.41zm-1.06-14.56a1.5 1.5 0 1 1 0 2.12 1.49 1.49 0 0 1 0-2.12z"/><path d="m1372.5 351-2.12 2.12v7.41a4.72 4.72 0 0 0 -1.06.79 4.5 4.5 0 1 0 6.36 0 4.72 4.72 0 0 0 -1.06-.79v-7.41zm1.06 14.56a1.5 1.5 0 1 1 0-2.12 1.49 1.49 0 0 1 0 2.12z"/><path d="m1010.26 360-.34-.45a4.5 4.5 0 1 0 -3.84 0l-.34.45a7 7 0 0 0 -6.74 7v2h18v-2a7 7 0 0 0 -6.74-7z"/><path d="m1143 360 6 6 3-15zm12-6-3 15 9-9z"/><path d="m1299 351h-12v18h18v-12h-6z"/><path d="m78.75 357.75a6.75 6.75 0 0 0 -13.5 0h3.37a3.38 3.38 0 0 1 6.76 0z"/><path d="m63 360h18v9h-18z"/></svg>