<svg viewBox="0 0 1440 432" xmlns="http://www.w3.org/2000/svg"><circle cx="1222.38" cy="215.69" fill="none" r="18" stroke="#000" stroke-linecap="round" stroke-linejoin="round" stroke-width="2"/><path d="M1221 218c0-1.85 1.14-2.47 3-3.43 1.56-.81 2.5-1.43 2.5-3.05 0-1.95-1.43-3.3-4.09-3.3-2.18 0-3.84.94-4.16 3.77h-2.18c.34-3.95 3-5.77 6.42-5.77 3.64 0 6.19 2 6.19 5.25 0 2.55-1.56 3.56-3.48 4.58-1.2.62-2.08 1.12-2.08 2.31v1H1221zm-.44 5.54a1.54 1.54 0 111.53 1.45 1.44 1.44 0 01-1.52-1.47z"/><path d="M216 54l-18 36h36z" fill="none" stroke="#000" stroke-linecap="round" stroke-linejoin="round" stroke-width="2"/><path d="M215 78.88l-.79-12.45h3.7l-.79 12.45zm-.6 5.31v-3h3.32v3z"/><g fill="none" stroke="#000" stroke-linecap="round" stroke-linejoin="round" stroke-width="2"><path d="M63 81h27m-27 9l-9-9 9-9m18-9H54m27-9l9 9-9 9m288 0a9 9 0 10-9 9 9 9 0 009-9zm-9 9h-15.57a18 18 0 0031.14 0zm-18-9a18 18 0 0136 0M81 216a9 9 0 10-9 9 9 9 0 009-9zm-9 9H56.43a18 18 0 0031.14 0zm-18-9a18 18 0 0136 0M495 76l6 6 12-15"/><rect height="36" rx="5" width="36" x="486" y="54"/><path d="M490 60h28m256-1a5 5 0 015-5h26a5 5 0 015 5v26a5 5 0 01-5 5h-26a5 5 0 01-5-5m0-22h9m-9 9h9"/><circle cx="796.5" cy="67.5" r="4.5"/><path d="M774 81h14l2.17-4.89A6.92 6.92 0 01796.5 72a6.92 6.92 0 016.33 4.11L805 81m287.73-21.73a18 18 0 11-25.46 0M1080 54v18M954 54h-31.5a4.49 4.49 0 00-4.5 4.5 4.49 4.49 0 004.5 4.5H954v27h-31a5 5 0 01-5-5V59m5-.5h31"/><circle cx="202.5" cy="229.5" r="4.5"/><path d="M202.5 211.5v9"/><circle cx="229.5" cy="229.5" r="4.5"/><path d="M229.5 211.5v9m-9-18h-9"/><circle cx="202.5" cy="202.5" r="4.5"/><circle cx="216" cy="216" r="4.5"/><circle cx="229.5" cy="202.5" r="4.5"/><path d="M218.92 212.58l7.16-7.16m-13 7.16l-7.16-7.16m13 14l7.16 7.16m-13-7.16l-7.16 7.16m14.58 2.92h-9"/><circle cx="645.69" cy="69.69" r="16"/><path d="M657 81l8.69 8.69"/><circle cx="1224" cy="72" r="18"/><path d="M1224 59v13l6.01 6.01"/><circle cx="1368" cy="72" r="18"/><path d="M1368 63v18m-9-9h18M504 206.69h18v18h-18zm-18 0h18v18h-18zm0-9h36m-36 36h36m-9-18h-18"/><circle cx="936" cy="215.69" r="18"/><path d="M945 206.69l-18 18m144-7.5l6 6 12-15"/><circle cx="1080" cy="215.69" r="18"/><path d="M342 234v-36h27l9 9v27"/><path d="M355.75 211.5l-6.5 6.5 6.5 6.5m8.5-13l6.5 6.5-6.5 6.5m1017.25-7.6v-16.66l-3-2.55-3 2.55-3 2.56 3 2.56-3 2.55 3 2.56-3 2.56v3.87a9 9 0 109 0zm-4.5 10.79a3 3 0 113-3 3 3 0 01-3 3zm-22.5-13.22v16.66l3 2.56 3-2.56 3-2.56-3-2.55 3-2.56-3-2.56 3-2.55v-3.88a9 9 0 10-9 0zm4.5-10.78a3 3 0 11-3 3 3 3 0 013-3z"/><rect height="36" rx="5" width="36" x="630" y="197.69"/><circle cx="648" cy="215.69" r="4.5"/><path d="M662 206.69h4m-4 18h4"/><circle cx="648" cy="215.69" r="11.58"/><path d="M648 204.11v2.57m0 18.01v2.57m11.58-11.57H657m-18 0h-2.58m19.76-8.19l-.9.91m-14.56 14.55l-.9.91m16.36 0l-.9-.91m-14.56-14.55l-.9-.91M783 197.69h27v27h-27z"/><path d="M774 206.69v27h27m-9-27h9v9m-18 9l18-18"/></g><path d="M135 351h18v18h-18zm72 18v-18h9l9 9v9zm216 0l9-9-9-9zm18-9l-9-9v18zm-162-9l9 9-9 9zm18 0l-9 9 9 9z"/><circle cx="360" cy="360" r="9"/><path d="M495 369l4.5-4.5 4.5 4.5 4.5-4.5 4.5 4.5v-18h-18zm79.2-18v10.8H585V351zm-3.6 7.2H567V369h10.8v-3.6h-7.2zM720 351a9 9 0 109 9h-9zm63 0h4.5v18H783zm6.75 6.75h4.5V369h-4.5zm6.75-4.5h4.5V369h-4.5zm58.5 6.07v5.18c0 2.49 4 4.5 9 4.5s9-2 9-4.5v-5.18c-2 1.64-5.19 2.68-9 2.68s-7-1-9-2.68zm9 .68c5 0 9-2 9-4.5s-4-4.5-9-4.5-9 2-9 4.5 4 4.5 9 4.5zm-225 9l18-18v18zm432 0l9-9-9-9zm18-9l-9-9v18zm-148.5 0h-9l4.5 9zm-10.8-3.6h12.6l2.7-5.4h-18zm289.8 3.6c0-3.33.91-6.23 2.25-7.79a3 3 0 00-2.25-1.21c-2.49 0-4.5 4-4.5 9s2 9 4.5 9a3 3 0 002.25-1.21c-1.34-1.56-2.25-4.46-2.25-7.79z"/><ellipse cx="1228.5" cy="360" rx="4.5" ry="9"/><path d="M1363.5 369l2.12-2.12v-7.41a4.72 4.72 0 001.06-.79 4.5 4.5 0 10-6.36 0 4.72 4.72 0 001.06.79v7.41zm-1.06-14.56a1.5 1.5 0 110 2.12 1.49 1.49 0 010-2.12zm10.06-3.44l-2.12 2.12v7.41a4.72 4.72 0 00-1.06.79 4.5 4.5 0 106.36 0 4.72 4.72 0 00-1.06-.79v-7.41zm1.06 14.56a1.5 1.5 0 110-2.12 1.49 1.49 0 010 2.12zm-363.3-5.56l-.34-.45a4.5 4.5 0 10-3.84 0l-.34.45a7 7 0 00-6.74 7v2h18v-2a7 7 0 00-6.74-7zm132.74 0l6 6 3-15zm12-6l-3 15 9-9zm144-3h-12v18h18v-12h-6zM78.75 357.75a6.75 6.75 0 00-13.5 0h3.37a3.38 3.38 0 016.76 0zM63 360h18v9H63z"/></svg>