<svg id="Layer_1" data-name="Layer 1" xmlns="http://www.w3.org/2000/svg" viewBox="0 0 414 162"><defs><linearGradient id="linear-gradient" x1="39.01" y1="122.98" x2="122.98" y2="39.01" gradientUnits="userSpaceOnUse"><stop offset=".21" stop-color="#fff"/><stop offset=".42" stop-color="#fff" stop-opacity="0"/><stop offset=".59" stop-color="#fff" stop-opacity="0"/><stop offset=".81" stop-color="#fff"/></linearGradient><style>.cls-1{fill:#fff}</style></defs><path class="cls-1" d="M207.21 54.75v52.5a.76.76 0 01-.75.75H201a7.49 7.49 0 01-6.3-3.43l-24.78-38.3.85 19.13v21.85a.76.76 0 01-.75.75h-7.22a.76.76 0 01-.75-.75v-52.5a.76.76 0 01.75-.75h5.43a7.52 7.52 0 016.3 3.42l24.78 38.24-.77-19.06V54.75a.75.75 0 01.75-.75h7.22a.76.76 0 01.7.75zM281 108h-7.64a.75.75 0 01-.7-1l20.24-52.28A1.14 1.14 0 01294 54h9.57a1.14 1.14 0 011.05.72L324.8 107a.75.75 0 01-.7 1h-7.64a.76.76 0 01-.71-.48l-16.31-43a.75.75 0 00-1.41 0l-16.31 43a.76.76 0 01-.72.48zm96.84-1.21L362.66 87.4c8.57-1.62 13.58-7.4 13.58-16.27 0-10.19-6.63-17.13-18.36-17.13h-21.17a1.12 1.12 0 00-1.12 1.12 7.2 7.2 0 007.2 7.2H357c7.09 0 10.49 3.63 10.49 8.87s-3.32 9-10.49 9h-20.29a1.13 1.13 0 00-1.12 1.13v26a.75.75 0 00.75.75h7.22a.76.76 0 00.75-.75V87.87h8.33l13.17 17.19a7.51 7.51 0 006 2.94h5.48a.75.75 0 00.55-1.21zM258.17 54h-33.5a1 1 0 00-1 1 7.33 7.33 0 007.33 7.33h27.17a.74.74 0 00.75-.75v-6.83a.75.75 0 00-.75-.75zm0 45.67h-25a.76.76 0 01-.75-.75V85.38a.75.75 0 01.75-.75h23.11a.75.75 0 00.75-.75V77a.75.75 0 00-.75-.75h-31.49a1.13 1.13 0 00-1.12 1.13v29.45a1.12 1.12 0 001.12 1.13h33.38a.75.75 0 00.75-.75v-6.83a.74.74 0 00-.75-.71z"/><path d="M46.29 126a10.29 10.29 0 007.79-3.57l70.35-81.61a10.29 10.29 0 00-8.72-4.82 10.28 10.28 0 00-7.75 3.53l-70.69 81.13a10.27 10.27 0 009.02 5.34z" fill="url(#linear-gradient)"/><path class="cls-1" d="M46.29 126a10.18 10.18 0 004.71-1.15V56.72l54.65 65.58a10.32 10.32 0 007.91 3.7h2.15A10.29 10.29 0 00126 115.71V46.29A10.29 10.29 0 00115.71 36a10.32 10.32 0 00-4.71 1.13v68.15L56.35 39.7a10.32 10.32 0 00-7.91-3.7h-2.15A10.29 10.29 0 0036 46.29v69.42A10.29 10.29 0 0046.29 126z"/></svg>