<svg id="Layer_1" data-name="Layer 1" xmlns="http://www.w3.org/2000/svg" viewBox="0 0 468 180.5"><defs><linearGradient id="linear-gradient" x1="40.09" y1="-2226.37" x2="140.87" y2="-2125.6" gradientTransform="matrix(1 0 0 -1 0 -2086)" gradientUnits="userSpaceOnUse"><stop offset=".21" stop-color="#fff"/><stop offset=".42" stop-color="#fff" stop-opacity="0"/><stop offset=".59" stop-color="#fff" stop-opacity="0"/><stop offset=".81" stop-color="#fff"/></linearGradient><linearGradient id="linear-gradient-2" x1="40.11" y1="140.37" x2="140.87" y2="39.61" gradientUnits="userSpaceOnUse"><stop offset=".21" stop-color="#fff"/><stop offset=".42" stop-color="#fff" stop-opacity="0"/><stop offset=".59" stop-color="#fff" stop-opacity="0"/><stop offset=".81" stop-color="#fff"/></linearGradient><style>.cls-3{fill:#fff}</style></defs><g opacity=".1"><path d="M48.84 144a12.33 12.33 0 009.35-4.29l84.42-97.92a12.31 12.31 0 00-10.5-5.79 12.38 12.38 0 00-9.32 4.23L38 137.59A12.36 12.36 0 0048.84 144z" fill="url(#linear-gradient)"/><path class="cls-3" d="M48.84 144a12.26 12.26 0 005.66-1.38V60.86l65.58 78.64a12.33 12.33 0 009.42 4.5h2.59a12.34 12.34 0 0012.41-12.25v-83.4A12.34 12.34 0 00132.18 36a12.47 12.47 0 00-5.65 1.35v81.79L60.92 40.5A12.33 12.33 0 0051.5 36h-2.66A12.34 12.34 0 0036.5 48.32v83.33A12.34 12.34 0 0048.81 144zM417 36H153.46A18.88 18.88 0 01158 48.35v83.31a19.06 19.06 0 01-4.53 12.34H417a15 15 0 0015-15V51a15 15 0 00-15-15z"/></g><text transform="translate(182 117)" font-size="72" font-family="Helvetica,Helvetica" font-weight="500" fill="#fff"><tspan letter-spacing="-.03em">W</tspan><tspan x="71.06" y="0">all</tspan><tspan x="149.18" y="0" letter-spacing="-.01em">e</tspan><tspan x="190.22" y="0" letter-spacing="0">t</tspan></text><path d="M48.84 144a12.32 12.32 0 009.35-4.28l84.42-97.93A12.32 12.32 0 00132.16 36a12.31 12.31 0 00-9.31 4.24L38 137.59A12.34 12.34 0 0048.84 144z" fill="url(#linear-gradient-2)"/><path class="cls-3" d="M48.84 144a12.38 12.38 0 005.66-1.37V60.86l65.58 78.7a12.37 12.37 0 009.49 4.44h2.59a12.35 12.35 0 0012.34-12.34V48.34A12.35 12.35 0 00132.16 36a12.45 12.45 0 00-5.62 1.35v81.79l-65.62-78.7A12.37 12.37 0 0051.43 36h-2.59A12.35 12.35 0 0036.5 48.34v83.32A12.35 12.35 0 0048.84 144z"/></svg>