<svg width="100" height="100" viewBox="0 0 100 100" fill="none" xmlns="http://www.w3.org/2000/svg">
<rect width="100" height="100" rx="50" fill="#497561"/>
<path fill-rule="evenodd" clip-rule="evenodd" d="M70.2161 18.3929C71.905 18.3921 73.4713 19.2592 74.3164 20.6627L80.1744 30.392C81.0092 31.7785 81.0135 33.4783 80.1858 34.8558L74.2984 44.6537C73.4707 46.0312 71.9356 46.8788 70.2672 46.8795L69.015 46.8801C69.4949 48.9567 69.4955 51.0823 69.056 53.1157L69.9003 53.1153C71.5892 53.1145 73.1554 53.9816 74.0005 55.3852L79.8586 65.1145C80.6934 66.5009 80.6977 68.2008 79.87 69.5782L73.9826 79.3762C73.1549 80.7536 71.6198 81.6012 69.9514 81.602L58.244 81.6072C56.5551 81.6079 54.9889 80.7408 54.1438 79.3373L48.2858 69.608C47.451 68.2215 47.4466 66.5217 48.2743 65.1442L48.8578 64.1732C46.8288 63.5071 44.9377 62.4374 43.3278 61.0007L42.576 62.2519C41.7483 63.6294 40.2132 64.477 38.5448 64.4777L26.8375 64.4829C25.1485 64.4837 23.5823 63.6166 22.7372 62.2131L16.8792 52.4837C16.0444 51.0973 16.04 49.3974 16.8677 48.02L22.7552 38.222C23.5829 36.8446 25.118 35.997 26.7863 35.9962L38.4937 35.991C40.1826 35.9903 41.7489 36.8573 42.594 38.2609L43.2184 39.298C44.0811 38.5148 45.0519 37.815 46.1249 37.2197C47.1242 36.6654 48.1611 36.23 49.2178 35.909L48.6016 34.8855C47.7668 33.4991 47.7624 31.7992 48.5901 30.4218L54.4776 20.6239C55.3053 19.2464 56.8404 18.3988 58.5087 18.398L70.2161 18.3929ZM59.1794 39.9126C58.9021 39.6752 58.6617 39.3942 58.4706 39.0767L56.256 35.3986C56.2559 35.3986 56.256 35.3986 56.256 35.3986L55.6079 34.3224C54.9818 33.2825 54.9785 32.0077 55.5993 30.9746L58.4862 26.1703C59.1069 25.1372 60.2583 24.5015 61.5095 24.5009L67.2303 24.4984C68.497 24.4978 69.6717 25.1481 70.3055 26.2008L73.168 30.955C73.7941 31.9948 73.7974 33.2697 73.1766 34.3028L70.2897 39.1071C69.669 40.1402 68.5176 40.7759 67.2664 40.7765L61.5456 40.779C60.9122 40.7793 60.3019 40.6169 59.7707 40.3228C59.56 40.2061 59.3617 40.0688 59.1794 39.9126ZM52.3224 41.0652C51.2203 41.2401 50.1318 41.6052 49.1076 42.1734C48.0048 42.7852 47.0774 43.5764 46.3424 44.4865L48.452 47.9902C49.2868 49.3767 49.2912 51.0765 48.4635 52.454L46.4372 55.8261C47.8515 57.524 49.8121 58.6354 51.9299 59.0606L54.1618 55.3463C54.9895 53.9688 56.5246 53.1212 58.1929 53.1205L62.8836 53.1184C63.6032 51.1385 63.6146 48.9319 62.8107 46.8828L58.5599 46.8847C56.8709 46.8855 55.3047 46.0184 54.4596 44.6149L52.3224 41.0652ZM38.5831 43.7989L41.4456 48.5532C41.4554 48.5693 41.465 48.5857 41.4744 48.602C41.7304 49.0438 41.8755 49.5261 41.9097 50.0131C41.9551 50.6623 41.8034 51.3199 41.4542 51.901L38.5673 56.7053C37.9466 57.7384 36.7952 58.3741 35.544 58.3747L29.8232 58.3772C28.5565 58.3778 27.3818 57.7275 26.748 56.6748L23.8855 51.9206C23.2594 50.8807 23.2561 49.6059 23.8769 48.5728L26.7638 43.7684C27.3845 42.7353 28.5359 42.0996 29.7871 42.0991L35.5079 42.0965C36.7746 42.096 37.9493 42.7463 38.5831 43.7989ZM55.2835 65.6971L58.1701 60.8933L58.1704 60.8928C58.1994 60.8445 58.2296 60.7971 58.2608 60.7506C58.899 59.802 60.0008 59.2245 61.1935 59.2239L66.1267 59.2217L66.1271 59.2212L66.9146 59.2209C68.1813 59.2203 69.3559 59.8706 69.9897 60.9233L72.8523 65.6775C73.4784 66.7173 73.4816 67.9922 72.8609 69.0253L69.974 73.8297C69.3532 74.8627 68.2019 75.4984 66.9506 75.499L61.2298 75.5015C59.9631 75.5021 58.7885 74.8518 58.1547 73.7991L55.2921 69.0449C54.666 68.0051 54.6628 66.7302 55.2835 65.6971Z" fill="white"/>
</svg>
