<svg xmlns="http://www.w3.org/2000/svg" viewBox="0 0 112 112"><defs><style>.cls-1{fill:#63cfe3;}.cls-2{fill:#24272a;}.cls-3{fill:#fff;}</style></defs><title>app-explorer</title><g id="Layer_2" data-name="Layer 2"><g id="Layer_1-2" data-name="Layer 1"><rect class="cls-1" x="20" y="20" width="72" height="27" rx="3"/><rect class="cls-1" x="65" y="65" width="9" height="9"/><rect class="cls-1" x="83" y="65" width="9" height="9"/><rect class="cls-1" x="65" y="83" width="9" height="9"/><rect class="cls-1" x="83" y="83" width="9" height="9"/><rect class="cls-2" x="2" y="2" width="108" height="9"/><path class="cls-2" d="M107,112H5a5,5,0,0,1-5-5V5A5,5,0,0,1,5,0H107a5,5,0,0,1,5,5V107A5,5,0,0,1,107,112ZM5,4A1,1,0,0,0,4,5V107a1,1,0,0,0,1,1H107a1,1,0,0,0,1-1V5a1,1,0,0,0-1-1Z"/><path class="cls-2" d="M110,13H2A2,2,0,0,1,2,9H110a2,2,0,0,1,0,4Z"/><path class="cls-3" d="M6,9a2,2,0,0,1-1.41-.59,1.88,1.88,0,0,1-.44-.64A2,2,0,0,1,4,7a1.72,1.72,0,0,1,0-.39,1.82,1.82,0,0,1,.11-.38,1.63,1.63,0,0,1,.19-.34,1.42,1.42,0,0,1,.25-.3,1.42,1.42,0,0,1,.3-.25,1.63,1.63,0,0,1,.34-.19A1.82,1.82,0,0,1,5.61,5a2,2,0,0,1,.78,0,1.82,1.82,0,0,1,.38.11,1.63,1.63,0,0,1,.34.19,1.42,1.42,0,0,1,.3.25,1.42,1.42,0,0,1,.25.3,2.27,2.27,0,0,1,.19.34A2.72,2.72,0,0,1,8,6.61,1.72,1.72,0,0,1,8,7a2,2,0,0,1-.15.77,1.88,1.88,0,0,1-.44.64A2,2,0,0,1,6,9Z"/><path class="cls-3" d="M15,9a2,2,0,0,1-.77-.15,1.88,1.88,0,0,1-.64-.44A2,2,0,0,1,13,7a1.72,1.72,0,0,1,0-.39,1.82,1.82,0,0,1,.11-.38,2.27,2.27,0,0,1,.19-.34,1.42,1.42,0,0,1,.25-.3,2,2,0,0,1,2.82,0,1.42,1.42,0,0,1,.25.3,2.27,2.27,0,0,1,.19.34,2.72,2.72,0,0,1,.11.38A1.72,1.72,0,0,1,17,7a2,2,0,0,1-.59,1.41,1.92,1.92,0,0,1-.65.44A1.94,1.94,0,0,1,15,9Z"/><path class="cls-3" d="M24,9a2,2,0,0,1-.77-.15,1.88,1.88,0,0,1-.64-.44A2,2,0,0,1,22,7a1.72,1.72,0,0,1,0-.39,1.82,1.82,0,0,1,.11-.38,1.63,1.63,0,0,1,.19-.34,1.42,1.42,0,0,1,.25-.3A2,2,0,0,1,24.39,5a1.82,1.82,0,0,1,.38.11,1.63,1.63,0,0,1,.34.19,1.42,1.42,0,0,1,.3.25,1.42,1.42,0,0,1,.25.3,2.27,2.27,0,0,1,.19.34,1.82,1.82,0,0,1,.11.38A1.72,1.72,0,0,1,26,7a2,2,0,0,1-.15.77,1.88,1.88,0,0,1-.44.64,1.42,1.42,0,0,1-.3.25,1.93,1.93,0,0,1-.34.19,1.66,1.66,0,0,1-.38.11A1.72,1.72,0,0,1,24,9Z"/><path class="cls-2" d="M29,67H20a2,2,0,0,1,0-4h9a2,2,0,0,1,0,4Z"/><path class="cls-2" d="M47,76H29a2,2,0,0,1,0-4H47a2,2,0,0,1,0,4Z"/><path class="cls-2" d="M47,85H29a2,2,0,0,1,0-4H47a2,2,0,0,1,0,4Z"/><path class="cls-2" d="M47,94H29a2,2,0,0,1,0-4H47a2,2,0,0,1,0,4Z"/><path class="cls-2" d="M20,76a2,2,0,0,1-1.41-.59,1.87,1.87,0,0,1-.26-.3,2.21,2.21,0,0,1-.18-.34A2.2,2.2,0,0,1,18,74a1.72,1.72,0,0,1,0-.39,1.82,1.82,0,0,1,.11-.38,1.63,1.63,0,0,1,.19-.34,2.16,2.16,0,0,1,.55-.55,2.27,2.27,0,0,1,.34-.19,1.82,1.82,0,0,1,.38-.11,2,2,0,0,1,1.8.55,1.42,1.42,0,0,1,.25.3,2.27,2.27,0,0,1,.19.34,2.72,2.72,0,0,1,.11.38A2.58,2.58,0,0,1,22,74a2,2,0,0,1-.59,1.41,1.42,1.42,0,0,1-.3.25,1.93,1.93,0,0,1-.34.19A2.2,2.2,0,0,1,20,76Z"/><path class="cls-2" d="M20,85a1.72,1.72,0,0,1-.39,0,1.82,1.82,0,0,1-.38-.11,1.93,1.93,0,0,1-.34-.19,1.42,1.42,0,0,1-.3-.25A2,2,0,0,1,18,83a1.72,1.72,0,0,1,0-.39,1.82,1.82,0,0,1,.11-.38,1.63,1.63,0,0,1,.19-.34,1.42,1.42,0,0,1,.25-.3,2,2,0,0,1,2.82,0,1.42,1.42,0,0,1,.25.3,2.27,2.27,0,0,1,.19.34,2.72,2.72,0,0,1,.11.38A1.72,1.72,0,0,1,22,83a2,2,0,0,1-.59,1.41,1.42,1.42,0,0,1-.3.25,1.7,1.7,0,0,1-.35.19,1.58,1.58,0,0,1-.37.11A1.72,1.72,0,0,1,20,85Z"/><path class="cls-2" d="M20,94a2.2,2.2,0,0,1-.77-.15,1.63,1.63,0,0,1-.34-.19,1.42,1.42,0,0,1-.3-.25,2,2,0,0,1,0-2.82,2,2,0,0,1,1.8-.55,2.72,2.72,0,0,1,.38.11,2.27,2.27,0,0,1,.34.19,1.42,1.42,0,0,1,.3.25A2,2,0,0,1,22,92a1.72,1.72,0,0,1,0,.39,1.66,1.66,0,0,1-.11.38,1.63,1.63,0,0,1-.19.34,1.42,1.42,0,0,1-.25.3,1.88,1.88,0,0,1-.64.44A2.07,2.07,0,0,1,20,94Z"/><path class="cls-2" d="M20,40a2,2,0,0,1-1.11-3.66l9-6a2,2,0,0,1,2.22,0L38,35.6,54.89,24.34a2,2,0,0,1,2.22,0L65,29.6,81.89,18.34A2,2,0,0,1,83,18h9a2,2,0,0,1,0,4H83.61L66.11,33.66a2,2,0,0,1-2.22,0L56,28.4,39.11,39.66a2,2,0,0,1-2.22,0L29,34.4l-7.89,5.26A2,2,0,0,1,20,40Z"/><path class="cls-2" d="M92,49H20a2,2,0,0,1,0-4H92a2,2,0,0,1,0,4Z"/><path class="cls-2" d="M74,76H65a2,2,0,0,1-2-2V65a2,2,0,0,1,2-2h9a2,2,0,0,1,2,2v9A2,2,0,0,1,74,76Zm-7-4h5V67H67Z"/><path class="cls-2" d="M92,76H83a2,2,0,0,1-2-2V65a2,2,0,0,1,2-2h9a2,2,0,0,1,2,2v9A2,2,0,0,1,92,76Zm-7-4h5V67H85Z"/><path class="cls-2" d="M74,94H65a2,2,0,0,1-2-2V83a2,2,0,0,1,2-2h9a2,2,0,0,1,2,2v9A2,2,0,0,1,74,94Zm-7-4h5V85H67Z"/><path class="cls-2" d="M92,94H83a2,2,0,0,1-2-2V83a2,2,0,0,1,2-2h9a2,2,0,0,1,2,2v9A2,2,0,0,1,92,94Zm-7-4h5V85H85Z"/></g></g></svg>