<svg xmlns="http://www.w3.org/2000/svg" viewBox="0 0 112 111.25"><defs><style>.cls-1{fill:#f0ec73;}.cls-2{fill:#24272a;}</style></defs><title>self-sov</title><g id="Layer_2" data-name="Layer 2"><g id="Layer_1-2" data-name="Layer 1"><path class="cls-1" d="M31,18.56l7.82,11.73A4.49,4.49,0,0,1,46.5,33.5,4.48,4.48,0,0,1,50.61,29L47.17,11.87A44.73,44.73,0,0,0,31,18.56ZM69,29A4.47,4.47,0,0,1,72.7,31L81,18.56a44.73,44.73,0,0,0-16.13-6.69L61.35,29.23a4.59,4.59,0,0,1,1.87,1.13c.66.24,1.31.52,1.94.82A4.49,4.49,0,0,1,69,29Zm9,22.5v.1l22.13-4.43A44.73,44.73,0,0,0,93.44,31L76.15,42.56A22.38,22.38,0,0,1,78,51.5ZM37.5,47V43.67L18.56,31a44.73,44.73,0,0,0-6.69,16.13L33,51.4C33.34,47.84,37.5,47,37.5,47ZM31,93.44A44.76,44.76,0,0,0,46.5,100V72.18c-.33-.14-.66-.3-1-.46ZM64.5,72.12V98.5l.33,1.63A44.73,44.73,0,0,0,81,93.44L66.19,71.29C65.64,71.59,65.08,71.87,64.5,72.12ZM34.44,60.31,11.87,64.83A44.73,44.73,0,0,0,18.56,81L39.13,67.25A21.24,21.24,0,0,1,34.44,60.31Zm37.62,6.4L93.44,81a44.73,44.73,0,0,0,6.69-16.13L76.3,60.06A22.57,22.57,0,0,1,72.06,66.71Z"/><path class="cls-2" d="M47,49a2,2,0,0,1-2-2V33.5a2.5,2.5,0,0,0-5,0V47a2,2,0,0,1-4,0V33.5a6.5,6.5,0,0,1,13,0V47A2,2,0,0,1,47,49Z"/><path class="cls-2" d="M56,53.5a2,2,0,0,1-2-2v-18a2.5,2.5,0,0,0-5,0V47a2,2,0,0,1-4,0V33.5a6.5,6.5,0,0,1,13,0v18A2,2,0,0,1,56,53.5Z"/><path class="cls-2" d="M60.5,58A6.51,6.51,0,0,1,54,51.5v-18a6.5,6.5,0,0,1,13,0v18A6.51,6.51,0,0,1,60.5,58Zm0-27A2.5,2.5,0,0,0,58,33.5v18a2.5,2.5,0,0,0,5,0v-18A2.5,2.5,0,0,0,60.5,31Z"/><path class="cls-2" d="M69.5,58A6.51,6.51,0,0,1,63,51.5v-18a6.5,6.5,0,0,1,13,0v18A6.51,6.51,0,0,1,69.5,58Zm0-27A2.5,2.5,0,0,0,67,33.5v18a2.5,2.5,0,0,0,5,0v-18A2.5,2.5,0,0,0,69.5,31Z"/><path class="cls-2" d="M56,67a2,2,0,0,1-2-2c0-3.31-6.56-7-11-7a2,2,0,0,1,0-4c5.9,0,15,4.72,15,11A2,2,0,0,1,56,67Z"/><path class="cls-2" d="M65,111.25a2,2,0,0,1-2-2V72.12a2,2,0,0,1,1.19-1.83A20.49,20.49,0,0,0,72.41,39.2a2,2,0,1,1,3.19-2.4,24.59,24.59,0,0,1-2.28,32A24.31,24.31,0,0,1,67,73.39v35.86A2,2,0,0,1,65,111.25Z"/><path class="cls-2" d="M47,111.25a2,2,0,0,1-2-2V73.52a23,23,0,0,1-6.36-4.73c-2.43-2.57-5.08-6.83-7.87-12.68a7.75,7.75,0,0,1,7-11.11H51.9A6.1,6.1,0,0,1,57,47.75,2,2,0,1,1,53.65,50a2.11,2.11,0,0,0-1.75-1H37.75a3.75,3.75,0,0,0-3.37,5.39c2.58,5.39,5,9.42,7.16,11.65a19.33,19.33,0,0,0,6.26,4.38A2,2,0,0,1,49,72.25v37A2,2,0,0,1,47,111.25Z"/><path class="cls-2" d="M51.15,58H43a2,2,0,0,1,0-4h8.15A2.86,2.86,0,0,0,54,51.15,2.11,2.11,0,0,0,51.9,49H37.75a2,2,0,0,1,0-4H51.9A6.11,6.11,0,0,1,58,51.1,6.86,6.86,0,0,1,51.15,58Z"/><path class="cls-2" d="M65,111.23a2,2,0,0,1-.33-4,52,52,0,0,0,28.1-88A52,52,0,0,0,19.23,92.77a51.64,51.64,0,0,0,28.1,14.49,2,2,0,0,1-.66,3.95A56,56,0,0,1,16.4,16.4,56,56,0,0,1,95.6,95.6a55.64,55.64,0,0,1-30.27,15.61Z"/></g></g></svg>