<?xml version="1.0" encoding="UTF-8" standalone="no"?>
<!-- Created with Inkscape (http://www.inkscape.org/) -->

<svg
   width="107.86797mm"
   height="92.985023mm"
   viewBox="0 0 107.86797 92.985023"
   version="1.1"
   id="svg1"
   inkscape:version="1.4 (e7c3feb1, 2024-10-09)"
   sodipodi:docname="biblioteca.svg"
   xml:space="preserve"
   xmlns:inkscape="http://www.inkscape.org/namespaces/inkscape"
   xmlns:sodipodi="http://sodipodi.sourceforge.net/DTD/sodipodi-0.dtd"
   xmlns="http://www.w3.org/2000/svg"
   xmlns:svg="http://www.w3.org/2000/svg"><sodipodi:namedview
     id="namedview1"
     pagecolor="#ffffff"
     bordercolor="#000000"
     borderopacity="0.25"
     inkscape:showpageshadow="2"
     inkscape:pageopacity="0.0"
     inkscape:pagecheckerboard="0"
     inkscape:deskcolor="#d1d1d1"
     inkscape:document-units="mm"
     showgrid="false"
     showguides="true"
     inkscape:zoom="0.61858217"
     inkscape:cx="1023.3079"
     inkscape:cy="2546.9535"
     inkscape:window-width="1352"
     inkscape:window-height="816"
     inkscape:window-x="0"
     inkscape:window-y="62"
     inkscape:window-maximized="0"
     inkscape:current-layer="layer2"
     inkscape:export-bgcolor="#d7d7d7ff"><inkscape:grid
       id="grid11"
       units="mm"
       originx="963.69743"
       originy="-2643.6571"
       spacingx="1"
       spacingy="0.99999998"
       empcolor="#0099e5"
       empopacity="0.30196078"
       color="#0099e5"
       opacity="0.14901961"
       empspacing="5"
       enabled="true"
       visible="false" /><inkscape:page
       x="0"
       y="0"
       width="107.86797"
       height="92.985023"
       id="page2"
       margin="0"
       bleed="0" /></sodipodi:namedview><defs
     id="defs1" /><g
     inkscape:groupmode="layer"
     id="layer2"
     inkscape:label="Mueble"
     style="display:inline"
     transform="translate(963.69746,-2643.6572)"><path
       style="fill:#32749d;fill-opacity:1"
       d="m -924.05553,2722.4871 c -7.78434,-7.7853 -13.9739,-14.1552 -13.75457,-14.1552 0.21933,0 6.61852,2.0741 14.22043,4.6091 l 13.82164,4.6091 13.82165,-4.6091 c 7.6019,-2.535 14.00109,-4.6091 14.22042,-4.6091 0.21933,0 -5.97022,6.3699 -13.75457,14.1552 -7.78434,7.7854 -14.21372,14.1552 -14.2875,14.1552 -0.0738,0 -6.50315,-6.3698 -14.2875,-14.1552 z m 0.26459,-15.6967 -13.89063,-4.6762 -0.72326,-1.4552 c -0.78333,-1.5761 -2.15886,-5.6509 -2.41148,-7.1438 l -0.1567,-0.926 3.05093,-1.6816 c 1.67801,-0.9249 2.97582,-1.7583 2.88401,-1.8521 -0.0918,-0.094 -1.55758,-0.5983 -3.25729,-1.1212 l -3.09038,-0.9507 0.0555,-1.9597 c 0.0849,-2.9982 0.56647,-5.486 1.09109,-5.636 0.24252,-0.069 1.63157,-0.2073 3.08678,-0.3064 1.45521,-0.099 2.80734,-0.2675 3.00474,-0.374 0.2531,-0.1367 -0.35058,-0.81 -2.04796,-2.2842 -1.32377,-1.1497 -2.40801,-2.2689 -2.40941,-2.4872 -0.003,-0.5192 2.24034,-4.4845 3.16232,-5.5889 l 0.71865,-0.8608 3.08531,1.098 c 1.69692,0.6039 3.08531,0.9959 3.08531,0.8711 0,-0.1248 -0.59532,-1.5019 -1.32292,-3.06 -0.7276,-1.5582 -1.32292,-2.8714 -1.32292,-2.9182 0,-0.2015 4.38415,-3.3657 5.33633,-3.8515 l 1.04635,-0.5338 2.33355,2.1304 c 1.28345,1.1717 2.42249,2.1303 2.5312,2.1303 0.10871,0 0.11243,-1.4277 0.008,-3.1727 l -0.18937,-3.1728 0.75069,-0.2938 c 1.18352,-0.4632 5.65593,-1.3339 6.39899,-1.2457 0.57796,0.069 0.84007,0.4621 1.85958,2.7918 0.65273,1.4916 1.26873,2.712 1.36887,2.712 0.10015,0 0.70998,-1.2204 1.3552,-2.712 1.01009,-2.3351 1.26668,-2.7231 1.84636,-2.7918 0.74521,-0.088 5.21663,0.7828 6.40534,1.2479 l 0.75657,0.2961 -0.1905,3.1705 c -0.10477,1.7438 -0.10908,3.1705 -0.01,3.1705 0.0995,0 1.18827,-0.9227 2.41945,-2.0505 1.23119,-1.1278 2.3587,-2.0919 2.50557,-2.1425 0.30797,-0.1061 3.86284,2.1936 5.35592,3.4648 l 1.01069,0.8605 -1.34671,2.8831 c -0.74069,1.5857 -1.29229,2.9375 -1.22579,3.004 0.0665,0.066 1.40856,-0.3081 2.98235,-0.8325 1.57379,-0.5245 2.98122,-0.9535 3.12763,-0.9535 0.32512,0 2.17241,2.7386 3.2908,4.8786 0.65472,1.2527 0.75276,1.6313 0.48368,1.8677 -0.18562,0.1631 -1.33636,1.1802 -2.5572,2.2603 l -2.21969,1.9639 0.86731,0.1773 c 0.47702,0.098 2.02737,0.2605 3.44522,0.3619 l 2.57792,0.1846 0.30892,1.495 c 0.1699,0.8223 0.37941,2.525 0.46557,3.7838 l 0.15665,2.2887 -3.14631,0.9763 c -1.73047,0.537 -3.22945,1.0549 -3.33107,1.1509 -0.10163,0.096 1.17829,0.9315 2.84427,1.8567 2.09814,1.1652 3.02904,1.8269 3.02904,2.1532 0,0.8863 -1.332,5.0686 -2.26272,7.1046 l -0.92987,2.0343 -13.81569,4.5977 c -7.59862,2.5287 -13.93474,4.6308 -14.08027,4.6713 -0.14552,0.041 -6.51536,-2.0306 -14.1552,-4.6025 z m -29.5895,0.8711 c -4.99118,-1.0834 -8.37263,-5.7822 -9.70405,-13.4848 -0.5542,-3.2062 -0.81655,-10.5174 -0.42817,-11.9324 0.92735,-3.3787 4.31947,-5.4771 9.44948,-5.8457 l 2.13923,-0.1537 0.71604,-2.2971 c 4.11436,-13.1986 14.602,-23.8446 27.85948,-28.2801 4.57827,-1.5317 7.81175,-2.0104 13.5804,-2.0104 5.76865,0 9.00214,0.4787 13.58041,2.0104 13.25747,4.4355 23.74512,15.0815 27.85947,28.2801 l 0.71605,2.2971 2.13922,0.1537 c 5.13002,0.3686 8.52214,2.467 9.44948,5.8457 0.19655,0.7161 0.2443,2.5226 0.14056,5.3178 -0.31425,8.4672 -1.7863,13.4353 -5.03366,16.9885 -2.46484,2.6969 -4.85589,3.5042 -10.40165,3.5121 -2.76303,0 -7.17399,-0.3847 -7.44812,-0.6562 -0.0477,-0.047 0.44887,-1.0193 1.10357,-2.16 6.03831,-10.5206 6.50155,-23.3127 1.24318,-34.3301 -3.45009,-7.2286 -10.04619,-13.8429 -17.2969,-17.3445 -5.23043,-2.526 -9.89226,-3.5599 -16.05161,-3.5599 -4.83907,0 -7.30894,0.3711 -11.44849,1.7203 -9.38989,3.0604 -17.66364,10.3081 -21.90001,19.1841 -5.25837,11.0174 -4.79513,23.8095 1.24317,34.3301 0.6547,1.1407 1.15131,2.1127 1.10358,2.16 -0.0477,0.047 -1.01814,0.2153 -2.15645,0.3734 -2.80719,0.3899 -8.40457,0.3265 -10.45421,-0.1184 z"
       id="path446" /></g></svg>
