<?xml version="1.0" encoding="UTF-8" standalone="no"?>
<svg
   fill="none"
   height="2500"
   width="2500"
   viewBox="0 0 500 500"
   version="1.1"
   id="svg2"
   sodipodi:docname="telegram.svg"
   inkscape:version="1.4 (e7c3feb1, 2024-10-09)"
   xmlns:inkscape="http://www.inkscape.org/namespaces/inkscape"
   xmlns:sodipodi="http://sodipodi.sourceforge.net/DTD/sodipodi-0.dtd"
   xmlns="http://www.w3.org/2000/svg"
   xmlns:svg="http://www.w3.org/2000/svg">
  <defs
     id="defs2" />
  <sodipodi:namedview
     id="namedview2"
     pagecolor="#ffffff"
     bordercolor="#000000"
     borderopacity="0.25"
     inkscape:showpageshadow="2"
     inkscape:pageopacity="0.0"
     inkscape:pagecheckerboard="0"
     inkscape:deskcolor="#d1d1d1"
     inkscape:zoom="0.022097737"
     inkscape:cx="67.880255"
     inkscape:cy="1402.8586"
     inkscape:window-width="1104"
     inkscape:window-height="245"
     inkscape:window-x="0"
     inkscape:window-y="117"
     inkscape:window-maximized="0"
     inkscape:current-layer="svg2" />
  <path
     d="M 250,451.83549 C 361.47051,451.83549 451.83549,361.47051 451.83549,250 451.83549,138.52949 361.47051,48.164509 250,48.164509 138.52949,48.164509 48.164509,138.52949 48.164509,250 48.164509,361.47051 138.52949,451.83549 250,451.83549 Z"
     fill="#34aadf"
     id="path1"
     style="stroke-width:0.807342" />
  <path
     d="m 132.16602,248.24968 c 0,0 100.91774,-41.41664 135.91763,-56.00047 13.41722,-5.83304 58.9174,-24.5004 58.9174,-24.5004 0,0 21.00058,-8.16627 19.25026,11.6669 -0.58371,8.16707 -5.25015,36.7502 -9.91658,67.66736 -7.00046,43.75067 -14.58383,91.58407 -14.58383,91.58407 0,0 -1.16661,13.41721 -11.08319,15.75043 -9.91658,2.33322 -26.25072,-8.16626 -29.16684,-10.50029 -2.33403,-1.74951 -43.75067,-28.00023 -58.9174,-40.83374 -4.08353,-3.49983 -8.74997,-10.49948 0.58291,-18.66655 21.00057,-19.25026 46.08388,-43.16696 61.25061,-58.33369 7.00046,-7.00046 14.00011,-23.3338 -15.16673,-3.50063 -41.41664,28.58394 -82.25038,55.41756 -82.25038,55.41756 0,0 -9.33368,5.83305 -26.83363,0.5829 -17.50075,-5.24933 -37.91762,-12.24979 -37.91762,-12.24979 0,0 -13.99931,-8.74998 9.91739,-18.08366 z"
     fill="#ffffff"
     id="path2"
     style="stroke-width:0.807342" />
</svg>
