<svg xmlns="http://www.w3.org/2000/svg" fill="none" viewBox="0 0 48 48" id="Toolsbox--Streamline-Kameleon" height="48" width="48">
  <desc>
    Toolsbox Streamline Icon: https://streamlinehq.com
  </desc>
  <path fill="#fabc3d" d="M24 48c13.254850909090909 0 24 -10.745149090909091 24 -24S37.254850909090905 0 24 0 0 10.745149090909091 0 24s10.745149090909091 24 24 24Z" stroke-width="0.4364"></path>
  <path fill="#3e3e3f" d="m19.2 15.272727272727272 1.0472727272727271 -1.3963636363636365c0.16494545454545453 -0.21992727272727272 0.42327272727272724 -0.3490909090909091 0.6981818181818182 -0.3490909090909091h6.1090909090909085c0.2749090909090909 0 0.5332363636363636 0.12916363636363634 0.6981818181818182 0.3490909090909091L28.799999999999997 15.272727272727272v1.7454545454545454h3.9272727272727272l-3.7095272727272723 -4.4513454545454545c-0.4145454545454545 -0.49745454545454537 -1.028509090909091 -0.7850181818181817 -1.6760727272727274 -0.7850181818181817H20.65832727272727c-0.6475636363636363 0 -1.2615272727272726 0.28756363636363635 -1.6760727272727274 0.7850181818181817L15.272727272727272 17.018181818181816h3.9272727272727272v-1.7454545454545454Z" stroke-width="0.4364"></path>
  <path fill="#df2c2c" d="M11.781818181818181 17.018181818181816c-0.9639272727272727 0 -1.7454545454545454 0.7815272727272726 -1.7454545454545454 1.7454545454545454v15.709090909090909c0 0.9639272727272727 0.7815272727272726 1.7454545454545454 1.7454545454545454 1.7454545454545454h24.436363636363634c0.9639272727272727 0 1.7454545454545454 -0.7815272727272726 1.7454545454545454 -1.7454545454545454V18.763636363636362c0 -0.9639272727272727 -0.7815272727272726 -1.7454545454545454 -1.7454545454545454 -1.7454545454545454H11.781818181818181Z" stroke-width="0.4364"></path>
  <path fill="#f0f1f1" d="M19.2 15.272727272727272v1.7454545454545454h-3.9272727272727272l1.453090909090909 -1.7454545454545454H19.2Z" stroke-width="0.4364"></path>
  <path fill="#f0f1f1" d="M28.799999999999997 15.272727272727272v1.7454545454545454h3.9272727272727272l-1.453090909090909 -1.7454545454545454H28.799999999999997Z" stroke-width="0.4364"></path>
  <path fill="#fa5655" d="M11.781818181818181 17.018181818181816c-0.9639272727272727 0 -1.7454545454545454 0.7815272727272726 -1.7454545454545454 1.7454545454545454v15.709090909090909c0 0.47519999999999996 0.19112727272727273 0.9054545454545455 0.4996363636363636 1.2200727272727272L29.21061818181818 17.018181818181816H11.781818181818181Z" stroke-width="0.4364"></path>
  <path fill="#ffffff" d="M30.10909090909091 25.22181818181818h2.960290909090909c-0.5389090909090909 -1.2322909090909089 -1.767272727272727 -2.0945454545454543 -3.1985454545454544 -2.0945454545454543 -1.431272727272727 0 -2.6596363636363636 0.8622545454545454 -3.1985454545454544 2.0945454545454543h-5.415272727272727c-0.5389090909090909 -1.2322909090909089 -1.767272727272727 -2.0945454545454543 -3.1985454545454544 -2.0945454545454543 -1.431272727272727 0 -2.6596363636363636 0.8622545454545454 -3.1985454545454544 2.0945454545454543H17.89090909090909v2.792727272727273h-3.030981818181818c0.5389090909090909 1.2322909090909089 1.767272727272727 2.0945454545454543 3.1985454545454544 2.0945454545454543 1.431272727272727 0 2.6596363636363636 -0.8622545454545454 3.1985454545454544 -2.0945454545454543h5.415272727272727c0.5389090909090909 1.2322909090909089 1.767272727272727 2.0945454545454543 3.1985454545454544 2.0945454545454543 1.431272727272727 0 2.6596363636363636 -0.8622545454545454 3.1985454545454544 -2.0945454545454543H30.10909090909091v-2.792727272727273Z" stroke-width="0.4364"></path>
</svg>