<?xml version="1.0" encoding="UTF-8" standalone="no"?>
<svg
   fill="none"
   viewBox="0 0 48 48"
   id="Toolsbox--Streamline-Kameleon"
   height="48"
   width="48"
   version="1.1"
   sodipodi:docname="toolbox.svg"
   inkscape:version="1.4 (e7c3feb1, 2024-10-09)"
   xmlns:inkscape="http://www.inkscape.org/namespaces/inkscape"
   xmlns:sodipodi="http://sodipodi.sourceforge.net/DTD/sodipodi-0.dtd"
   xmlns="http://www.w3.org/2000/svg"
   xmlns:svg="http://www.w3.org/2000/svg">
  <defs
     id="defs7" />
  <sodipodi:namedview
     id="namedview7"
     pagecolor="#ffffff"
     bordercolor="#000000"
     borderopacity="0.25"
     inkscape:showpageshadow="2"
     inkscape:pageopacity="0.0"
     inkscape:pagecheckerboard="0"
     inkscape:deskcolor="#d1d1d1"
     inkscape:zoom="3.3273694"
     inkscape:cx="35.61372"
     inkscape:cy="24.944631"
     inkscape:window-width="1104"
     inkscape:window-height="601"
     inkscape:window-x="0"
     inkscape:window-y="117"
     inkscape:window-maximized="0"
     inkscape:current-layer="Toolsbox--Streamline-Kameleon" />
  <desc
     id="desc1">
    Toolsbox Streamline Icon: https://streamlinehq.com
  </desc>
  <path
     fill="#3e3e3f"
     d="m 16.838632,10.979331 1.56248,-2.0833067 c 0.246091,-0.3281208 0.631503,-0.5208267 1.041654,-0.5208267 h 9.114468 c 0.410151,0 0.795563,0.1927059 1.041654,0.5208267 l 1.56248,2.0833067 v 2.604134 h 5.859301 L 31.486233,6.942273 C 30.867752,6.2000949 29.951748,5.7710638 28.985614,5.7710638 h -9.971228 c -0.966134,0 -1.882138,0.4290311 -2.500619,1.1712092 l -5.534436,6.641192 h 5.859301 z"
     stroke-width="0.651088"
     id="path2" />
  <path
     fill="#df2c2c"
     d="m 5.7710638,13.583465 c -1.4381328,0 -2.6041337,1.166001 -2.6041337,2.604134 v 23.437203 c 0,1.438133 1.1660009,2.604134 2.6041337,2.604134 H 42.228936 c 1.438133,0 2.604134,-1.166001 2.604134,-2.604134 V 16.187599 c 0,-1.438133 -1.166001,-2.604134 -2.604134,-2.604134 z"
     stroke-width="0.651088"
     id="path3"
     style="fill:#3b82f6;fill-opacity:1" />
  <path
     fill="#f0f1f1"
     d="m 16.838632,10.979331 v 2.604134 h -5.859301 l 2.167942,-2.604134 z"
     stroke-width="0.651088"
     id="path4" />
  <path
     fill="#f0f1f1"
     d="m 31.161368,10.979331 v 2.604134 h 5.859301 l -2.167942,-2.604134 z"
     stroke-width="0.651088"
     id="path5" />
  <path
     fill="#fa5655"
     d="m 5.7710638,13.583465 c -1.4381328,0 -2.6041337,1.166001 -2.6041337,2.604134 v 23.437203 c 0,0.708976 0.2851526,1.350895 0.7454333,1.82029 L 31.77399,13.583465 Z"
     stroke-width="0.651088"
     id="path6"
     style="fill:#699ff8;fill-opacity:1" />
  <path
     fill="#ffffff"
     d="m 33.114468,25.822894 h 4.416611 c -0.804026,-1.838519 -2.636686,-3.124961 -4.772075,-3.124961 -2.13539,0 -3.968049,1.286442 -4.772075,3.124961 h -8.079325 c -0.804026,-1.838519 -2.636686,-3.124961 -4.772075,-3.124961 -2.13539,0 -3.968049,1.286442 -4.772075,3.124961 h 4.522078 v 4.166614 h -4.522078 c 0.804026,1.838518 2.636685,3.12496 4.772075,3.12496 2.135389,0 3.968049,-1.286442 4.772075,-3.12496 h 8.079325 c 0.804026,1.838518 2.636685,3.12496 4.772075,3.12496 2.135389,0 3.968049,-1.286442 4.772075,-3.12496 h -4.416611 z"
     stroke-width="0.651088"
     id="path7" />
</svg>
