<svg viewBox="0 0 112 112" xmlns="http://www.w3.org/2000/svg"><g fill="#f0ec73"><circle cx="60" cy="60" r="18"/><circle cx="96.5" cy="15.5" r="4.5"/><circle cx="15.5" cy="15.5" r="4.5"/><circle cx="96.5" cy="96.5" r="4.5"/><circle cx="15.5" cy="96.5" r="4.5"/></g><path d="m64.17 47.31a1.83 1.83 0 0 0 -2.56.52l-8 13.3-3.22-6.13a1.85 1.85 0 0 0 -3.08 2l4.77 7.14a1.84 1.84 0 0 0 3.08 0l9.53-14.29a1.85 1.85 0 0 0 -.52-2.54zm-8.17-11.31a20 20 0 1 0 20 20 20 20 0 0 0 -20-20zm0 36a16 16 0 1 1 16-16 16 16 0 0 1 -16 16zm34.59-53.41-18 18a2 2 0 1 0 2.82 2.82l18-18a2 2 0 0 0 -2.82-2.82zm-15.18 54a2 2 0 0 0 -2.82 2.82l18 18a2 2 0 0 0 2.82-2.82zm-38.82-33.18a2 2 0 0 0 2.82-2.82l-18-18a2 2 0 0 0 -2.82 2.82zm61.91 41.73v-50.28a15.49 15.49 0 1 0 -17.36-17.36h-50.28a15.49 15.49 0 1 0 -17.36 17.36v50.28a15.49 15.49 0 1 0 17.36 17.36h50.28a15.49 15.49 0 1 0 17.36-17.36zm-2 26.86a11.5 11.5 0 0 1 -11.31-9.5h2.31a2 2 0 0 0 0-4h-63a2 2 0 0 0 0 4h2.31a11.49 11.49 0 1 1 -13.31-13.31v2.31a2 2 0 0 0 4 0v-63a2 2 0 0 0 -4 0v2.31a11.49 11.49 0 1 1 13.31-13.31h-2.31a2 2 0 0 0 0 4h63a2 2 0 0 0 0-4h-2.31a11.49 11.49 0 1 1 13.31 13.31v-2.31a2 2 0 0 0 -4 0v63a2 2 0 0 0 4 0v-2.31a11.49 11.49 0 0 1 -2 22.81zm-59.91-35.41-18 18a2 2 0 1 0 2.82 2.82l18-18a2 2 0 0 0 -2.82-2.82z" fill="#24272a"/></svg>